{
.appVersion = "3134";
.formatVersion = 3;
customParameters = (
{
name = vendorID;
value = ITFO;
},
{
name = panose;
value = (
0,
0,
5,
0,
0,
0,
0,
0,
0,
0
);
},
{
name = unicodeRanges;
value = (
0,
1,
2,
15
);
},
{
name = codePageRanges;
value = (
"1252",
"1250",
"1254",
"1257",
"bit 29"
);
},
{
name = fsType;
value = (
);
},
{
name = glyphOrder;
value = (
.notdef,
NULL,
CR,
space,
dvA,
dvAA,
dvI,
dvII,
dvU,
dvUU,
dvvR,
dvvRR,
dvvL,
dvvLL,
dvE,
dvAI,
dvO,
dvAU,
dvEcandra,
dvAcandra,
dvOcandra,
dvmAA,
dvmI,
dvmII,
dvmU,
dvmUU,
dvmvR,
dvmvRR,
dvmvL,
dvmvLL,
dvmE,
dvmAI,
dvmO,
dvmAU,
dvmEcandra,
dvmOcandra,
dvKA,
dvKHA,
dvGA,
dvGHA,
dvNGA,
dvCA,
dvCHA,
dvJA,
dvJHA,
dvNYA,
dvTTA,
dvTTHA,
dvDDA,
dvDDHA,
dvNNA,
dvTA,
dvTHA,
dvDA,
dvDHA,
dvNA,
dvPA,
dvPHA,
dvBA,
dvBHA,
dvMA,
dvYA,
dvRA,
dvLA,
dvVA,
dvSHA,
dvSSA,
dvSA,
dvHA,
dvLLA,
dvK_SSA,
dvJ_NYA,
dvKxA,
dvKHxA,
dvGxA,
dvJxA,
dvDDxA,
dvDDHxA,
dvPHxA,
dvRxA,
dvK,
dvKH,
dvG,
dvGH,
dvNG,
dvC,
dvCH,
dvJ,
dvJH,
dvNY,
dvTT,
dvTTH,
dvDD,
dvDDH,
dvNN,
dvT,
dvTH,
dvD,
dvDH,
dvN,
dvP,
dvPH,
dvB,
dvBH,
dvM,
dvY,
dvR,
dvL,
dvV,
dvSH,
dvSS,
dvS,
dvH,
dvLL,
dvK_SS,
dvJ_NY,
dvKx,
dvKHx,
dvGx,
dvJx,
dvPHx,
dvAnusvara,
dvCandrabindu,
dvVisarga,
dvAvagraha,
dvVirama,
dvNukta,
dvZero,
dvOne,
dvTwo,
dvThree,
dvFour,
dvFive,
dvSix,
dvSeven,
dvEight,
dvNine,
dvOm,
dvAbbreviationsign,
danda,
doubledanda,
rupee,
indianrupee,
zerowidthnonjoiner,
zerowidthjoiner,
dottedcircle,
dvReph,
dvEyelash,
dvRashtrasign,
dvK_RA,
dvKH_RA,
dvG_RA,
dvGH_RA,
dvNG_RA,
dvC_RA,
dvCH_RA,
dvJ_RA,
dvJH_RA,
dvNY_RA,
dvTT_RA,
dvTTH_RA,
dvDD_RA,
dvDDH_RA,
dvNN_RA,
dvT_RA,
dvTH_RA,
dvD_RA,
dvDH_RA,
dvN_RA,
dvP_RA,
dvPH_RA,
dvB_RA,
dvBH_RA,
dvM_RA,
dvY_RA,
dvL_RA,
dvV_RA,
dvSH_RA,
dvSS_RA,
dvS_RA,
dvH_RA,
dvLL_RA,
dvKx_RA,
dvKHx_RA,
dvGx_RA,
dvJx_RA,
dvPHx_RA,
dvK_R,
dvKH_R,
dvG_R,
dvGH_R,
dvNG_R,
dvC_R,
dvCH_R,
dvJ_R,
dvJH_R,
dvNY_R,
dvTT_R,
dvTTH_R,
dvDD_R,
dvDDH_R,
dvNN_R,
dvT_R,
dvTH_R,
dvD_R,
dvDH_R,
dvN_R,
dvP_R,
dvPH_R,
dvB_R,
dvBH_R,
dvM_R,
dvY_R,
dvL_R,
dvV_R,

glyphs = (
{
glyphname = .notdef;
lastChange = "2022-10-20 15:42:28 +0000";
layers = (
{
layerId = m01;
shapes = (
{
closed = 1;
nodes = (
(-62,0,l),
(438,0,l),
(562,700,l),
(62,700,l)
);
},
{
closed = 1;
nodes = (
(258,395,l),
(133,650,l),
(473,650,l)
);
},
{
closed = 1;
nodes = (
(280,350,l),
(495,605,l),
(405,95,l)
);
},
{
closed = 1;
nodes = (
(27,50,l),
(242,305,l),
(367,50,l)
);
},
{
closed = 1;
nodes = (
(95,605,l),
(220,350,l),
(5,95,l)
);
}
);
width = 500;
}
);
note = ".notdef";
},
{
glyphname = dvR;
lastChange = "2022-10-20 15:42:28 +0000";
layers = (
{
layerId = m01;
shapes = (
{
closed = 1;
nodes = (
(263,-290,l),
(349,-290,l),
(260,-91,l),
(176,-91,l)
);
},
{
closed = 1;
nodes = (
(51,670,l),
(437,670,l),
(421,574,ls),
(401,463,o),
(334,407,o),
(220,407,cs),
(115,407,l),
(80,207,ls),
(58,82,o),
(107,-9,o),
(240,-9,cs),
(360,-9,o),
(446,71,o),
(468,194,cs),
(471,211,l),
(391,211,l),
(387,192,ls),
(374,115,o),
(321,63,o),
(250,63,cs),
(172,63,o),
(147,121,o),
(161,202,cs),
(185,339,l),
(236,339,ls),
(391,339,o),
(477,426,o),
(504,574,cs),
(520,670,l),
(640,670,l),
(653,740,l),
(64,740,l)
);
}
);
width = 535;
}
);
note = dvR;
},
{
glyphname = dvKx;
lastChange = "2022-10-20 15:42:28 +0000";
layers = (
{
layerId = m01;
shapes = (
{
closed = 1;
nodes = (
(406,0,l),
(486,0,l),
(543,322,ls),
(557,401,o),
(615,487,o),
(722,487,cs),
(804,487,o),
(858,426,o),
(841,330,c),
(926,330,l),
(950,466,o),
(880,559,o),
(758,559,cs),
(669,559,o),
(605,513,o),
(566,453,c),
(604,670,l),
(986,670,l),
(999,740,l),
(47,740,l),
(34,670,l),
(524,670,l),
(487,457,l),
(468,515,o),
(418,559,o),
(328,559,cs),
(202,559,o),
(96,470,o),
(71,330,cs),
(46,188,o),
(118,98,o),
(243,98,cs),
(335,98,o),
(402,143,o),
(442,202,c)
);
},
{
closed = 1;
nodes = (
(227,-95,o),
(256,-71,o),
(261,-40,cs),
(267,-8,o),
(247,17,o),
(215,17,cs),
(183,17,o),
(155,-8,o),
(149,-40,cs),
(144,-71,o),
(163,-95,o),
(195,-95,cs)
);
},
{
closed = 1;
nodes = (
(193,168,o),
(137,228,o),
(155,330,cs),
(172,427,o),
(252,487,o),
(338,487,cs),
(446,487,o),
(477,404,o),
(464,328,cs),
(451,255,o),
(389,168,o),
(282,168,cs)
);
}
);
width = 738;
}
);
note = dvKx;
},
{
glyphname = dvGx;
lastChange = "2022-10-20 15:42:28 +0000";
layers = (
{
layerId = m01;
shapes = (
{
closed = 1;
nodes = (
(23,670,l),
(345,670,l),
(297,397,ls),
(289,348,o),
(263,296,o),
(196,296,cs),
(134,296,o),
(123,346,o),
(132,394,cs),
(137,425,l),
(55,425,l),
(50,395,ls),
(32,295,o),
(75,224,o),
(187,224,cs),
(304,224,o),
(365,304,o),
(382,400,cs),
(429,670,l),
(556,670,l),
(569,740,l),
(36,740,l)
);
},
{
closed = 1;
nodes = (
(188,28,o),
(216,52,o),
(222,83,cs),
(228,115,o),
(208,140,o),
(176,140,cs),
(144,140,o),
(116,115,o),
(110,83,cs),
(104,52,o),
(124,28,o),
(156,28,cs)
);
}
);
width = 480;
}
);
note = dvGx;
},
{
glyphname = dvJx;
lastChange = "2022-10-20 15:42:28 +0000";
layers = (
{
layerId = m01;
shapes = (
{
closed = 1;
nodes = (
(351,131,o),
(440,214,o),
(461,332,cs),
(477,427,l),
(709,427,l),
(722,499,l),
(409,499,l),
(380,334,ls),
(366,257,o),
(314,204,o),
(244,204,cs),
(176,204,o),
(144,257,o),
(158,334,cs),
(187,499,l),
(103,499,l),
(74,332,ls),
(53,214,o),
(107,131,o),
(230,131,cs)
);
},
{
closed = 1;
nodes = (
(31,670,l),
(752,670,l),
(765,740,l),
(44,740,l)
);
},
{
closed = 1;
nodes = (
(232,-60,o),
(261,-36,o),
(266,-5,cs),
(272,27,o),
(252,52,o),
(220,52,cs),
(188,52,o),
(160,27,o),
(154,-5,cs),
(149,-36,o),
(168,-60,o),
(200,-60,cs)
);
}
);
width = 546;
}
);
note = dvJx;
},
{
glyphname = rupee;
lastChange = "2022-10-20 15:42:28 +0000";
layers = (
{
layerId = m01;
shapes = (
{
closed = 1;
nodes = (
(462,414,o),
(409,360,o),
(305,360,cs),
(171,360,l),
(218,625,l),
(352,625,ls),
(456,625,o),
(490,573,o),
(476,492,cs)
);
},
{
closed = 1;
nodes = (
(139,697,l),
(16,0,l),
(107,0,l),
(158,288,l),
(248,288,l),
(381,0,l),
(492,0,l),
(353,292,l),
(486,313,o),
(553,399,o),
(569,492,cs),
(589,606,o),
(528,697,o),
(364,697,cs)
);
},
{
closed = 1;
nodes = (
(586,197,o),
(928,292,o),
(903,150,cs),
(894,100,o),
(849,64,o),
(777,64,cs),
(703,64,o),
(666,106,o),
(672,166,c),
(578,166,l),
(567,54,o),
(641,-9,o),
(764,-9,cs),
(881,-9,o),
(976,56,o),
(992,148,cs),
(1029,357,o),
(686,258,o),
(711,399,cs),
(719,448,o),
(765,484,o),
(835,484,cs),
(909,484,o),
(939,442,o),
(934,383,c),
(1027,383,l),
(1039,491,o),
(973,557,o),
(854,557,cs),
(726,557,o),
(637,485,o),
(621,396,cs)
);
}
);
width = 1109;
}
);
note = rupee;
unicode = 8360;
},
{
glyphname = indianrupee;
lastChange = "2022-10-20 15:42:28 +0000";
layers = (
{
layerId = m01;
shapes = (
{
closed = 1;
nodes = (
(102,631,l),
(431,631,l),
(415,541,ls),
(414,535,o),
(413,529,o),
(412,523,c),
(83,523,l),
(71,457,l),
(396,457,l),
(364,352,o),
(305,340,o),
(95,340,c),
(70,199,ls),
(48,69,o),
(102,-10,o),
(236,-10,cs),
(363,-10,o),
(447,57,o),
(472,192,c),
(388,192,l),
(374,112,o),
(332,62,o),
(249,62,cs),
(162,62,o),
(141,118,o),
(155,197,cs),
(169,276,l),
(356,276,o),
(439,321,o),
(481,457,c),
(615,457,l),
(627,523,l),
(498,523,l),
(498,528,o),
(500,534,o),
(501,540,cs),
(517,631,l),
(646,631,l),
(657,698,l),
(113,698,l)
);
}
);
width = 635;
}
);
note = indianrupee;
unicode = 8377;
},
{
glyphname = zerowidthnonjoiner;
lastChange = "2022-10-20 15:42:28 +0000";
layers = (
{
layerId = m01;
shapes = (
{
closed = 1;
nodes = (
(-68,-230,l),
(116,811,l),
(69,811,l),
(-115,-230,l)
);
}
);
width = 0;
}
);
note = zerowidthnonjoiner;
unicode = 8204;
},
{
glyphname = zerowidthjoiner;
lastChange = "2022-10-20 15:42:28 +0000";
layers = (
{
layerId = m01;
shapes = (
{
closed = 1;
nodes = (
(181,593,l),
(102,688,l),
(215,784,l),
(188,816,l),
(75,721,l),
(-3,816,l),
(-42,783,l),
(37,688,l),
(-73,595,l),
(-46,562,l),
(36,635,l),
(-116,-230,l),
(-69,-230,l),
(83,635,l),
(142,560,l)
);
}
);
width = 0;
}
);
note = zerowidthjoiner;
unicode = 8205;
},
{
glyphname = dottedcircle;
lastChange = "2022-10-20 15:42:28 +0000";
layers = (
{
layerId = m01;
shapes = (
{
closed = 1;
nodes = (
(587,434,o),
(572,451,o),
(547,451,cs),
(522,451,o),
(501,434,o),
(496,409,cs),
(492,384,o),
(507,367,o),
(532,367,cs),
(557,367,o),
(578,384,o),
(582,409,cs)
);
},
{
closed = 1;
nodes = (
(160,148,o),
(145,165,o),
(120,165,cs),
(95,165,o),
(74,148,o),
(70,123,cs),
(65,98,o),
(80,81,o),
(105,81,cs),
(130,81,o),
(151,98,o),
(156,123,cs)
);
},
{
closed = 1;
nodes = (
(245,72,o),
(230,89,o),
(205,89,cs),
(180,89,o),
(159,72,o),
(154,47,cs),
(150,22,o),
(165,5,o),
(190,5,cs),
(215,5,o),
(236,22,o),
(240,47,cs)
);
},
{
closed = 1;
nodes = (
(135,261,o),
(120,278,o),
(95,278,cs),
(70,278,o),
(49,261,o),
(45,236,cs),
(40,211,o),
(55,194,o),
(80,194,cs),
(105,194,o),
(126,211,o),
(131,236,cs)
);
},
{
closed = 1;
nodes = (
(366,58,o),
(351,75,o),
(326,75,cs),
(301,75,o),
(280,58,o),
(276,33,cs),
(272,8,o),
(287,-9,o),
(312,-9,cs),
(337,-9,o),
(358,8,o),
(362,33,cs)
);
},
{
closed = 1;
nodes = (
(172,382,o),
(157,399,o),
(132,399,cs),
(107,399,o),
(86,382,o),
(81,357,cs),
(77,332,o),
(92,315,o),
(117,315,cs),
(142,315,o),
(163,332,o),
(167,357,cs)
);
},
{
closed = 1;
nodes = (
(490,104,o),
(475,121,o),
(450,121,cs),
(425,121,o),
(404,104,o),
(399,79,cs),
(395,54,o),
(410,37,o),
(435,37,cs),
(460,37,o),
(481,54,o),
(485,79,cs)
);
},
{
closed = 1;
nodes = (
(265,481,o),
(250,498,o),
(225,498,cs),
(200,498,o),
(179,481,o),
(175,456,cs),
(170,431,o),
(185,414,o),
(210,414,cs),
(235,414,o),
(256,431,o),
(261,456,cs)
);
},
{
closed = 1;
nodes = (
(579,200,o),
(564,217,o),
(539,217,cs),
(514,217,o),
(493,200,o),
(489,175,cs),
(485,150,o),
(500,133,o),
(525,133,cs),
(550,133,o),
(571,150,o),
(575,175,cs)
);
},
{
closed = 1;
nodes = (
(389,523,o),
(374,540,o),
(349,540,cs),
(324,540,o),
(303,523,o),
(299,498,cs),
(295,473,o),
(310,456,o),
(335,456,cs),
(360,456,o),
(381,473,o),
(385,498,cs)
);
},
{
closed = 1;
nodes = (
(611,320,o),
(596,337,o),
(571,337,cs),
(546,337,o),
(525,320,o),
(520,295,cs),
(516,270,o),
(531,253,o),
(556,253,cs),
(581,253,o),
(602,270,o),
(606,295,cs)
);
},
{
closed = 1;
nodes = (
(508,508,o),
(493,525,o),
(468,525,cs),
(443,525,o),
(422,508,o),
(417,483,cs),
(413,458,o),
(428,441,o),
(453,441,cs),
(478,441,o),
(499,458,o),
(503,483,cs)
);
}
);
width = 651;
}
);
note = dottedcircle;
unicode = 9676;
},
{
glyphname = dvEyelash;
lastChange = "2022-10-20 15:42:28 +0000";
layers = (
{
layerId = m01;
shapes = (
{
closed = 1;
nodes = (
(334,436,l),
(315,431,o),
(291,424,o),
(255,424,cs),
(176,424,o),
(94,457,o),
(111,558,c),
(31,558,l),
(8,412,o),
(120,362,o),
(232,362,cs),
(280,362,o),
(327,373,o),
(355,387,c)
);
},
{
closed = 1;
nodes = (
(-6,670,l),
(387,670,l),
(399,740,l),
(6,740,l)
);
}
);
width = 294;
}
);
note = dvEyelash;
},
{
glyphname = dvRashtrasign;
lastChange = "2022-10-20 15:42:28 +0000";
layers = (
{
layerId = m01;
shapes = (
{
closed = 1;
nodes = (
(-478,-97,l),
(-391,-97,l),
(-230,50,l),
(-121,-97,l),
(-34,-97,l),
(-168,82,l),
(-280,82,l)
);
}
);
width = 0;
}
);
note = dvRashtrasign;
},
{
glyphname = dvKx_RA;
lastChange = "2022-10-20 15:42:28 +0000";
layers = (
{
layerId = m01;
shapes = (
{
closed = 1;
nodes = (
(449,0,l),
(530,0,l),
(587,322,ls),
(600,400,o),
(659,487,o),
(765,487,cs),
(848,487,o),
(902,426,o),
(885,330,cs),
(867,229,o),
(794,171,o),
(712,171,cs),
(698,171,o),
(682,172,o),
(671,175,c),
(659,109,l),
(676,104,o),
(698,102,o),
(720,102,cs),
(839,102,o),
(944,186,o),
(969,332,cs),
(993,466,o),
(922,559,o),
(800,559,cs),
(712,559,o),
(648,514,o),
(610,456,c),
(648,670,l),
(1125,670,l),
(1137,740,l),
(42,740,l),
(30,670,l),
(567,670,l),
(530,458,l),
(511,515,o),
(460,559,o),
(370,559,cs),
(244,559,o),
(139,470,o),
(114,330,cs),
(90,192,o),
(165,104,o),
(287,104,cs),
(289,104,l),
(108,-46,l),
(199,-46,l),
(433,151,l),
(454,166,o),
(471,185,o),
(485,205,c)
);
},
{
closed = 1;
nodes = (
(236,168,o),
(180,228,o),
(198,330,cs),
(215,427,o),
(295,487,o),
(381,487,cs),
(489,487,o),
(520,404,o),
(507,328,cs),
(497,272,o),
(458,208,o),
(392,181,c),
(385,184,l),
(374,175,l),
(359,170,o),
(342,168,o),
(324,168,cs)
);
},
{
closed = 1;
nodes = (
(57,9,o),
(83,32,o),
(89,61,cs),
(94,91,o),
(76,114,o),
(46,114,cs),
(16,114,o),
(-11,91,o),
(-16,61,cs),
(-22,32,o),
(-3,9,o),
(27,9,cs)
);
}
);
width = 1042;
}
);
note = dvKx_RA;
},
{
glyphname = dvGx_RA;
lastChange = "2022-10-20 15:42:28 +0000";
layers = (
{
layerId = m01;
shapes = (
{
closed = 1;
nodes = (
(496,0,l),
(577,0,l),
(695,670,l),
(827,670,l),
(839,740,l),
(40,740,l),
(28,670,l),
(350,670,l),
(311,449,ls),
(302,401,o),
(277,349,o),
(210,349,cs),
(148,349,o),
(137,399,o),
(146,448,cs),
(151,479,l),
(69,479,l),
(64,448,ls),
(46,349,o),
(89,278,o),
(201,278,cs),
(318,278,o),
(378,357,o),
(395,453,cs),
(434,670,l),
(612,670,l),
(553,337,l),
(126,-20,l),
(222,-20,l),
(540,251,l)
);
},
{
closed = 1;
nodes = (
(74,56,o),
(100,79,o),
(106,108,cs),
(111,138,o),
(93,161,o),
(63,161,cs),
(33,161,o),
(6,138,o),
(1,108,cs),
(-5,79,o),
(14,56,o),
(44,56,cs)
);
}
);
width = 745;
}
);
note = dvGx_RA;
},
{
glyphname = dvJx_RA;
lastChange = "2022-10-20 15:42:28 +0000";
layers = (
{
layerId = m01;
shapes = (
{
closed = 1;
nodes = (
(29,670,l),
(712,670,l),
(682,501,l),
(407,501,l),
(390,404,ls),
(376,326,o),
(324,274,o),
(254,274,cs),
(186,274,o),
(154,326,o),
(168,404,cs),
(185,501,l),
(101,501,l),
(84,402,ls),
(63,284,o),
(117,200,o),
(240,200,cs),
(361,200,o),
(447,284,o),
(468,402,cs),
(473,433,l),
(670,433,l),
(651,327,l),
(235,-34,l),
(328,-34,l),
(637,242,l),
(595,0,l),
(673,0,l),
(791,670,l),
(923,670,l),
(935,740,l),
(41,740,l)
);
},
{
closed = 1;
nodes = (
(110,-9,o),
(136,14,o),
(141,43,cs),
(147,73,o),
(129,96,o),
(99,96,cs),
(69,96,o),
(42,73,o),
(36,43,cs),
(31,14,o),
(50,-9,o),
(80,-9,cs)
);
}
);
width = 840;
}
);
note = dvJx_RA;
},
{
glyphname = dvKx_R;
lastChange = "2022-10-20 15:42:28 +0000";
layers = (
{
layerId = m01;
shapes = (
{
closed = 1;
nodes = (
(449,0,l),
(530,0,l),
(587,322,ls),
(600,400,o),
(659,487,o),
(765,487,cs),
(848,487,o),
(902,426,o),
(885,330,c),
(969,330,l),
(993,466,o),
(922,559,o),
(800,559,cs),
(712,559,o),
(648,514,o),
(610,456,c),
(648,670,l),
(1029,670,l),
(1041,740,l),
(42,740,l),
(30,670,l),
(567,670,l),
(530,458,l),
(511,515,o),
(460,559,o),
(370,559,cs),
(244,559,o),
(139,470,o),
(114,330,cs),
(90,192,o),
(165,104,o),
(287,104,cs),
(289,104,l),
(108,-46,l),
(199,-46,l),
(433,151,l),
(454,166,o),
(471,185,o),
(485,205,c)
);
},
{
closed = 1;
nodes = (
(236,168,o),
(180,228,o),
(198,330,cs),
(215,427,o),
(295,487,o),
(381,487,cs),
(489,487,o),
(520,404,o),
(507,328,cs),
(497,272,o),
(458,208,o),
(392,181,c),
(385,184,l),
(374,175,l),
(359,170,o),
(342,168,o),
(324,168,cs)
);
},
{
closed = 1;
nodes = (
(57,9,o),
(83,32,o),
(89,61,cs),
(94,91,o),
(76,114,o),
(46,114,cs),
(16,114,o),
(-11,91,o),
(-16,61,cs),
(-22,32,o),
(-3,9,o),
(27,9,cs)
);
}
);
width = 785;
}
);
note = dvKx_R;
},
{
glyphname = dvGx_R;
lastChange = "2022-10-20 15:42:28 +0000";
layers = (
{
layerId = m01;
shapes = (
{
closed = 1;
nodes = (
(556,265,l),
(572,353,l),
(126,-20,l),
(222,-20,l)
);
},
{
closed = 1;
nodes = (
(28,670,l),
(350,670,l),
(311,449,ls),
(302,401,o),
(277,349,o),
(210,349,cs),
(148,349,o),
(137,399,o),
(146,448,cs),
(151,479,l),
(69,479,l),
(64,448,ls),
(46,349,o),
(89,278,o),
(201,278,cs),
(318,278,o),
(378,357,o),
(395,453,cs),
(434,670,l),
(628,670,l),
(640,740,l),
(40,740,l)
);
},
{
closed = 1;
nodes = (
(74,56,o),
(100,79,o),
(106,108,cs),
(111,138,o),
(93,161,o),
(63,161,cs),
(33,161,o),
(6,138,o),
(1,108,cs),
(-5,79,o),
(14,56,o),
(44,56,cs)
);
}
);
width = 480;
}
);
note = dvGx_R;
},
{
glyphname = dvJx_R;
lastChange = "2022-10-20 15:42:28 +0000";
layers = (
{
layerId = m01;
shapes = (
{
closed = 1;
nodes = (
(235,-34,l),
(328,-34,l),
(681,281,l),
(696,366,l)
);
},
{
closed = 1;
nodes = (
(29,670,l),
(750,670,l),
(762,740,l),
(41,740,l)
);
},
{
closed = 1;
nodes = (
(361,200,o),
(447,284,o),
(468,402,cs),
(473,430,l),
(708,430,l),
(720,501,l),
(407,501,l),
(390,404,ls),
(376,326,o),
(324,274,o),
(254,274,cs),
(186,274,o),
(154,326,o),
(168,404,cs),
(185,501,l),
(101,501,l),
(84,402,ls),
(63,284,o),
(117,200,o),
(240,200,cs)
);
},
{
closed = 1;
nodes = (
(110,-9,o),
(136,14,o),
(141,43,cs),
(147,73,o),
(129,96,o),
(99,96,cs),
(69,96,o),
(42,73,o),
(36,43,cs),
(31,14,o),
(50,-9,o),
(80,-9,cs)
);
}
);
width = 546;
}
);
note = dvJx_R;
},
{
glyphname = dvKx_KxA;
lastChange = "2022-10-20 15:42:28 +0000";
layers = (
{
layerId = m01;
shapes = (
{
closed = 1;
nodes = (
(227,-95,o),
(256,-71,o),
(261,-40,cs),
(267,-8,o),
(247,17,o),
(215,17,cs),
(183,17,o),
(155,-8,o),
(149,-40,cs),
(144,-71,o),
(163,-95,o),
(195,-95,cs)
);
},
{
closed = 1;
nodes = (
(985,-95,o),
(1014,-71,o),
(1019,-40,cs),
(1025,-8,o),
(1005,17,o),
(973,17,cs),
(941,17,o),
(913,-8,o),
(907,-40,cs),
(902,-71,o),
(921,-95,o),
(953,-95,cs)
);
},
{
closed = 1;
nodes = (
(193,168,o),
(137,228,o),
(155,330,cs),
(172,427,o),
(252,487,o),
(338,487,cs),
(446,487,o),
(477,404,o),
(464,328,cs),
(451,255,o),
(389,168,o),
(282,168,cs)
);
},
{
closed = 1;
nodes = (
(950,168,o),
(894,228,o),
(912,330,cs),
(929,427,o),
(1009,487,o),
(1095,487,cs),
(1203,487,o),
(1234,404,o),
(1221,328,cs),
(1208,255,o),
(1146,168,o),
(1039,168,cs)
);
},
{
closed = 1;
nodes = (
(1281,670,l),
(1244,457,l),
(1225,515,o),
(1175,559,o),
(1085,559,cs),
(1009,559,o),
(940,527,o),
(892,470,c),
(870,526,o),
(822,559,o),
(752,559,cs),
(664,559,o),
(603,515,o),
(567,458,c),
(604,670,l)
);
},
{
closed = 1;
nodes = (
(1163,0,l),
(1243,0,l),
(1300,322,ls),
(1314,401,o),
(1372,487,o),
(1479,487,cs),
(1561,487,o),
(1615,426,o),
(1598,330,cs),
(1581,229,o),
(1507,171,o),
(1426,171,cs),
(1412,171,o),
(1396,172,o),
(1385,175,c),
(1373,109,l),
(1390,104,o),
(1411,102,o),
(1434,102,cs),
(1553,102,o),
(1658,186,o),
(1684,332,cs),
(1707,466,o),
(1637,559,o),
(1515,559,cs),
(1426,559,o),
(1362,513,o),
(1323,453,c),
(1361,670,l),
(1839,670,l),
(1852,740,l),
(47,740,l),
(34,670,l),
(524,670,l),
(487,457,l),
(468,515,o),
(418,559,o),
(328,559,cs),
(202,559,o),
(96,470,o),
(71,330,cs),
(46,188,o),
(118,98,o),
(243,98,cs),
(335,98,o),
(402,143,o),
(442,202,c),
(406,0,l),
(486,0,l),
(543,322,ls),
(557,401,o),
(609,487,o),
(715,487,cs),
(798,487,o),
(845,426,o),
(828,330,cs),
(803,188,o),
(875,98,o),
(1000,98,cs),
(1092,98,o),
(1159,143,o),
(1199,202,c)
);
}
);
width = 1752;
}
);
note = dvKx_KxA;
},
{
glyphname = dvKx_TA;
lastChange = "2022-10-20 15:42:28 +0000";
layers = (
{
layerId = m01;
shapes = (
{
closed = 1;
nodes = (
(659,552,o),
(601,512,o),
(567,457,c),
(604,670,l),
(1298,670,l),
(1268,498,l),
(1118,498,ls),
(1029,498,o),
(949,476,o),
(890,428,c),
(880,511,o),
(821,552,o),
(741,552,cs)
);
},
{
closed = 1;
nodes = (
(227,-95,o),
(256,-71,o),
(261,-40,cs),
(267,-8,o),
(247,17,o),
(215,17,cs),
(183,17,o),
(155,-8,o),
(149,-40,cs),
(144,-71,o),
(163,-95,o),
(195,-95,cs)
);
},
{
closed = 1;
nodes = (
(193,168,o),
(137,228,o),
(155,330,cs),
(172,427,o),
(252,487,o),
(338,487,cs),
(446,487,o),
(477,404,o),
(464,328,cs),
(451,255,o),
(389,168,o),
(282,168,cs)
);
},
{
closed = 1;
nodes = (
(543,322,ls),
(556,399,o),
(606,484,o),
(707,484,cs),
(783,484,o),
(834,427,o),
(802,301,c),
(796,285,o),
(792,267,o),
(789,249,cs),
(760,84,o),
(851,2,o),
(1005,2,cs),
(1038,2,l),
(1050,69,l),
(1028,69,ls),
(906,69,o),
(853,135,o),
(873,248,cs),
(894,368,o),
(985,426,o),
(1109,426,cs),
(1255,426,l),
(1180,0,l),
(1264,0,l),
(1382,670,l),
(1514,670,l),
(1527,740,l),
(47,740,l),
(34,670,l),
(524,670,l),
(487,457,l),
(468,515,o),
(418,559,o),
(328,559,cs),
(202,559,o),
(96,470,o),
(71,330,cs),
(46,188,o),
(118,98,o),
(243,98,cs),
(335,98,o),
(402,143,o),
(442,202,c),
(406,0,l),
(486,0,l)
);
}
);
width = 1426;
}
);
note = dvKx_TA;
},
{
glyphname = dvKx_PHA;
lastChange = "2022-10-20 15:42:28 +0000";
layers = (
{
layerId = m01;
shapes = (
{
closed = 1;
nodes = (
(604,670,l),
(876,670,l),
(851,527,l),
(825,545,o),
(791,555,o),
(751,555,cs),
(663,555,o),
(603,513,o),
(567,456,c)
);
},
{
closed = 1;
nodes = (
(932,268,o),
(900,335,o),
(919,441,cs),
(959,670,l),
(1239,670,l),
(1195,419,ls),
(1181,338,o),
(1119,268,o),
(1029,268,cs)
);
},
{
closed = 1;
nodes = (
(543,322,ls),
(557,401,o),
(609,487,o),
(715,487,cs),
(778,487,o),
(822,451,o),
(830,392,c),
(823,273,o),
(878,197,o),
(998,197,cs),
(1072,197,o),
(1131,229,o),
(1171,281,c),
(1121,0,l),
(1204,0,l),
(1259,313,ls),
(1274,398,o),
(1334,487,o),
(1443,487,cs),
(1526,487,o),
(1580,426,o),
(1563,330,cs),
(1546,230,o),
(1473,170,o),
(1391,170,cs),
(1376,170,o),
(1359,172,o),
(1347,175,c),
(1336,110,l),
(1352,105,o),
(1376,102,o),
(1398,102,cs),
(1518,102,o),
(1622,187,o),
(1648,334,cs),
(1671,467,o),
(1601,559,o),
(1480,559,cs),
(1389,559,o),
(1323,514,o),
(1284,454,c),
(1322,670,l),
(1803,670,l),
(1816,740,l),
(47,740,l),
(34,670,l),
(524,670,l),
(487,457,l),
(468,515,o),
(418,559,o),
(328,559,cs),
(202,559,o),
(96,470,o),
(71,330,cs),
(46,188,o),
(118,98,o),
(243,98,cs),
(335,98,o),
(402,143,o),
(442,202,c),
(406,0,l),
(486,0,l)
);
},
{
closed = 1;
nodes = (
(227,-95,o),
(256,-71,o),
(261,-40,cs),
(267,-8,o),
(247,17,o),
(215,17,cs),
(183,17,o),
(155,-8,o),
(149,-40,cs),
(144,-71,o),
(163,-95,o),
(195,-95,cs)
);
},
{
closed = 1;
nodes = (
(193,168,o),
(137,228,o),
(155,330,cs),
(172,427,o),
(252,487,o),
(338,487,cs),
(446,487,o),
(477,404,o),
(464,328,cs),
(451,255,o),
(389,168,o),
(282,168,cs)
);
}
);
width = 1716;
}
);
note = dvKx_PHA;
},
{
glyphname = dvKx_PHxA;
lastChange = "2022-10-20 15:42:28 +0000";
layers = (
{
layerId = m01;
shapes = (
{
closed = 1;
nodes = (
(604,670,l),
(877,670,l),
(852,526,l),
(825,545,o),
(791,555,o),
(751,555,cs),
(663,555,o),
(603,513,o),
(567,456,c)
);
},
{
closed = 1;
nodes = (
(227,-95,o),
(256,-71,o),
(261,-40,cs),
(267,-8,o),
(247,17,o),
(215,17,cs),
(183,17,o),
(155,-8,o),
(149,-40,cs),
(144,-71,o),
(163,-95,o),
(195,-95,cs)
);
},
{
closed = 1;
nodes = (
(968,9,o),
(996,33,o),
(1001,64,cs),
(1007,96,o),
(987,121,o),
(955,121,cs),
(923,121,o),
(895,96,o),
(889,64,cs),
(884,33,o),
(904,9,o),
(936,9,cs)
);
},
{
closed = 1;
nodes = (
(193,168,o),
(137,228,o),
(155,330,cs),
(172,427,o),
(252,487,o),
(338,487,cs),
(446,487,o),
(477,404,o),
(464,328,cs),
(451,255,o),
(389,168,o),
(282,168,cs)
);
},
{
closed = 1;
nodes = (
(933,268,o),
(901,335,o),
(920,441,cs),
(960,670,l),
(1240,670,l),
(1196,419,ls),
(1182,338,o),
(1120,268,o),
(1030,268,cs)
);
},
{
closed = 1;
nodes = (
(543,322,ls),
(557,401,o),
(609,487,o),
(715,487,cs),
(780,487,o),
(824,449,o),
(831,386,c),
(826,270,o),
(881,197,o),
(999,197,cs),
(1073,197,o),
(1132,229,o),
(1172,281,c),
(1122,0,l),
(1205,0,l),
(1260,313,ls),
(1275,398,o),
(1335,487,o),
(1444,487,cs),
(1527,487,o),
(1581,426,o),
(1564,330,cs),
(1547,230,o),
(1474,170,o),
(1392,170,cs),
(1377,170,o),
(1360,172,o),
(1348,175,c),
(1337,110,l),
(1353,105,o),
(1377,102,o),
(1399,102,cs),
(1519,102,o),
(1623,187,o),
(1649,334,cs),
(1672,467,o),
(1602,559,o),
(1481,559,cs),
(1390,559,o),
(1324,514,o),
(1285,454,c),
(1323,670,l),
(1804,670,l),
(1817,740,l),
(47,740,l),
(34,670,l),
(524,670,l),
(487,457,l),
(468,515,o),
(418,559,o),
(328,559,cs),
(202,559,o),
(96,470,o),
(71,330,cs),
(46,188,o),
(118,98,o),
(243,98,cs),
(335,98,o),
(402,143,o),
(442,202,c),
(406,0,l),
(486,0,l)
);
}
);
width = 1717;
}
);
note = dvKx_PHxA;
},
{
glyphname = dvKx_BA;
lastChange = "2022-10-20 15:42:28 +0000";
layers = (
{
layerId = m01;
shapes = (
{
closed = 1;
nodes = (
(604,670,l),
(1322,670,l),
(1286,463,l),
(1263,521,o),
(1206,569,o),
(1110,569,cs),
(1025,569,o),
(947,532,o),
(893,469,c),
(871,525,o),
(822,559,o),
(752,559,cs),
(664,559,o),
(603,515,o),
(567,458,c)
);
},
{
closed = 1;
nodes = (
(1204,0,l),
(1284,0,l),
(1402,670,l),
(1533,670,l),
(1546,740,l),
(47,740,l),
(34,670,l),
(524,670,l),
(487,457,l),
(468,515,o),
(418,559,o),
(328,559,cs),
(202,559,o),
(96,470,o),
(71,330,cs),
(46,188,o),
(118,98,o),
(243,98,cs),
(335,98,o),
(402,143,o),
(442,202,c),
(406,0,l),
(486,0,l),
(543,322,ls),
(557,401,o),
(609,487,o),
(715,487,cs),
(798,487,o),
(845,426,o),
(828,330,cs),
(803,184,o),
(894,91,o),
(1029,91,cs),
(1124,91,o),
(1197,137,o),
(1239,196,c)
);
},
{
closed = 1;
nodes = (
(227,-95,o),
(256,-71,o),
(261,-40,cs),
(267,-8,o),
(247,17,o),
(215,17,cs),
(183,17,o),
(155,-8,o),
(149,-40,cs),
(144,-71,o),
(163,-95,o),
(195,-95,cs)
);
},
{
closed = 1;
nodes = (
(193,168,o),
(137,228,o),
(155,330,cs),
(172,427,o),
(252,487,o),
(338,487,cs),
(446,487,o),
(477,404,o),
(464,328,cs),
(451,255,o),
(389,168,o),
(282,168,cs)
);
},
{
closed = 1;
nodes = (
(1238,512,o),
(1281,419,o),
(1266,332,cs),
(1260,297,o),
(1243,259,o),
(1216,228,c),
(986,468,l),
(1023,496,o),
(1069,512,o),
(1116,512,cs)
);
},
{
closed = 1;
nodes = (
(955,153,o),
(883,218,o),
(902,330,cs),
(910,372,o),
(928,409,o),
(953,438,c),
(1186,198,l),
(1152,171,o),
(1108,153,o),
(1055,153,cs)
);
}
);
width = 1446;
}
);
note = dvKx_BA;
},
{
glyphname = dvKx_MA;
lastChange = "2022-10-20 15:42:28 +0000";
layers = (
{
layerId = m01;
shapes = (
{
closed = 1;
nodes = (
(663,555,o),
(602,512,o),
(567,456,c),
(604,670,l),
(1165,670,l),
(1127,454,l),
(1032,454,ls),
(987,454,o),
(944,444,o),
(909,423,c),
(897,505,o),
(842,555,o),
(751,555,cs)
);
},
{
closed = 1;
nodes = (
(227,-95,o),
(256,-71,o),
(261,-40,cs),
(267,-8,o),
(247,17,o),
(215,17,cs),
(183,17,o),
(155,-8,o),
(149,-40,cs),
(144,-71,o),
(163,-95,o),
(195,-95,cs)
);
},
{
closed = 1;
nodes = (
(193,168,o),
(137,228,o),
(155,330,cs),
(172,427,o),
(252,487,o),
(338,487,cs),
(446,487,o),
(477,404,o),
(464,328,cs),
(451,255,o),
(389,168,o),
(282,168,cs)
);
},
{
closed = 1;
nodes = (
(912,172,o),
(875,213,o),
(886,278,cs),
(898,345,o),
(954,385,o),
(1022,385,cs),
(1115,385,l),
(1101,304,ls),
(1086,221,o),
(1038,172,o),
(973,172,cs)
);
},
{
closed = 1;
nodes = (
(1388,454,l),
(1205,454,l),
(1243,670,l),
(1426,670,l)
);
},
{
closed = 1;
nodes = (
(543,322,ls),
(557,401,o),
(609,487,o),
(715,487,cs),
(794,487,o),
(840,432,o),
(831,343,c),
(820,324,o),
(812,302,o),
(808,278,cs),
(789,172,o),
(850,101,o),
(961,101,cs),
(1078,101,o),
(1156,175,o),
(1179,308,cs),
(1193,385,l),
(1376,385,l),
(1308,0,l),
(1392,0,l),
(1510,670,l),
(1641,670,l),
(1654,740,l),
(47,740,l),
(34,670,l),
(524,670,l),
(487,457,l),
(468,515,o),
(418,559,o),
(328,559,cs),
(202,559,o),
(96,470,o),
(71,330,cs),
(46,188,o),
(118,98,o),
(243,98,cs),
(335,98,o),
(402,143,o),
(442,202,c),
(406,0,l),
(486,0,l)
);
}
);
width = 1549;
}
);
note = dvKx_MA;
},
{
glyphname = dvJx_JxA;
lastChange = "2022-10-20 15:42:28 +0000";
layers = (
{
layerId = m01;
shapes = (
{
closed = 1;
nodes = (
(232,-60,o),
(261,-36,o),
(266,-5,cs),
(272,27,o),
(252,52,o),
(220,52,cs),
(188,52,o),
(160,27,o),
(154,-5,cs),
(149,-36,o),
(168,-60,o),
(200,-60,cs)
);
},
{
closed = 1;
nodes = (
(801,-60,o),
(830,-36,o),
(835,-5,cs),
(841,27,o),
(821,52,o),
(789,52,cs),
(757,52,o),
(729,27,o),
(723,-5,cs),
(718,-36,o),
(737,-60,o),
(769,-60,cs)
);
},
{
closed = 1;
nodes = (
(1244,0,l),
(1362,670,l),
(1494,670,l),
(1507,740,l),
(44,740,l),
(31,670,l),
(1279,670,l),
(1249,499,l),
(978,499,l),
(949,334,ls),
(935,257,o),
(883,204,o),
(813,204,cs),
(745,204,o),
(713,257,o),
(727,334,cs),
(756,499,l),
(409,499,l),
(380,334,ls),
(366,257,o),
(314,204,o),
(244,204,cs),
(176,204,o),
(144,257,o),
(158,334,cs),
(187,499,l),
(103,499,l),
(74,332,ls),
(53,214,o),
(107,131,o),
(230,131,cs),
(351,131,o),
(440,214,o),
(461,332,cs),
(477,427,l),
(659,427,l),
(643,332,ls),
(622,214,o),
(676,131,o),
(799,131,cs),
(920,131,o),
(1009,214,o),
(1030,332,cs),
(1046,427,l),
(1236,427,l),
(1161,0,l)
);
}
);
width = 1409;
}
);
note = dvJx_JxA;
},
{
glyphname = dvJx_YA;
lastChange = "2022-10-20 15:42:28 +0000";
layers = (
{
layerId = m01;
shapes = (
{
closed = 1;
nodes = (
(755,182,o),
(697,266,o),
(721,400,cs),
(721,401,o),
(721,403,o),
(721,405,c),
(845,411,o),
(930,469,o),
(951,587,cs),
(965,670,l),
(1166,670,l),
(1113,370,ls),
(1094,258,o),
(994,182,o),
(881,182,cs)
);
},
{
closed = 1;
nodes = (
(1132,0,l),
(1250,670,l),
(1381,670,l),
(1394,740,l),
(44,740,l),
(31,670,l),
(882,670,l),
(870,601,ls),
(852,499,o),
(780,464,o),
(667,464,cs),
(403,464,l),
(380,334,ls),
(366,257,o),
(314,204,o),
(244,204,cs),
(176,204,o),
(144,257,o),
(158,334,cs),
(181,464,l),
(97,464,l),
(74,332,ls),
(53,214,o),
(107,131,o),
(230,131,cs),
(351,131,o),
(440,214,o),
(461,332,cs),
(472,394,l),
(603,394,ls),
(617,394,o),
(628,394,o),
(638,394,c),
(614,222,o),
(690,112,o),
(853,112,cs),
(960,112,o),
(1039,159,o),
(1086,218,c),
(1048,0,l)
);
},
{
closed = 1;
nodes = (
(232,-60,o),
(261,-36,o),
(266,-5,cs),
(272,27,o),
(252,52,o),
(220,52,cs),
(188,52,o),
(160,27,o),
(154,-5,cs),
(149,-36,o),
(168,-60,o),
(200,-60,cs)
);
}
);
width = 1297;
}
);
note = dvJx_YA;
},
{
glyphname = dvEyelash_YA;
lastChange = "2022-10-20 15:42:28 +0000";
layers = (
{
layerId = m01;
shapes = (
{
closed = 1;
nodes = (
(383,182,o),
(324,261,o),
(346,386,cs),
(346,388,o),
(347,391,o),
(347,393,c),
(474,398,o),
(556,458,o),
(578,587,cs),
(593,670,l),
(794,670,l),
(741,370,ls),
(721,258,o),
(621,182,o),
(509,182,cs)
);
},
{
closed = 1;
nodes = (
(759,0,l),
(877,670,l),
(1009,670,l),
(1021,740,l),
(38,740,l),
(26,670,l),
(510,670,l),
(498,601,ls),
(477,482,o),
(405,442,o),
(293,441,cs),
(217,442,o),
(132,475,o),
(149,573,c),
(71,573,l),
(48,434,o),
(152,381,o),
(262,375,c),
(241,215,o),
(316,112,o),
(480,112,cs),
(588,112,o),
(668,159,o),
(714,219,c),
(676,0,l)
);
}
);
width = 929;
}
);
note = dvEyelash_YA;
},
{
glyphname = dvEyelash_HA;
lastChange = "2022-10-20 15:42:28 +0000";
layers = (
{
layerId = m01;
shapes = (
{
closed = 1;
nodes = (
(581,62,l),
(560,16,o),
(505,-34,o),
(422,-34,cs),
(326,-34,o),
(284,31,o),
(299,116,cs),
(314,199,o),
(379,267,o),
(475,267,cs),
(561,267,o),
(597,214,o),
(600,169,c),
(680,169,l),
(681,253,o),
(628,334,o),
(489,334,cs),
(469,334,o),
(449,332,o),
(432,329,c),
(393,341,o),
(368,369,o),
(375,411,cs),
(386,471,o),
(441,492,o),
(497,492,cs),
(680,492,l),
(711,670,l),
(852,670,l),
(864,740,l),
(47,740,l),
(35,670,l),
(632,670,l),
(611,553,l),
(480,553,ls),
(386,553,o),
(311,511,o),
(296,426,cs),
(291,399,o),
(294,376,o),
(303,357,c),
(291,355,o),
(277,353,o),
(261,353,cs),
(192,353,o),
(125,388,o),
(142,481,c),
(64,481,l),
(41,344,o),
(137,286,o),
(235,286,cs),
(288,286,o),
(323,298,o),
(349,310,c),
(351,308,o),
(355,307,o),
(359,305,c),
(284,269,o),
(232,201,o),
(218,117,cs),
(196,-7,o),
(261,-104,o),
(410,-104,cs),
(541,-104,o),
(631,-26,o),
(661,62,c)
);
}
);
width = 764;
}
);
note = dvEyelash_HA;
},
{
glyphname = dvmII.aLong;
lastChange = "2022-10-20 15:42:28 +0000";
layers = (
{
layerId = m01;
shapes = (
{
closed = 1;
nodes = (
(-493,720,l),
(-413,720,l),
(-408,749,ls),
(-391,844,o),
(-329,939,o),
(-94,939,cs),
(142,939,o),
(167,844,o),
(150,749,cs),
(149,740,l),
(15,740,l),
(2,670,l),
(134,670,l),
(16,0,l),
(100,0,l),
(218,670,l),
(349,670,l),
(362,740,l),
(231,740,l),
(233,754,ls),
(258,896,o),
(197,1009,o),
(-82,1009,cs),
(-356,1009,o),
(-462,896,o),
(-487,754,cs)
);
}
);
width = 294;
}
);
note = dvmII.aLong;
},
{
glyphname = dvmII_Anusvara;
lastChange = "2022-10-20 15:42:28 +0000";
layers = (
{
layerId = m01;
shapes = (
{
closed = 1;
nodes = (
(-150,720,l),
(-68,720,l),
(-57,782,ls),
(-45,852,o),
(-10,926,o),
(76,926,cs),
(161,926,o),
(169,852,o),
(157,782,cs),
(150,740,l),
(16,740,l),
(3,670,l),
(135,670,l),
(17,0,l),
(101,0,l),
(219,670,l),
(350,670,l),
(363,740,l),
(232,740,l),
(238,778,ls),
(260,900,o),
(231,996,o),
(89,996,cs),
(-50,996,o),
(-118,900,o),
(-140,778,cs)
);
},
{
closed = 1;
nodes = (
(398,829,o),
(428,854,o),
(433,885,cs),
(439,916,o),
(418,941,o),
(387,941,cs),
(355,941,o),
(326,916,o),
(320,885,cs),
(315,854,o),
(335,829,o),
(367,829,cs)
);
}
);
width = 294;
}
);
note = dvmII_Anusvara;
},
{
glyphname = dvmII_Reph;
lastChange = "2022-10-20 15:42:28 +0000";
layers = (
{
layerId = m01;
shapes = (
{
closed = 1;
nodes = (
(-150,720,l),
(-68,720,l),
(-57,782,ls),
(-45,852,o),
(-10,926,o),
(76,926,cs),
(161,926,o),
(169,852,o),
(157,782,cs),
(150,740,l),
(16,740,l),
(3,670,l),
(135,670,l),
(17,0,l),
(101,0,l),
(219,670,l),
(350,670,l),
(363,740,l),
(232,740,l),
(246,821,ls),
(256,877,o),
(286,915,o),
(336,915,cs),
(382,915,o),
(402,883,o),
(389,829,c),
(464,829,l),
(488,928,o),
(444,982,o),
(366,982,cs),
(303,982,o),
(261,949,o),
(237,905,c),
(220,961,o),
(175,996,o),
(89,996,cs),
(-50,996,o),
(-118,900,o),
(-140,778,cs)
);
}
);
width = 294;
}
);
note = dvmII_Reph;
},
{
glyphname = dvmII_Reph_Anusvara;
lastChange = "2022-10-20 15:42:28 +0000";
layers = (
{
layerId = m01;
shapes = (
{
closed = 1;
nodes = (
(-150,720,l),
(-68,720,l),
(-57,782,ls),
(-45,852,o),
(-10,926,o),
(76,926,cs),
(161,926,o),
(169,852,o),
(157,782,cs),
(150,740,l),
(16,740,l),
(3,670,l),
(135,670,l),
(17,0,l),
(101,0,l),
(219,670,l),
(350,670,l),
(363,740,l),
(232,740,l),
(245,817,ls),
(257,884,o),
(297,924,o),
(351,924,cs),
(403,924,o),
(428,889,o),
(418,840,c),
(486,840,l),
(509,929,o),
(466,990,o),
(379,990,cs),
(313,990,o),
(264,955,o),
(236,907,c),
(219,961,o),
(175,996,o),
(89,996,cs),
(-50,996,o),
(-118,900,o),
(-140,778,cs)
);
},
{
closed = 1;
nodes = (
(350,786,o),
(373,807,o),
(378,831,cs),
(382,856,o),
(366,876,o),
(341,876,cs),
(316,876,o),
(292,856,o),
(288,831,cs),
(283,807,o),
(300,786,o),
(325,786,cs)
);
}
);
width = 294;
}
);
note = dvmII_Reph_Anusvara;
},
{
glyphname = dvmII_Anusvara.aLong;
lastChange = "2022-10-20 15:42:28 +0000";
layers = (
{
layerId = m01;
shapes = (
{
closed = 1;
nodes = (
(-493,720,l),
(-413,720,l),
(-408,749,ls),
(-391,844,o),
(-329,939,o),
(-94,939,cs),
(142,939,o),
(167,844,o),
(150,749,cs),
(149,740,l),
(15,740,l),
(2,670,l),
(134,670,l),
(16,0,l),
(100,0,l),
(218,670,l),
(349,670,l),
(362,740,l),
(231,740,l),
(233,754,ls),
(258,896,o),
(197,1009,o),
(-82,1009,cs),
(-356,1009,o),
(-462,896,o),
(-487,754,cs)
);
},
{
closed = 1;
nodes = (
(397,829,o),
(427,854,o),
(432,885,cs),
(438,916,o),
(417,941,o),
(386,941,cs),
(354,941,o),
(325,916,o),
(319,885,cs),
(314,854,o),
(334,829,o),
(366,829,cs)
);
}
);
width = 294;
}
);
note = dvmII_Anusvara.aLong;
},
{
glyphname = dvmII_Reph.aLong;
lastChange = "2022-10-20 15:42:28 +0000";
layers = (
{
layerId = m01;
shapes = (
{
closed = 1;
nodes = (
(-493,720,l),
(-413,720,l),
(-408,749,ls),
(-391,844,o),
(-329,939,o),
(-94,939,cs),
(142,939,o),
(167,844,o),
(150,749,cs),
(149,740,l),
(15,740,l),
(2,670,l),
(134,670,l),
(16,0,l),
(100,0,l),
(218,670,l),
(349,670,l),
(362,740,l),
(231,740,l),
(245,821,ls),
(255,877,o),
(284,915,o),
(334,915,cs),
(380,915,o),
(401,883,o),
(388,829,c),
(463,829,l),
(487,928,o),
(443,982,o),
(365,982,cs),
(291,982,o),
(245,937,o),
(225,882,c),
(194,958,o),
(105,1009,o),
(-82,1009,cs),
(-356,1009,o),
(-462,896,o),
(-487,754,cs)
);
}
);
width = 294;
}
);
note = dvmII_Reph.aLong;
},
{
glyphname = dvmII_Reph_Anusvara.aLong;
lastChange = "2022-10-20 15:42:28 +0000";
layers = (
{
layerId = m01;
shapes = (
{
closed = 1;
nodes = (
(-493,720,l),
(-413,720,l),
(-408,749,ls),
(-391,844,o),
(-329,939,o),
(-94,939,cs),
(142,939,o),
(167,844,o),
(150,749,cs),
(149,740,l),
(15,740,l),
(2,670,l),
(134,670,l),
(16,0,l),
(100,0,l),
(218,670,l),
(349,670,l),
(362,740,l),
(231,740,l),
(244,817,ls),
(256,884,o),
(296,924,o),
(350,924,cs),
(402,924,o),
(427,889,o),
(417,840,c),
(485,840,l),
(508,929,o),
(465,990,o),
(378,990,cs),
(301,990,o),
(247,944,o),
(224,884,c),
(193,959,o),
(104,1009,o),
(-82,1009,cs),
(-356,1009,o),
(-462,896,o),
(-487,754,cs)
);
},
{
closed = 1;
nodes = (
(349,786,o),
(372,807,o),
(377,831,cs),
(381,856,o),
(365,876,o),
(340,876,cs),
(315,876,o),
(291,856,o),
(287,831,cs),
(282,807,o),
(299,786,o),
(324,786,cs)
);
}
);
width = 294;
}
);
note = dvmII_Reph_Anusvara.aLong;
},
{
glyphname = dvmE_Anusvara;
lastChange = "2022-10-20 15:42:28 +0000";
layers = (
{
layerId = m01;
shapes = (
{
closed = 1;
nodes = (
(-128,736,l),
(-220,963,o),
(-267,981,o),
(-399,981,cs),
(-440,981,l),
(-452,913,l),
(-410,913,ls),
(-312,913,o),
(-281,899,o),
(-207,736,c)
);
},
{
closed = 1;
nodes = (
(-8,830,o),
(21,855,o),
(27,886,cs),
(32,917,o),
(12,942,o),
(-19,942,cs),
(-51,942,o),
(-81,917,o),
(-86,886,cs),
(-92,855,o),
(-71,830,o),
(-39,830,cs)
);
}
);
width = 0;
}
);
note = dvmE_Anusvara;
},
{
glyphname = dvmE_Reph;
lastChange = "2022-10-20 15:42:28 +0000";
layers = (
{
layerId = m01;
shapes = (
{
closed = 1;
nodes = (
(-128,736,l),
(-136,760,o),
(-139,789,o),
(-135,815,cs),
(-123,880,o),
(-84,915,o),
(-32,915,cs),
(14,915,o),
(39,881,o),
(28,833,c),
(100,833,l),
(121,919,o),
(79,980,o),
(-5,980,cs),
(-103,980,o),
(-153,907,o),
(-166,835,cs),
(-167,832,o),
(-167,829,o),
(-168,827,c),
(-237,968,o),
(-287,981,o),
(-399,981,cs),
(-440,981,l),
(-452,913,l),
(-410,913,ls),
(-312,913,o),
(-281,899,o),
(-207,736,c)
);
}
);
width = 0;
}
);
note = dvmE_Reph;
},
{
glyphname = dvmE_Reph_Anusvara;
lastChange = "2022-10-20 15:42:28 +0000";
layers = (
{
layerId = m01;
shapes = (
{
closed = 1;
nodes = (
(-128,736,l),
(-137,762,o),
(-141,790,o),
(-136,821,cs),
(-124,890,o),
(-75,930,o),
(-13,930,cs),
(47,930,o),
(73,889,o),
(66,837,c),
(125,837,l),
(143,927,o),
(96,985,o),
(6,985,cs),
(-100,985,o),
(-158,910,o),
(-171,835,cs),
(-172,834,l),
(-239,969,o),
(-290,981,o),
(-400,981,cs),
(-441,981,l),
(-453,913,l),
(-411,913,ls),
(-313,913,o),
(-281,899,o),
(-207,736,c)
);
},
{
closed = 1;
nodes = (
(-19,788,o),
(5,809,o),
(9,833,cs),
(14,858,o),
(-3,878,o),
(-28,878,cs),
(-53,878,o),
(-76,858,o),
(-81,833,cs),
(-85,809,o),
(-69,788,o),
(-44,788,cs)
);
}
);
width = 0;
}
);
note = dvmE_Reph_Anusvara;
},
{
glyphname = dvmAI_Anusvara;
lastChange = "2022-10-20 15:42:28 +0000";
layers = (
{
layerId = m01;
shapes = (
{
closed = 1;
nodes = (
(-133,737,l),
(-230,1029,o),
(-267,1041,o),
(-398,1041,cs),
(-441,1041,l),
(-451,986,l),
(-407,986,ls),
(-320,986,o),
(-276,980,o),
(-212,807,c),
(-294,887,o),
(-327,889,o),
(-427,889,cs),
(-468,889,l),
(-478,835,l),
(-435,835,ls),
(-328,835,o),
(-306,830,o),
(-205,737,c)
);
},
{
closed = 1;
nodes = (
(-9,829,o),
(21,854,o),
(26,885,cs),
(32,916,o),
(11,941,o),
(-20,941,cs),
(-52,941,o),
(-81,916,o),
(-87,885,cs),
(-92,854,o),
(-72,829,o),
(-40,829,cs)
);
}
);
width = 0;
}
);
note = dvmAI_Anusvara;
},
{
glyphname = dvmAI_Reph;
lastChange = "2022-10-20 15:42:28 +0000";
layers = (
{
layerId = m01;
shapes = (
{
closed = 1;
nodes = (
(-133,737,l),
(-134,742,o),
(-136,747,o),
(-137,751,cs),
(-143,772,o),
(-144,794,o),
(-140,815,cs),
(-129,880,o),
(-89,915,o),
(-37,915,cs),
(9,915,o),
(34,881,o),
(22,833,c),
(87,833,l),
(107,919,o),
(69,980,o),
(-12,980,cs),
(-105,980,o),
(-155,912,o),
(-170,842,c),
(-242,1032,o),
(-285,1041,o),
(-398,1041,cs),
(-441,1041,l),
(-451,986,l),
(-407,986,ls),
(-320,986,o),
(-276,980,o),
(-212,807,c),
(-294,887,o),
(-327,889,o),
(-427,889,cs),
(-468,889,l),
(-478,835,l),
(-435,835,ls),
(-328,835,o),
(-306,830,o),
(-205,737,c)
);
}
);
width = 0;
}
);
note = dvmAI_Reph;
},
{
glyphname = dvmAI_Reph_Anusvara;
lastChange = "2022-10-20 15:42:28 +0000";
layers = (
{
layerId = m01;
shapes = (
{
closed = 1;
nodes = (
(-133,737,l),
(-134,740,o),
(-135,744,o),
(-136,747,cs),
(-143,770,o),
(-146,793,o),
(-141,819,cs),
(-129,890,o),
(-81,930,o),
(-18,930,cs),
(42,930,o),
(68,889,o),
(61,837,c),
(120,837,l),
(137,924,o),
(93,985,o),
(1,985,cs),
(-97,985,o),
(-156,919,o),
(-172,848,c),
(-243,1032,o),
(-286,1041,o),
(-398,1041,cs),
(-441,1041,l),
(-451,986,l),
(-407,986,ls),
(-320,986,o),
(-276,980,o),
(-212,807,c),
(-294,887,o),
(-327,889,o),
(-427,889,cs),
(-468,889,l),
(-478,835,l),
(-435,835,ls),
(-328,835,o),
(-306,830,o),
(-205,737,c)
);
},
{
closed = 1;
nodes = (
(-26,788,o),
(-2,809,o),
(2,833,cs),
(7,858,o),
(-10,878,o),
(-35,878,cs),
(-60,878,o),
(-83,858,o),
(-88,833,cs),
(-92,809,o),
(-76,788,o),
(-51,788,cs)
);
}
);
width = 0;
}
);
note = dvmAI_Reph_Anusvara;
},
{
glyphname = dvmO_Anusvara;
lastChange = "2022-10-20 15:42:28 +0000";
layers = (
{
layerId = m01;
shapes = (
{
closed = 1;
nodes = (
(103,0,l),
(221,670,l),
(352,670,l),
(364,740,l),
(230,740,l),
(139,963,o),
(91,981,o),
(-41,981,cs),
(-82,981,l),
(-94,913,l),
(-52,913,ls),
(45,913,o),
(77,899,o),
(150,740,c),
(17,740,l),
(5,670,l),
(137,670,l),
(19,0,l)
);
},
{
closed = 1;
nodes = (
(351,830,o),
(380,855,o),
(386,886,cs),
(391,917,o),
(371,942,o),
(340,942,cs),
(308,942,o),
(278,917,o),
(273,886,cs),
(267,855,o),
(288,830,o),
(320,830,cs)
);
}
);
width = 294;
}
);
note = dvmO_Anusvara;
},
{
glyphname = dvmO_Reph;
lastChange = "2022-10-20 15:42:28 +0000";
layers = (
{
layerId = m01;
shapes = (
{
closed = 1;
nodes = (
(103,0,l),
(221,670,l),
(352,670,l),
(364,740,l),
(230,740,l),
(223,760,o),
(220,789,o),
(224,815,cs),
(236,880,o),
(275,915,o),
(327,915,cs),
(373,915,o),
(398,881,o),
(386,833,c),
(458,833,l),
(480,919,o),
(438,980,o),
(354,980,cs),
(256,980,o),
(205,907,o),
(193,835,cs),
(192,832,o),
(192,829,o),
(191,827,c),
(122,968,o),
(71,981,o),
(-41,981,cs),
(-82,981,l),
(-94,913,l),
(-52,913,ls),
(45,913,o),
(77,899,o),
(150,740,c),
(17,740,l),
(5,670,l),
(137,670,l),
(19,0,l)
);
}
);
width = 294;
}
);
note = dvmO_Reph;
},
{
glyphname = dvmO_Reph_Anusvara;
lastChange = "2022-10-20 15:42:28 +0000";
layers = (
{
layerId = m01;
shapes = (
{
closed = 1;
nodes = (
(102,0,l),
(220,670,l),
(351,670,l),
(364,740,l),
(230,740,l),
(222,762,o),
(217,790,o),
(223,821,cs),
(235,890,o),
(284,930,o),
(346,930,cs),
(406,930,o),
(432,889,o),
(425,837,c),
(484,837,l),
(502,927,o),
(455,985,o),
(365,985,cs),
(259,985,o),
(201,910,o),
(187,835,cs),
(187,834,l),
(120,969,o),
(69,981,o),
(-41,981,cs),
(-82,981,l),
(-94,913,l),
(-52,913,ls),
(45,913,o),
(77,899,o),
(150,740,c),
(17,740,l),
(4,670,l),
(136,670,l),
(18,0,l)
);
},
{
closed = 1;
nodes = (
(340,788,o),
(364,809,o),
(368,833,cs),
(372,858,o),
(356,878,o),
(331,878,cs),
(306,878,o),
(282,858,o),
(278,833,cs),
(274,809,o),
(290,788,o),
(315,788,cs)
);
}
);
width = 294;
}
);
note = dvmO_Reph_Anusvara;
},
{
glyphname = dvmAU_Anusvara;
lastChange = "2022-10-20 15:42:28 +0000";
layers = (
{
layerId = m01;
shapes = (
{
closed = 1;
nodes = (
(97,0,l),
(215,670,l),
(346,670,l),
(359,740,l),
(222,740,l),
(126,1029,o),
(89,1041,o),
(-42,1041,cs),
(-85,1041,l),
(-95,986,l),
(-51,986,ls),
(36,986,o),
(80,980,o),
(144,807,c),
(62,887,o),
(29,889,o),
(-71,889,cs),
(-112,889,l),
(-122,835,l),
(-79,835,ls),
(27,835,o),
(50,830,o),
(148,740,c),
(12,740,l),
(-1,670,l),
(131,670,l),
(13,0,l)
);
},
{
closed = 1;
nodes = (
(347,829,o),
(377,854,o),
(382,885,cs),
(388,916,o),
(367,941,o),
(336,941,cs),
(304,941,o),
(275,916,o),
(269,885,cs),
(264,854,o),
(284,829,o),
(316,829,cs)
);
}
);
width = 294;
}
);
note = dvmAU_Anusvara;
},
{
glyphname = dvmAU_Reph;
lastChange = "2022-10-20 15:42:28 +0000";
layers = (
{
layerId = m01;
shapes = (
{
closed = 1;
nodes = (
(97,0,l),
(215,670,l),
(346,670,l),
(359,740,l),
(222,740,l),
(222,742,o),
(220,747,o),
(219,751,cs),
(213,772,o),
(212,794,o),
(216,815,cs),
(227,880,o),
(267,915,o),
(319,915,cs),
(365,915,o),
(390,881,o),
(378,833,c),
(443,833,l),
(463,919,o),
(425,980,o),
(344,980,cs),
(251,980,o),
(201,912,o),
(186,842,c),
(114,1032,o),
(71,1041,o),
(-42,1041,cs),
(-85,1041,l),
(-95,986,l),
(-51,986,ls),
(36,986,o),
(80,980,o),
(144,807,c),
(62,887,o),
(29,889,o),
(-71,889,cs),
(-112,889,l),
(-122,835,l),
(-79,835,ls),
(27,835,o),
(50,830,o),
(148,740,c),
(12,740,l),
(-1,670,l),
(131,670,l),
(13,0,l)
);
}
);
width = 294;
}
);
note = dvmAU_Reph;
},
{
glyphname = dvmAU_Reph_Anusvara;
lastChange = "2022-10-20 15:42:28 +0000";
layers = (
{
layerId = m01;
shapes = (
{
closed = 1;
nodes = (
(97,0,l),
(215,670,l),
(346,670,l),
(359,740,l),
(222,740,l),
(222,740,o),
(221,744,o),
(220,747,cs),
(213,770,o),
(210,793,o),
(215,819,cs),
(227,890,o),
(275,930,o),
(338,930,cs),
(398,930,o),
(424,889,o),
(417,837,c),
(476,837,l),
(493,924,o),
(449,985,o),
(357,985,cs),
(259,985,o),
(200,919,o),
(184,848,c),
(113,1032,o),
(70,1041,o),
(-42,1041,cs),
(-85,1041,l),
(-95,986,l),
(-51,986,ls),
(36,986,o),
(80,980,o),
(144,807,c),
(62,887,o),
(29,889,o),
(-71,889,cs),
(-112,889,l),
(-122,835,l),
(-79,835,ls),
(27,835,o),
(50,830,o),
(148,740,c),
(12,740,l),
(-1,670,l),
(131,670,l),
(13,0,l)
);
},
{
closed = 1;
nodes = (
(330,788,o),
(354,809,o),
(358,833,cs),
(363,858,o),
(346,878,o),
(321,878,cs),
(296,878,o),
(273,858,o),
(268,833,cs),
(264,809,o),
(280,788,o),
(305,788,cs)
);
}
);
width = 294;
}
);
note = dvmAU_Reph_Anusvara;
},
{
glyphname = dvmEcandra_Anusvara;
lastChange = "2022-10-20 15:42:28 +0000";
layers = (
{
layerId = m01;
shapes = (
{
closed = 1;
nodes = (
(-32,818,o),
(50,899,o),
(66,994,c),
(-2,994,l),
(-12,938,o),
(-65,879,o),
(-157,879,cs),
(-249,879,o),
(-282,938,o),
(-272,994,c),
(-341,994,l),
(-357,899,o),
(-305,818,o),
(-168,818,cs)
);
},
{
closed = 1;
nodes = (
(-115,982,o),
(-94,1000,o),
(-90,1023,cs),
(-86,1046,o),
(-100,1065,o),
(-124,1065,cs),
(-147,1065,o),
(-169,1046,o),
(-173,1023,cs),
(-177,1000,o),
(-162,982,o),
(-139,982,cs)
);
}
);
width = 0;
}
);
note = dvmEcandra_Anusvara;
},
{
glyphname = dvmOcandra_Anusvara;
lastChange = "2022-10-20 15:42:28 +0000";
layers = (
{
layerId = m01;
shapes = (
{
closed = 1;
nodes = (
(11,0,l),
(95,0,l),
(213,670,l),
(344,670,l),
(357,740,l),
(10,740,l),
(-3,670,l),
(129,670,l)
);
},
{
closed = 1;
nodes = (
(333,818,o),
(415,899,o),
(431,994,c),
(363,994,l),
(354,938,o),
(300,879,o),
(208,879,cs),
(116,879,o),
(84,938,o),
(93,994,c),
(24,994,l),
(8,899,o),
(60,818,o),
(197,818,cs)
);
},
{
closed = 1;
nodes = (
(250,982,o),
(271,1000,o),
(275,1023,cs),
(280,1046,o),
(265,1065,o),
(241,1065,cs),
(218,1065,o),
(197,1046,o),
(192,1023,cs),
(188,1000,o),
(203,982,o),
(226,982,cs)
);
}
);
width = 294;
}
);
note = dvmOcandra_Anusvara;
},
{
glyphname = dvRA_mU;
lastChange = "2022-10-20 15:42:28 +0000";
layers = (
{
layerId = m01;
shapes = (
{
closed = 1;
nodes = (
(162,348,l),
(163,352,l),
(170,352,l)
);
},
{
closed = 1;
nodes = (
(27,670,l),
(413,670,l),
(397,581,ls),
(377,470,o),
(311,414,o),
(197,414,cs),
(92,414,l),
(55,207,ls),
(33,82,o),
(82,-9,o),
(215,-9,cs),
(335,-9,o),
(421,70,o),
(443,193,cs),
(445,207,l),
(365,207,l),
(362,191,ls),
(349,115,o),
(297,63,o),
(226,63,cs),
(148,63,o),
(122,121,o),
(136,202,cs),
(161,345,l),
(581,345,ls),
(655,345,o),
(696,307,o),
(684,240,cs),
(672,174,o),
(623,138,o),
(556,138,cs),
(540,138,o),
(521,140,o),
(506,145,c),
(494,76,l),
(510,73,o),
(531,70,o),
(551,70,cs),
(660,70,o),
(741,134,o),
(759,236,cs),
(779,349,o),
(720,414,o),
(588,414,cs),
(392,414,l),
(438,454,o),
(468,511,o),
(480,581,cs),
(496,670,l),
(930,670,l),
(942,740,l),
(39,740,l)
);
}
);
width = 829;
}
);
note = dvRA_mU;
},
{
glyphname = dvRA_mUU;
lastChange = "2022-10-20 15:42:28 +0000";
layers = (
{
layerId = m01;
shapes = (
{
closed = 1;
nodes = (
(162,348,l),
(163,352,l),
(170,352,l)
);
},
{
closed = 1;
nodes = (
(27,670,l),
(413,670,l),
(397,581,ls),
(377,470,o),
(311,414,o),
(197,414,cs),
(92,414,l),
(55,207,ls),
(33,82,o),
(82,-9,o),
(215,-9,cs),
(335,-9,o),
(421,70,o),
(443,193,cs),
(445,207,l),
(365,207,l),
(362,191,ls),
(349,115,o),
(297,63,o),
(226,63,cs),
(148,63,o),
(122,121,o),
(136,202,cs),
(161,345,l),
(468,345,ls),
(560,345,o),
(603,299,o),
(588,215,cs),
(571,118,l),
(649,118,l),
(667,216,ls),
(689,341,o),
(629,414,o),
(489,414,cs),
(392,414,l),
(438,454,o),
(468,511,o),
(480,581,cs),
(496,670,l),
(834,670,l),
(846,740,l),
(39,740,l)
);
}
);
width = 753;
}
);
note = dvRA_mUU;
},
{
glyphname = dvmI.a01;
lastChange = "2022-10-20 15:42:28 +0000";
layers = (
{
layerId = m01;
shapes = (
{
closed = 1;
nodes = (
(219,670,l),
(350,670,l),
(363,740,l),
(231,740,l),
(257,892,o),
(393,927,o),
(498,927,cs),
(601,927,o),
(723,881,o),
(697,736,cs),
(694,720,l),
(776,720,l),
(779,737,ls),
(810,914,o),
(676,996,o),
(510,996,cs),
(344,996,o),
(183,925,o),
(148,740,c),
(16,740,l),
(3,670,l),
(135,670,l),
(17,0,l),
(101,0,l)
);
}
);
width = 294;
}
);
note = dvmI.a01;
},
{
glyphname = dvmI.a02;
lastChange = "2022-10-20 15:42:28 +0000";
layers = (
{
layerId = m01;
shapes = (
{
closed = 1;
nodes = (
(219,670,l),
(350,670,l),
(363,740,l),
(231,740,l),
(257,889,o),
(391,928,o),
(523,928,cs),
(654,928,o),
(776,879,o),
(751,735,cs),
(748,719,l),
(829,719,l),
(832,737,ls),
(863,913,o),
(728,997,o),
(535,997,cs),
(343,997,o),
(183,925,o),
(148,740,c),
(16,740,l),
(3,670,l),
(135,670,l),
(17,0,l),
(101,0,l)
);
}
);
width = 294;
}
);
note = dvmI.a02;
},
{
glyphname = dvmI.a03;
lastChange = "2022-10-20 15:42:28 +0000";
layers = (
{
layerId = m01;
shapes = (
{
closed = 1;
nodes = (
(219,670,l),
(350,670,l),
(362,740,l),
(230,740,l),
(257,889,o),
(390,929,o),
(549,929,cs),
(708,929,o),
(830,879,o),
(804,733,cs),
(802,719,l),
(884,719,l),
(887,735,ls),
(918,912,o),
(782,998,o),
(561,998,cs),
(342,998,o),
(183,925,o),
(147,740,c),
(15,740,l),
(3,670,l),
(135,670,l),
(17,0,l),
(101,0,l)
);
}
);
width = 294;
}
);
note = dvmI.a03;
},
{
glyphname = dvmI.a04;
lastChange = "2022-10-20 15:42:28 +0000";
layers = (
{
layerId = m01;
shapes = (
{
closed = 1;
nodes = (
(219,670,l),
(350,670,l),
(362,740,l),
(230,740,l),
(256,887,o),
(388,930,o),
(574,930,cs),
(761,930,o),
(882,876,o),
(857,732,cs),
(855,718,l),
(937,718,l),
(940,735,ls),
(970,910,o),
(836,999,o),
(587,999,cs),
(341,999,o),
(184,924,o),
(147,740,c),
(15,740,l),
(3,670,l),
(135,670,l),
(17,0,l),
(101,0,l)
);
}
);
width = 294;
}
);
note = dvmI.a04;
},
{
glyphname = dvmI.a05;
lastChange = "2022-10-20 15:42:28 +0000";
layers = (
{
layerId = m01;
shapes = (
{
closed = 1;
nodes = (
(219,670,l),
(350,670,l),
(362,740,l),
(230,740,l),
(256,886,o),
(386,931,o),
(599,931,cs),
(814,931,o),
(936,875,o),
(911,732,cs),
(908,717,l),
(990,717,l),
(993,734,ls),
(1024,910,o),
(889,1000,o),
(612,1000,cs),
(340,1000,o),
(184,923,o),
(147,740,c),
(15,740,l),
(3,670,l),
(135,670,l),
(17,0,l),
(101,0,l)
);
}
);
width = 294;
}
);
note = dvmI.a05;
},
{
glyphname = dvmI.a06;
lastChange = "2022-10-20 15:42:28 +0000";
layers = (
{
layerId = m01;
shapes = (
{
closed = 1;
nodes = (
(219,670,l),
(350,670,l),
(362,740,l),
(230,740,l),
(259,886,o),
(388,932,o),
(625,932,cs),
(867,932,o),
(989,874,o),
(964,731,cs),
(961,716,l),
(1043,716,l),
(1046,732,ls),
(1077,909,o),
(943,1001,o),
(639,1001,cs),
(340,1001,o),
(183,923,o),
(147,740,c),
(15,740,l),
(3,670,l),
(135,670,l),
(17,0,l),
(101,0,l)
);
}
);
width = 294;
}
);
note = dvmI.a06;
},
{
glyphname = dvmI.a07;
lastChange = "2022-10-20 15:42:28 +0000";
layers = (
{
layerId = m01;
shapes = (
{
closed = 1;
nodes = (
(219,670,l),
(350,670,l),
(362,740,l),
(230,740,l),
(259,884,o),
(387,932,o),
(651,932,cs),
(921,932,o),
(1044,873,o),
(1018,730,cs),
(1016,717,l),
(1098,716,l),
(1101,731,ls),
(1132,907,o),
(996,1001,o),
(665,1001,cs),
(340,1001,o),
(183,922,o),
(147,740,c),
(15,740,l),
(3,670,l),
(135,670,l),
(17,0,l),
(101,0,l)
);
}
);
width = 294;
}
);
note = dvmI.a07;
},
{
glyphname = dvmI.a08;
lastChange = "2022-10-20 15:42:28 +0000";
layers = (
{
layerId = m01;
shapes = (
{
closed = 1;
nodes = (
(219,670,l),
(350,670,l),
(362,740,l),
(230,740,l),
(258,883,o),
(386,933,o),
(676,933,cs),
(974,933,o),
(1097,871,o),
(1072,729,cs),
(1070,717,l),
(1151,716,l),
(1154,731,ls),
(1184,906,o),
(1050,1002,o),
(691,1002,cs),
(338,1002,o),
(183,922,o),
(147,740,c),
(15,740,l),
(3,670,l),
(135,670,l),
(17,0,l),
(101,0,l)
);
}
);
width = 294;
}
);
note = dvmI.a08;
},
{
glyphname = dvmI.a09;
lastChange = "2022-10-20 15:42:28 +0000";
layers = (
{
layerId = m01;
shapes = (
{
closed = 1;
nodes = (
(219,670,l),
(350,670,l),
(362,740,l),
(230,740,l),
(259,882,o),
(385,934,o),
(701,934,cs),
(1027,934,o),
(1150,869,o),
(1125,727,cs),
(1123,716,l),
(1205,715,l),
(1207,730,ls),
(1238,905,o),
(1103,1003,o),
(715,1003,cs),
(338,1003,o),
(184,922,o),
(147,740,c),
(15,740,l),
(3,670,l),
(135,670,l),
(17,0,l),
(101,0,l)
);
}
);
width = 294;
}
);
note = dvmI.a09;
},
{
glyphname = dvmI.a10;
lastChange = "2022-10-20 15:42:28 +0000";
layers = (
{
layerId = m01;
shapes = (
{
closed = 1;
nodes = (
(219,670,l),
(350,670,l),
(362,740,l),
(230,740,l),
(259,882,o),
(385,935,o),
(727,935,cs),
(1080,935,o),
(1204,868,o),
(1179,727,cs),
(1177,715,l),
(1258,714,l),
(1261,729,ls),
(1292,904,o),
(1158,1004,o),
(742,1004,cs),
(338,1004,o),
(184,921,o),
(147,740,c),
(15,740,l),
(3,670,l),
(135,670,l),
(16,0,l),
(100,0,l)
);
}
);
width = 294;
}
);
note = dvmI.a10;
},
{
glyphname = dvmI.a11;
lastChange = "2022-10-20 15:42:28 +0000";
layers = (
{
layerId = m01;
shapes = (
{
closed = 1;
nodes = (
(219,670,l),
(350,670,l),
(362,740,l),
(230,740,l),
(259,880,o),
(383,936,o),
(752,936,cs),
(1133,936,o),
(1258,866,o),
(1233,726,cs),
(1231,714,l),
(1312,713,l),
(1315,728,ls),
(1346,903,o),
(1212,1005,o),
(768,1005,cs),
(337,1005,o),
(184,920,o),
(147,740,c),
(15,740,l),
(3,670,l),
(135,670,l),
(16,0,l),
(100,0,l)
);
}
);
width = 294;
}
);
note = dvmI.a11;
},
{
glyphname = dvmI.a12;
lastChange = "2022-10-20 15:42:28 +0000";
layers = (
{
layerId = m01;
shapes = (
{
closed = 1;
nodes = (
(218,670,l),
(349,670,l),
(362,740,l),
(230,740,l),
(258,878,o),
(385,937,o),
(779,937,cs),
(1187,937,o),
(1312,865,o),
(1287,725,cs),
(1285,714,l),
(1366,713,l),
(1368,726,ls),
(1399,901,o),
(1265,1006,o),
(794,1006,cs),
(337,1006,o),
(184,920,o),
(147,740,c),
(15,740,l),
(2,670,l),
(134,670,l),
(16,0,l),
(100,0,l)
);
}
);
width = 294;
}
);
note = dvmI.a12;
},
{
glyphname = dvmI.a13;
lastChange = "2022-10-20 15:42:28 +0000";
layers = (
{
layerId = m01;
shapes = (
{
closed = 1;
nodes = (
(218,670,l),
(349,670,l),
(362,740,l),
(230,740,l),
(258,877,o),
(382,938,o),
(804,938,cs),
(1240,938,o),
(1364,864,o),
(1339,724,cs),
(1337,713,l),
(1420,713,l),
(1422,726,ls),
(1453,901,o),
(1318,1007,o),
(819,1007,cs),
(337,1007,o),
(183,919,o),
(147,740,c),
(15,740,l),
(2,670,l),
(134,670,l),
(16,0,l),
(100,0,l)
);
}
);
width = 294;
}
);
note = dvmI.a13;
},
{
glyphname = dvmI.a14;
lastChange = "2022-10-20 15:42:28 +0000";
layers = (
{
layerId = m01;
shapes = (
{
closed = 1;
nodes = (
(218,670,l),
(349,670,l),
(362,740,l),
(230,740,l),
(259,876,o),
(384,939,o),
(829,939,cs),
(1293,939,o),
(1417,862,o),
(1392,722,cs),
(1391,713,l),
(1474,712,l),
(1476,724,ls),
(1507,900,o),
(1371,1008,o),
(846,1008,cs),
(336,1008,o),
(183,920,o),
(147,740,c),
(15,740,l),
(2,670,l),
(134,670,l),
(16,0,l),
(100,0,l)
);
}
);
width = 294;
}
);
note = dvmI.a14;
},
{
glyphname = dvmI.a15;
lastChange = "2022-10-20 15:42:28 +0000";
layers = (
{
layerId = m01;
shapes = (
{
closed = 1;
nodes = (
(218,670,l),
(349,670,l),
(362,740,l),
(230,740,l),
(259,876,o),
(381,940,o),
(856,940,cs),
(1347,940,o),
(1472,861,o),
(1447,722,cs),
(1446,712,l),
(1527,711,l),
(1530,724,ls),
(1560,898,o),
(1426,1009,o),
(872,1009,cs),
(336,1009,o),
(183,919,o),
(147,740,c),
(15,740,l),
(2,670,l),
(134,670,l),
(16,0,l),
(100,0,l)
);
}
);
width = 294;
}
);
note = dvmI.a15;
},
{
glyphname = dvmI.a16;
lastChange = "2022-10-20 15:42:28 +0000";
layers = (
{
layerId = m01;
shapes = (
{
closed = 1;
nodes = (
(218,670,l),
(349,670,l),
(361,740,l),
(229,740,l),
(258,874,o),
(383,941,o),
(881,941,cs),
(1400,941,o),
(1525,860,o),
(1500,722,cs),
(1498,711,l),
(1581,711,l),
(1583,723,ls),
(1614,897,o),
(1479,1010,o),
(897,1010,cs),
(336,1010,o),
(183,918,o),
(146,740,c),
(14,740,l),
(2,670,l),
(134,670,l),
(16,0,l),
(100,0,l)
);
}
);
width = 294;
}
);
note = dvmI.a16;
},
{
glyphname = dvmI.a17;
lastChange = "2022-10-20 15:42:28 +0000";
layers = (
{
layerId = m01;
shapes = (
{
closed = 1;
nodes = (
(218,670,l),
(349,670,l),
(361,740,l),
(229,740,l),
(258,873,o),
(381,942,o),
(906,942,cs),
(1453,942,o),
(1578,858,o),
(1554,720,cs),
(1552,711,l),
(1634,710,l),
(1636,721,ls),
(1667,897,o),
(1532,1011,o),
(923,1011,cs),
(335,1011,o),
(184,918,o),
(146,740,c),
(14,740,l),
(2,670,l),
(134,670,l),
(16,0,l),
(100,0,l)
);
}
);
width = 294;
}
);
note = dvmI.a17;
},
{
glyphname = dvmI.a18;
lastChange = "2022-10-20 15:42:28 +0000";
layers = (
{
layerId = m01;
shapes = (
{
closed = 1;
nodes = (
(218,670,l),
(349,670,l),
(361,740,l),
(229,740,l),
(259,873,o),
(382,943,o),
(932,943,cs),
(1506,943,o),
(1632,856,o),
(1608,719,cs),
(1606,711,l),
(1688,710,l),
(1690,721,ls),
(1721,895,o),
(1586,1012,o),
(948,1012,cs),
(335,1012,o),
(183,917,o),
(146,740,c),
(14,740,l),
(2,670,l),
(134,670,l),
(16,0,l),
(100,0,l)
);
}
);
width = 294;
}
);
note = dvmI.a18;
},
{
glyphname = dvmI.a19;
lastChange = "2022-10-20 15:42:28 +0000";
layers = (
{
layerId = m01;
shapes = (
{
closed = 1;
nodes = (
(218,670,l),
(349,670,l),
(361,740,l),
(229,740,l),
(258,871,o),
(381,944,o),
(957,944,cs),
(1559,944,o),
(1685,855,o),
(1661,718,cs),
(1660,710,l),
(1743,709,l),
(1745,721,ls),
(1775,894,o),
(1640,1013,o),
(974,1013,cs),
(334,1013,o),
(183,916,o),
(146,740,c),
(14,740,l),
(2,670,l),
(134,670,l),
(16,0,l),
(100,0,l)
);
}
);
width = 294;
}
);
note = dvmI.a19;
},
{
glyphname = dvmI.a20;
lastChange = "2022-10-20 15:42:28 +0000";
layers = (
{
layerId = m01;
shapes = (
{
closed = 1;
nodes = (
(218,670,l),
(349,670,l),
(361,740,l),
(229,740,l),
(258,870,o),
(382,945,o),
(982,945,cs),
(1613,945,o),
(1738,854,o),
(1714,717,cs),
(1713,710,l),
(1796,709,l),
(1797,719,ls),
(1828,893,o),
(1694,1014,o),
(1000,1014,cs),
(334,1014,o),
(183,916,o),
(146,740,c),
(14,740,l),
(2,670,l),
(134,670,l),
(16,0,l),
(100,0,l)
);
}
);
width = 294;
}
);
note = dvmI.a20;
},
{
glyphname = dvmI.a21;
lastChange = "2022-10-20 15:42:28 +0000";
layers = (
{
layerId = m01;
shapes = (
{
closed = 1;
nodes = (
(218,670,l),
(349,670,l),
(361,740,l),
(229,740,l),
(258,869,o),
(381,945,o),
(1008,945,cs),
(1665,945,o),
(1792,853,o),
(1768,716,cs),
(1767,709,l),
(1849,708,l),
(1851,718,ls),
(1882,892,o),
(1746,1014,o),
(1026,1014,cs),
(334,1014,o),
(183,915,o),
(146,740,c),
(14,740,l),
(2,670,l),
(134,670,l),
(16,0,l),
(100,0,l)
);
}
);
width = 294;
}
);
note = dvmI.a21;
},
{
glyphname = dvmI.a22;
lastChange = "2022-10-20 15:42:28 +0000";
layers = (
{
layerId = m01;
shapes = (
{
closed = 1;
nodes = (
(218,670,l),
(349,670,l),
(361,740,l),
(229,740,l),
(258,868,o),
(380,946,o),
(1033,946,cs),
(1718,946,o),
(1846,851,o),
(1822,715,cs),
(1821,709,l),
(1902,707,l),
(1904,717,ls),
(1934,890,o),
(1800,1015,o),
(1052,1015,cs),
(333,1015,o),
(183,915,o),
(146,740,c),
(14,740,l),
(2,670,l),
(134,670,l),
(16,0,l),
(100,0,l)
);
}
);
width = 294;
}
);
note = dvmI.a22;
},
{
glyphname = dvmI.a23;
lastChange = "2022-10-20 15:42:28 +0000";
layers = (
{
layerId = m01;
shapes = (
{
closed = 1;
nodes = (
(218,670,l),
(349,670,l),
(361,740,l),
(229,740,l),
(258,867,o),
(381,947,o),
(1059,947,cs),
(1772,947,o),
(1899,850,o),
(1875,714,cs),
(1874,708,l),
(1957,707,l),
(1959,716,ls),
(1989,890,o),
(1855,1016,o),
(1078,1016,cs),
(336,1016,o),
(184,914,o),
(146,740,c),
(14,740,l),
(2,670,l),
(134,670,l),
(15,0,l),
(99,0,l)
);
}
);
width = 294;
}
);
note = dvmI.a23;
},
{
glyphname = dvmI.a24;
lastChange = "2022-10-20 15:42:28 +0000";
layers = (
{
layerId = m01;
shapes = (
{
closed = 1;
nodes = (
(217,670,l),
(348,670,l),
(361,740,l),
(229,740,l),
(258,867,o),
(381,948,o),
(1085,948,cs),
(1825,948,o),
(1953,849,o),
(1929,713,cs),
(1928,707,l),
(2011,706,l),
(2012,715,ls),
(2043,889,o),
(1908,1017,o),
(1105,1017,cs),
(335,1017,o),
(184,914,o),
(146,740,c),
(14,740,l),
(1,670,l),
(133,670,l),
(15,0,l),
(99,0,l)
);
}
);
width = 294;
}
);
note = dvmI.a24;
},
{
glyphname = exclam;
lastChange = "2022-10-20 15:42:28 +0000";
layers = (
{
layerId = m01;
shapes = (
{
closed = 1;
nodes = (
(67,197,ls),
(66,192,o),
(70,187,o),
(75,187,cs),
(161,187,ls),
(166,187,o),
(172,192,o),
(173,197,cs),
(272,697,ls),
(273,703,o),
(270,707,o),
(264,707,cs),
(156,707,ls),
(150,707,o),
(145,703,o),
(144,697,cs)
);
},
{
closed = 1;
nodes = (
(181,96,o),
(155,128,o),
(112,128,cs),
(68,128,o),
(29,95,o),
(22,56,cs),
(15,17,o),
(42,-16,o),
(86,-16,cs),
(129,-16,o),
(167,16,o),
(174,56,cs)
);
}
);
width = 298;
}
);
note = exclam;
unicode = 33;
},
{
glyphname = quotedbl;
lastChange = "2022-10-20 15:42:28 +0000";
layers = (
{
layerId = m01;
shapes = (
{
closed = 1;
nodes = (
(4,596,ls),
(3,591,o),
(8,587,o),
(13,587,cs),
(86,587,ls),
(91,587,o),
(96,591,o),
(97,596,cs),
(143,795,ls),
(145,802,o),
(141,806,o),
(135,806,cs),
(39,806,ls),
(33,806,o),
(29,802,o),
(27,795,cs)
);
},
{
closed = 1;
nodes = (
(157,596,ls),
(156,591,o),
(161,587,o),
(166,587,cs),
(239,587,ls),
(244,587,o),
(249,591,o),
(250,596,cs),
(296,795,ls),
(298,802,o),
(294,806,o),
(288,806,cs),
(192,806,ls),
(186,806,o),
(182,802,o),
(180,795,cs)
);
}
);
width = 292;
}
);
note = quotedbl;
unicode = 34;
},
{
glyphname = numbersign;
lastChange = "2022-10-20 15:42:28 +0000";
layers = (
{
layerId = m01;
shapes = (
{
closed = 1;
nodes = (
(481,301,ls),
(479,294,o),
(472,290,o),
(465,290,cs),
(317,290,ls),
(306,290,o),
(300,299,o),
(304,310,cs),
(355,439,ls),
(357,446,o),
(364,450,o),
(371,450,cs),
(519,450,ls),
(530,450,o),
(536,441,o),
(532,430,cs)
);
},
{
closed = 1;
nodes = (
(365,3,ls),
(363,-4,o),
(367,-10,o),
(374,-10,cs),
(469,-10,ls),
(473,-10,o),
(479,-6,o),
(480,-2,cs),
(551,179,ls),
(554,186,o),
(560,190,o),
(567,190,cs),
(702,190,ls),
(708,190,o),
(713,194,o),
(714,200,cs),
(728,280,ls),
(729,286,o),
(726,290,o),
(720,290,cs),
(614,290,ls),
(603,290,o),
(597,299,o),
(601,310,cs),
(652,439,ls),
(654,446,o),
(661,450,o),
(668,450,cs),
(804,450,ls),
(810,450,o),
(815,454,o),
(816,460,cs),
(830,540,ls),
(831,546,o),
(828,550,o),
(822,550,cs),
(715,550,ls),
(704,550,o),
(698,559,o),
(702,570,cs),
(768,737,ls),
(770,744,o),
(766,750,o),
(759,750,cs),
(664,750,ls),
(660,750,o),
(654,746,o),
(653,742,cs),
(582,561,ls),
(579,554,o),
(573,550,o),
(566,550,cs),
(418,550,ls),
(407,550,o),
(401,559,o),
(405,570,cs),
(471,737,ls),
(473,744,o),
(469,750,o),
(462,750,cs),
(367,750,ls),
(363,750,o),
(357,746,o),
(356,742,cs),
(285,561,ls),
(282,554,o),
(276,550,o),
(269,550,cs),
(117,550,ls),
(111,550,o),
(106,546,o),
(105,540,cs),
(91,460,ls),
(90,454,o),
(93,450,o),
(99,450,cs),
(222,450,ls),
(233,450,o),
(239,441,o),
(235,430,cs),
(184,301,ls),
(182,294,o),
(175,290,o),
(168,290,cs),
(14,290,ls),
(8,290,o),
(3,286,o),
(2,280,cs),
(-12,200,ls),
(-13,194,o),
(-10,190,o),
(-4,190,cs),
(121,190,ls),
(132,190,o),
(138,181,o),
(134,170,cs),
(68,3,ls),
(66,-4,o),
(70,-10,o),
(77,-10,cs),
(172,-10,ls),
(176,-10,o),
(182,-6,o),
(183,-2,cs),
(254,179,ls),
(257,186,o),
(263,190,o),
(270,190,cs),
(418,190,ls),
(429,190,o),
(435,181,o),
(431,170,cs)
);
}
);
width = 840;
}
);
note = numbersign;
unicode = 35;
},
{
glyphname = dollar;
lastChange = "2022-10-20 15:42:28 +0000";
layers = (
{
layerId = m01;
shapes = (
{
closed = 1;
nodes = (
(173,-97,l),
(257,-97,l),
(272,-15,l),
(410,0,o),
(497,97,o),
(514,191,cs),
(539,331,o),
(437,366,o),
(343,391,c),
(382,613,l),
(424,596,o),
(440,557,o),
(436,517,c),
(563,517,l),
(576,623,o),
(515,698,o),
(400,713,c),
(415,798,l),
(331,798,l),
(316,714,l),
(188,701,o),
(93,621,o),
(73,512,cs),
(49,373,o),
(152,338,o),
(245,312,c),
(205,83,l),
(153,98,o),
(137,141,o),
(144,191,c),
(18,191,l),
(-5,78,o),
(68,2,o),
(188,-14,c)
);
},
{
closed = 1;
nodes = (
(383,133,o),
(347,93,o),
(288,81,c),
(325,288,l),
(373,271,o),
(402,245,o),
(392,186,cs)
);
},
{
closed = 1;
nodes = (
(208,578,o),
(246,609,o),
(299,618,c),
(263,415,l),
(217,433,o),
(187,458,o),
(197,517,cs)
);
}
);
width = 622;
}
);
note = dollar;
unicode = 36;
},
{
glyphname = percent;
lastChange = "2022-10-20 15:42:28 +0000";
layers = (
{
layerId = m01;
shapes = (
{
closed = 1;
nodes = (
(47,461,o),
(105,400,o),
(197,400,cs),
(290,400,o),
(369,461,o),
(386,560,cs),
(404,658,o),
(346,719,o),
(253,719,cs),
(161,719,o),
(82,658,o),
(64,560,cs)
);
},
{
closed = 1;
nodes = (
(276,643,o),
(295,620,o),
(284,560,cs),
(274,501,o),
(246,476,o),
(210,476,cs),
(174,476,o),
(157,500,o),
(167,560,cs),
(178,620,o),
(204,643,o),
(240,643,cs)
);
},
{
closed = 1;
nodes = (
(60,9,ls),
(54,0,o),
(58,-10,o),
(68,-10,cs),
(163,-10,ls),
(166,-10,o),
(170,-8,o),
(171,-6,cs),
(697,689,ls),
(704,698,o),
(699,708,o),
(689,708,cs),
(594,708,ls),
(591,708,o),
(587,706,o),
(586,704,cs)
);
},
{
closed = 1;
nodes = (
(356,40,o),
(413,-22,o),
(506,-22,cs),
(598,-22,o),
(677,40,o),
(694,138,cs),
(711,237,o),
(654,298,o),
(562,298,cs),
(469,298,o),
(390,237,o),
(373,138,cs)
);
},
{
closed = 1;
nodes = (
(584,221,o),
(602,198,o),
(592,138,cs),
(581,79,o),
(554,56,o),
(518,56,cs),
(482,56,o),
(463,79,o),
(474,138,cs),
(484,198,o),
(512,221,o),
(548,221,cs)
);
}
);
width = 759;
}
);
note = percent;
unicode = 37;
},
{
glyphname = ampersand;
lastChange = "2022-10-20 15:42:28 +0000";
layers = (
{
layerId = m01;
shapes = (
{
closed = 1;
nodes = (
(524,538,ls),
(529,538,o),
(534,542,o),
(536,547,cs),
(559,645,o),
(500,721,o),
(380,721,cs),
(258,721,o),
(168,650,o),
(151,556,cs),
(143,507,o),
(151,468,o),
(182,419,c),
(68,373,o),
(1,295,o),
(-15,200,cs),
(-39,66,o),
(50,-22,o),
(204,-22,cs),
(301,-22,o),
(385,11,o),
(461,74,c),
(528,-8,ls),
(529,-9,o),
(531,-10,o),
(533,-10,cs),
(650,-10,ls),
(664,-10,o),
(672,5,o),
(664,15,cs),
(546,158,l),
(563,177,o),
(578,196,o),
(592,215,cs),
(697,353,ls),
(703,362,o),
(699,372,o),
(689,372,cs),
(586,372,ls),
(583,372,o),
(579,370,o),
(577,368,cs),
(489,253,ls),
(485,248,o),
(482,244,o),
(479,240,c),
(319,436,ls),
(281,485,o),
(266,517,o),
(272,556,cs),
(280,599,o),
(313,626,o),
(359,626,cs),
(401,626,o),
(427,602,o),
(415,550,cs),
(414,543,o),
(417,538,o),
(423,538,cs)
);
},
{
closed = 1;
nodes = (
(138,76,o),
(93,128,o),
(106,203,cs),
(118,268,o),
(160,314,o),
(240,345,c),
(398,152,l),
(339,99,o),
(287,76,o),
(222,76,cs)
);
}
);
width = 739;
}
);
note = ampersand;
unicode = 38;
},
{
glyphname = quotesingle;
lastChange = "2022-10-20 15:42:28 +0000";
layers = (
{
layerId = m01;
shapes = (
{
closed = 1;
nodes = (
(15,596,ls),
(14,590,o),
(19,587,o),
(24,587,cs),
(97,587,ls),
(102,587,o),
(107,591,o),
(108,596,cs),
(155,795,ls),
(157,802,o),
(153,806,o),
(147,806,cs),
(49,806,ls),
(43,806,o),
(39,802,o),
(37,795,cs)
);
}
);
width = 159;
}
);
note = quotesingle;
unicode = 39;
},
{
glyphname = parenleft;
lastChange = "2022-10-20 15:42:28 +0000";
layers = (
{
layerId = m01;
shapes = (
{
closed = 1;
nodes = (
(342,-196,ls),
(348,-196,o),
(353,-191,o),
(354,-186,cs),
(355,-184,o),
(354,-182,o),
(353,-181,cs),
(240,-41,o),
(174,163,o),
(210,366,cs),
(246,570,o),
(373,792,o),
(550,934,cs),
(552,935,o),
(553,938,o),
(554,940,cs),
(554,940,ls),
(554,942,o),
(551,944,o),
(545,944,cs),
(423,944,ls),
(421,944,o),
(418,943,o),
(417,942,cs),
(242,804,o),
(131,591,o),
(92,366,cs),
(52,143,o),
(89,-62,o),
(201,-194,cs),
(202,-195,o),
(203,-196,o),
(205,-196,cs)
);
}
);
width = 454;
}
);
note = parenleft;
unicode = 40;
},
{
glyphname = parenright;
lastChange = "2022-10-20 15:42:28 +0000";
layers = (
{
layerId = m01;
shapes = (
{
closed = 1;
nodes = (
(215,-62,o),
(324,143,o),
(364,366,cs),
(403,591,o),
(368,804,o),
(241,942,cs),
(240,943,o),
(239,944,o),
(237,944,cs),
(115,944,ls),
(109,944,o),
(104,942,o),
(104,940,cs),
(103,938,o),
(104,935,o),
(106,934,cs),
(233,792,o),
(282,570,o),
(246,366,cs),
(210,163,o),
(72,-41,o),
(-91,-181,cs),
(-92,-182,o),
(-93,-184,o),
(-94,-186,cs),
(-94,-190,ls),
(-95,-193,o),
(-92,-196,o),
(-86,-196,cs),
(51,-196,ls),
(53,-196,o),
(56,-195,o),
(57,-194,cs)
);
}
);
width = 454;
}
);
note = parenright;
unicode = 41;
},
{
glyphname = asterisk;
lastChange = "2022-10-20 15:42:28 +0000";
layers = (
{
layerId = m01;
shapes = (
{
closed = 1;
nodes = (
(331,738,ls),
(331,742,o),
(330,744,o),
(327,744,cs),
(231,744,ls),
(228,744,o),
(225,742,o),
(225,738,cs),
(216,624,ls),
(216,618,o),
(208,614,o),
(204,618,cs),
(122,686,ls),
(120,688,o),
(115,687,o),
(113,684,cs),
(56,605,ls),
(55,602,o),
(55,599,o),
(58,598,cs),
(157,555,ls),
(163,552,o),
(161,544,o),
(155,541,cs),
(40,496,ls),
(37,495,o),
(35,492,o),
(36,489,cs),
(68,409,ls),
(68,406,o),
(73,406,o),
(75,408,cs),
(177,474,ls),
(183,478,o),
(189,474,o),
(187,468,cs),
(157,356,ls),
(157,352,o),
(158,350,o),
(161,350,cs),
(256,350,ls),
(259,350,o),
(262,352,o),
(262,356,cs),
(271,467,ls),
(271,473,o),
(279,478,o),
(283,474,cs),
(361,408,ls),
(363,406,o),
(368,407,o),
(370,410,cs),
(429,489,ls),
(431,492,o),
(430,495,o),
(427,496,cs),
(327,540,ls),
(321,543,o),
(323,551,o),
(329,554,cs),
(445,599,ls),
(448,600,o),
(449,603,o),
(448,606,cs),
(420,683,ls),
(420,686,o),
(415,687,o),
(412,685,cs),
(309,619,ls),
(303,615,o),
(297,619,o),
(299,625,cs)
);
}
);
width = 486;
}
);
note = asterisk;
unicode = 42;
},
{
glyphname = plus;
lastChange = "2022-10-20 15:42:28 +0000";
layers = (
{
layerId = m01;
shapes = (
{
closed = 1;
nodes = (
(336,631,ls),
(333,631,o),
(330,629,o),
(330,626,cs),
(294,424,ls),
(293,418,o),
(288,414,o),
(282,414,cs),
(85,414,ls),
(82,414,o),
(80,412,o),
(80,409,cs),
(64,322,ls),
(64,319,o),
(65,317,o),
(68,317,cs),
(265,317,ls),
(271,317,o),
(275,313,o),
(274,307,cs),
(238,106,ls),
(238,103,o),
(239,101,o),
(242,101,cs),
(347,101,ls),
(350,101,o),
(353,103,o),
(353,106,cs),
(389,307,ls),
(390,313,o),
(394,317,o),
(400,317,cs),
(598,317,ls),
(601,317,o),
(604,319,o),
(604,322,cs),
(620,409,ls),
(620,412,o),
(618,414,o),
(615,414,cs),
(417,414,ls),
(411,414,o),
(408,418,o),
(409,424,cs),
(445,626,ls),
(445,629,o),
(444,631,o),
(441,631,cs)
);
}
);
width = 683;
}
);
note = plus;
unicode = 43;
},
{
glyphname = comma;
lastChange = "2022-10-20 15:42:28 +0000";
layers = (
{
layerId = m01;
shapes = (
{
closed = 1;
nodes = (
(-39,-139,ls),
(-42,-146,o),
(-38,-153,o),
(-30,-153,cs),
(39,-153,ls),
(42,-153,o),
(46,-151,o),
(48,-147,cs),
(207,120,ls),
(211,128,o),
(207,136,o),
(198,136,cs),
(91,136,ls),
(87,136,o),
(83,134,o),
(81,129,cs)
);
}
);
width = 198;
}
);
note = comma;
unicode = 44;
},
{
glyphname = hyphen;
lastChange = "2022-10-20 15:42:28 +0000";
layers = (
{
layerId = m01;
shapes = (
{
closed = 1;
nodes = (
(36,281,ls),
(35,275,o),
(38,271,o),
(44,271,cs),
(453,271,ls),
(459,271,o),
(464,275,o),
(465,281,cs),
(479,358,ls),
(480,364,o),
(477,368,o),
(471,368,cs),
(62,368,ls),
(56,368,o),
(51,364,o),
(50,358,cs)
);
}
);
width = 551;
}
);
note = hyphen;
unicode = 45;
},
{
glyphname = period;
lastChange = "2022-10-20 15:42:28 +0000";
layers = (
{
layerId = m01;
shapes = (
{
closed = 1;
nodes = (
(188,96,o),
(162,128,o),
(119,128,cs),
(75,128,o),
(36,95,o),
(29,56,cs),
(22,17,o),
(49,-16,o),
(93,-16,cs),
(136,-16,o),
(174,16,o),
(181,56,cs)
);
}
);
width = 210;
}
);
note = period;
unicode = 46;
},
{
glyphname = slash;
lastChange = "2022-10-20 15:42:28 +0000";
layers = (
{
layerId = m01;
shapes = (
{
closed = 1;
nodes = (
(-59,-166,ls),
(-63,-174,o),
(-58,-180,o),
(-51,-180,cs),
(49,-180,ls),
(53,-180,o),
(58,-178,o),
(59,-173,cs),
(529,938,ls),
(533,946,o),
(528,952,o),
(521,952,cs),
(420,952,ls),
(416,952,o),
(411,950,o),
(410,945,cs)
);
}
);
width = 476;
}
);
note = slash;
unicode = 47;
},
{
glyphname = zero;
lastChange = "2022-10-20 15:42:28 +0000";
layers = (
{
layerId = m01;
shapes = (
{
closed = 1;
nodes = (
(10,157,o),
(35,-10,o),
(248,-10,cs),
(460,-10,o),
(543,157,o),
(580,369,cs),
(617,578,o),
(592,744,o),
(380,744,cs),
(167,744,o),
(84,578,o),
(47,369,cs)
);
},
{
closed = 1;
nodes = (
(433,213,o),
(394,93,o),
(266,93,cs),
(137,93,o),
(140,213,o),
(167,369,cs),
(194,519,o),
(233,641,o),
(362,641,cs),
(490,641,o),
(487,519,o),
(460,369,cs)
);
}
);
width = 628;
}
);
note = zero;
unicode = 48;
},
{
glyphname = one;
lastChange = "2022-10-20 15:42:28 +0000";
layers = (
{
layerId = m01;
shapes = (
{
closed = 1;
nodes = (
(53,-10,l),
(175,-10,l),
(299,688,ls),
(303,714,o),
(288,733,o),
(257,733,cs),
(127,733,l),
(65,630,l),
(146,630,ls),
(160,630,o),
(165,624,o),
(162,605,cs)
);
}
);
width = 320;
}
);
note = one;
unicode = 49;
},
{
glyphname = two;
lastChange = "2022-10-20 15:42:28 +0000";
layers = (
{
layerId = m01;
shapes = (
{
closed = 1;
nodes = (
(-26,18,ls),
(-29,5,o),
(-18,-2,o),
(-5,-2,cs),
(456,-2,ls),
(469,-2,o),
(482,5,o),
(485,18,cs),
(490,49,ls),
(495,75,o),
(479,94,o),
(448,94,cs),
(158,94,ls),
(161,94,o),
(162,88,o),
(163,88,c),
(313,195,o),
(521,346,o),
(552,522,cs),
(577,661,o),
(498,746,o),
(353,746,cs),
(217,746,o),
(101,665,o),
(65,512,cs),
(61,499,o),
(72,492,o),
(85,492,cs),
(130,492,ls),
(160,492,o),
(180,508,o),
(189,533,cs),
(215,605,o),
(263,648,o),
(337,648,cs),
(425,648,o),
(445,596,o),
(432,518,cs),
(407,375,o),
(208,234,o),
(-6,84,c),
(-12,78,o),
(-17,73,o),
(-18,65,cs)
);
}
);
width = 575;
}
);
note = two;
unicode = 50;
},
{
glyphname = three;
lastChange = "2022-10-20 15:42:28 +0000";
layers = (
{
layerId = m01;
shapes = (
{
closed = 1;
nodes = (
(147,531,ls),
(177,531,o),
(195,546,o),
(206,569,cs),
(233,620,o),
(278,649,o),
(344,649,cs),
(423,649,o),
(455,608,o),
(443,542,cs),
(429,462,o),
(368,431,o),
(252,430,cs),
(230,430,o),
(211,417,o),
(205,385,cs),
(204,379,ls),
(199,348,o),
(212,334,o),
(234,334,cs),
(359,334,o),
(415,301,o),
(397,203,cs),
(385,131,o),
(336,82,o),
(248,82,cs),
(172,82,o),
(133,120,o),
(124,180,cs),
(122,202,o),
(109,218,o),
(79,218,cs),
(34,218,ls),
(20,218,o),
(5,210,o),
(5,196,cs),
(-3,58,o),
(92,-15,o),
(232,-15,cs),
(392,-15,o),
(492,78,o),
(513,195,cs),
(532,303,o),
(483,369,o),
(406,388,c),
(405,384,ls),
(405,385,o),
(405,378,o),
(426,386,cs),
(499,415,o),
(550,477,o),
(563,551,cs),
(582,660,o),
(514,747,o),
(364,747,cs),
(227,747,o),
(114,675,o),
(79,553,cs),
(75,539,o),
(86,531,o),
(100,531,cs)
);
}
);
width = 589;
}
);
note = three;
unicode = 51;
},
{
glyphname = four;
lastChange = "2022-10-20 15:42:28 +0000";
layers = (
{
layerId = m01;
shapes = (
{
closed = 1;
nodes = (
(334,10,ls),
(331,-3,o),
(342,-10,o),
(355,-10,cs),
(425,-10,ls),
(438,-10,o),
(451,-3,o),
(454,10,cs),
(479,151,ls),
(479,154,o),
(476,151,o),
(474,151,cs),
(554,151,ls),
(567,151,o),
(580,158,o),
(582,171,cs),
(592,230,ls),
(595,243,o),
(584,250,o),
(571,250,cs),
(516,250,ls),
(502,250,o),
(497,256,o),
(500,275,cs),
(576,706,ls),
(579,719,o),
(568,726,o),
(555,726,cs),
(464,726,ls),
(455,726,o),
(442,723,o),
(437,714,c),
(12,242,ls),
(5,235,o),
(3,231,o),
(1,223,cs),
(-8,171,ls),
(-10,158,o),
(1,151,o),
(14,151,cs),
(364,151,ls),
(362,151,o),
(359,154,o),
(359,151,cs)
);
},
{
closed = 1;
nodes = (
(141,250,ls),
(144,250,o),
(145,245,o),
(146,246,cs),
(456,598,l),
(456,597,o),
(442,604,o),
(442,600,cs),
(380,250,ls),
(379,247,o),
(383,250,o),
(385,250,cs)
);
}
);
width = 629;
}
);
note = four;
unicode = 52;
},
{
glyphname = five;
lastChange = "2022-10-20 15:42:28 +0000";
layers = (
{
layerId = m01;
shapes = (
{
closed = 1;
nodes = (
(164,734,ls),
(151,734,o),
(138,727,o),
(135,714,cs),
(67,326,ls),
(65,313,o),
(75,306,o),
(88,306,cs),
(156,306,ls),
(164,306,o),
(179,310,o),
(184,322,c),
(219,372,o),
(268,401,o),
(331,401,cs),
(428,401,o),
(465,349,o),
(447,248,cs),
(430,151,o),
(374,85,o),
(274,85,cs),
(199,85,o),
(157,121,o),
(148,188,c),
(149,201,o),
(136,206,o),
(126,206,cs),
(57,206,ls),
(42,206,o),
(29,199,o),
(29,183,cs),
(31,69,o),
(108,-12,o),
(256,-12,cs),
(435,-12,o),
(539,106,o),
(564,250,cs),
(585,364,o),
(549,499,o),
(361,499,cs),
(293,499,o),
(227,472,o),
(186,437,c),
(186,436,o),
(199,431,o),
(200,434,cs),
(235,634,ls),
(236,637,o),
(232,634,o),
(230,634,cs),
(536,634,ls),
(567,634,o),
(589,653,o),
(594,679,cs),
(604,734,l)
);
}
);
width = 628;
}
);
note = five;
unicode = 53;
},
{
glyphname = six;
lastChange = "2022-10-20 15:42:28 +0000";
layers = (
{
layerId = m01;
shapes = (
{
closed = 1;
nodes = (
(569,541,ls),
(583,541,o),
(597,549,o),
(598,564,cs),
(598,662,o),
(538,748,o),
(396,748,cs),
(202,748,o),
(99,602,o),
(59,371,cs),
(20,150,o),
(44,-12,o),
(271,-12,cs),
(439,-12,o),
(542,102,o),
(566,238,cs),
(594,395,o),
(513,489,o),
(369,489,cs),
(298,489,o),
(227,463,o),
(177,417,c),
(214,592,o),
(280,652,o),
(378,652,cs),
(442,652,o),
(470,628,o),
(480,578,cs),
(484,556,o),
(499,541,o),
(527,541,cs)
);
},
{
closed = 1;
nodes = (
(428,392,o),
(465,335,o),
(448,235,cs),
(431,140,o),
(369,84,o),
(283,84,cs),
(178,84,o),
(140,151,o),
(156,245,cs),
(175,349,o),
(255,392,o),
(333,392,cs)
);
}
);
width = 635;
}
);
note = six;
unicode = 54;
},
{
glyphname = seven;
lastChange = "2022-10-20 15:42:28 +0000";
layers = (
{
layerId = m01;
shapes = (
{
closed = 1;
nodes = (
(108,731,ls),
(95,731,o),
(82,724,o),
(80,711,cs),
(74,678,ls),
(69,652,o),
(85,633,o),
(116,633,cs),
(422,633,ls),
(439,633,o),
(443,626,o),
(430,606,cs),
(67,16,ls),
(56,-3,o),
(72,-10,o),
(85,-10,cs),
(156,-10,ls),
(164,-10,o),
(177,-6,o),
(183,4,cs),
(559,627,ls),
(569,644,o),
(574,657,o),
(577,674,cs),
(580,687,ls),
(584,714,o),
(568,731,o),
(537,731,cs)
);
}
);
width = 546;
}
);
note = seven;
unicode = 55;
},
{
glyphname = eight;
lastChange = "2022-10-20 15:42:28 +0000";
layers = (
{
layerId = m01;
shapes = (
{
closed = 1;
nodes = (
(89,346,o),
(32,281,o),
(16,195,cs),
(-8,59,o),
(86,-30,o),
(247,-30,cs),
(408,-30,o),
(534,59,o),
(558,195,cs),
(573,280,o),
(539,345,o),
(469,377,c),
(539,410,o),
(588,469,o),
(601,542,cs),
(620,652,o),
(548,744,o),
(383,744,cs),
(218,744,o),
(115,653,o),
(96,542,cs),
(82,466,o),
(108,410,o),
(169,377,c)
);
},
{
closed = 1;
nodes = (
(244,416,o),
(199,458,o),
(212,530,cs),
(226,611,o),
(283,648,o),
(366,648,cs),
(451,648,o),
(495,610,o),
(481,531,cs),
(468,459,o),
(407,416,o),
(325,416,cs)
);
},
{
closed = 1;
nodes = (
(399,326,o),
(455,287,o),
(439,198,cs),
(425,117,o),
(360,66,o),
(264,66,cs),
(168,66,o),
(120,116,o),
(134,198,cs),
(150,290,o),
(222,326,o),
(310,326,cs)
);
}
);
width = 631;
}
);
note = eight;
unicode = 56;
},
{
glyphname = nine;
lastChange = "2022-10-20 15:42:28 +0000";
layers = (
{
layerId = m01;
shapes = (
{
closed = 1;
nodes = (
(77,204,ls),
(63,204,o),
(49,196,o),
(48,182,cs),
(44,78,o),
(103,-11,o),
(252,-11,cs),
(454,-11,o),
(537,131,o),
(580,375,cs),
(620,602,o),
(586,747,o),
(378,747,cs),
(213,747,o),
(106,642,o),
(81,499,cs),
(53,341,o),
(143,253,o),
(285,253,cs),
(349,253,o),
(414,275,o),
(459,314,c),
(424,140,o),
(364,85,o),
(274,85,cs),
(208,85,o),
(175,112,o),
(166,167,cs),
(162,189,o),
(148,204,o),
(119,204,cs)
);
},
{
closed = 1;
nodes = (
(218,350,o),
(182,410,o),
(198,501,cs),
(215,595,o),
(277,651,o),
(363,651,cs),
(458,651,o),
(497,590,o),
(480,494,cs),
(464,400,o),
(397,350,o),
(317,350,cs)
);
}
);
width = 630;
}
);
note = nine;
unicode = 57;
},
{
glyphname = colon;
lastChange = "2022-10-20 15:42:28 +0000";
layers = (
{
layerId = m01;
shapes = (
{
closed = 1;
nodes = (
(134,91,o),
(112,118,o),
(79,118,cs),
(44,118,o),
(12,91,o),
(6,56,cs),
(0,21,o),
(22,-6,o),
(57,-6,cs),
(90,-6,o),
(122,21,o),
(128,56,cs)
);
},
{
closed = 1;
nodes = (
(210,519,o),
(188,546,o),
(155,546,cs),
(120,546,o),
(88,519,o),
(82,484,cs),
(76,449,o),
(98,422,o),
(133,422,cs),
(166,422,o),
(198,449,o),
(204,484,cs)
);
}
);
width = 213;
}
);
note = colon;
unicode = 58;
},
{
glyphname = semicolon;
lastChange = "2022-10-20 15:42:28 +0000";
layers = (
{
layerId = m01;
shapes = (
{
closed = 1;
nodes = (
(246,520,o),
(224,547,o),
(191,547,cs),
(156,547,o),
(124,520,o),
(118,485,cs),
(112,450,o),
(134,423,o),
(169,423,cs),
(202,423,o),
(234,450,o),
(240,485,cs)
);
},
{
closed = 1;
nodes = (
(-38,-143,l),
(23,-143,l),
(183,126,l),
(83,126,l)
);
}
);
width = 264;
}
);
note = semicolon;
unicode = 59;
},
{
glyphname = less;
lastChange = "2022-10-20 15:42:28 +0000";
layers = (
{
layerId = m01;
shapes = (
{
closed = 1;
nodes = (
(223,358,ls),
(219,363,o),
(220,369,o),
(225,374,cs),
(480,580,ls),
(492,590,o),
(488,605,o),
(474,605,cs),
(363,605,ls),
(361,605,o),
(360,605,o),
(358,603,cs),
(75,374,ls),
(70,369,o),
(69,363,o),
(73,358,cs),
(274,128,ls),
(275,127,o),
(277,126,o),
(279,126,cs),
(389,126,ls),
(403,126,o),
(411,141,o),
(403,151,cs)
);
}
);
width = 555;
}
);
note = less;
unicode = 60;
},
{
glyphname = equal;
lastChange = "2022-10-20 15:42:28 +0000";
layers = (
{
layerId = m01;
shapes = (
{
closed = 1;
nodes = (
(60,220,ls),
(59,214,o),
(62,210,o),
(68,210,cs),
(598,210,ls),
(604,210,o),
(609,214,o),
(610,220,cs),
(624,297,ls),
(625,303,o),
(622,307,o),
(616,307,cs),
(86,307,ls),
(80,307,o),
(75,303,o),
(74,297,cs)
);
},
{
closed = 1;
nodes = (
(98,435,ls),
(97,429,o),
(100,425,o),
(106,425,cs),
(636,425,ls),
(642,425,o),
(647,429,o),
(648,435,cs),
(662,512,ls),
(663,518,o),
(660,522,o),
(654,522,cs),
(124,522,ls),
(118,522,o),
(113,518,o),
(112,512,cs)
);
}
);
width = 723;
}
);
note = equal;
unicode = 61;
},
{
glyphname = greater;
lastChange = "2022-10-20 15:42:28 +0000";
layers = (
{
layerId = m01;
shapes = (
{
closed = 1;
nodes = (
(26,141,o),
(30,126,o),
(44,126,cs),
(154,126,ls),
(156,126,o),
(158,127,o),
(159,128,cs),
(442,358,ls),
(448,363,o),
(449,369,o),
(444,374,cs),
(243,603,ls),
(241,605,o),
(240,605,o),
(238,605,cs),
(127,605,ls),
(113,605,o),
(105,590,o),
(113,580,cs),
(294,374,ls),
(299,369,o),
(298,363,o),
(292,358,cs),
(38,151,ls)
);
}
);
width = 539;
}
);
note = greater;
unicode = 62;
},
{
glyphname = question;
lastChange = "2022-10-20 15:42:28 +0000";
layers = (
{
layerId = m01;
shapes = (
{
closed = 1;
nodes = (
(139,495,ls),
(151,495,o),
(165,502,o),
(167,515,cs),
(183,584,o),
(233,620,o),
(304,620,cs),
(378,620,o),
(414,577,o),
(400,500,cs),
(380,386,o),
(293,367,o),
(181,367,cs),
(137,367,l),
(113,209,ls),
(111,197,o),
(123,189,o),
(135,189,cs),
(194,189,ls),
(206,189,o),
(220,197,o),
(222,209,cs),
(238,284,l),
(378,288,o),
(492,353,o),
(517,500,cs),
(541,632,o),
(460,716,o),
(320,716,cs),
(184,716,o),
(76,636,o),
(51,515,cs),
(49,502,o),
(60,495,o),
(73,495,cs)
);
},
{
closed = 1;
nodes = (
(222,96,o),
(196,128,o),
(153,128,cs),
(109,128,o),
(70,95,o),
(63,56,cs),
(56,17,o),
(83,-16,o),
(127,-16,cs),
(170,-16,o),
(208,16,o),
(215,56,cs)
);
}
);
width = 524;
}
);
note = question;
unicode = 63;
},
{
glyphname = at;
lastChange = "2022-10-20 15:42:28 +0000";
layers = (
{
layerId = m01;
shapes = (
{
closed = 1;
nodes = (
(833,-17,o),
(942,150,o),
(970,307,cs),
(1006,509,o),
(888,651,o),
(653,651,cs),
(349,651,o),
(92,422,o),
(41,133,cs),
(5,-75,o),
(130,-209,o),
(355,-209,cs),
(427,-209,o),
(501,-196,o),
(567,-170,cs),
(571,-168,o),
(575,-164,o),
(575,-160,cs),
(574,-130,ls),
(574,-103,o),
(552,-93,o),
(525,-102,cs),
(479,-117,o),
(432,-124,o),
(388,-124,cs),
(207,-124,o),
(117,-34,o),
(149,141,cs),
(192,384,o),
(393,567,o),
(627,567,cs),
(811,567,o),
(895,473,o),
(865,302,cs),
(847,198,o),
(783,65,o),
(709,65,cs),
(671,65,o),
(670,93,o),
(689,148,cs),
(778,405,ls),
(787,429,o),
(774,449,o),
(749,449,cs),
(693,449,ls),
(688,449,o),
(684,445,o),
(683,441,cs),
(673,414,l),
(651,443,o),
(613,459,o),
(561,459,cs),
(404,459,o),
(275,318,o),
(248,165,cs),
(229,57,o),
(281,-17,o),
(394,-17,cs),
(458,-17,o),
(526,10,o),
(577,55,c),
(584,11,o),
(618,-17,o),
(681,-17,cs)
);
},
{
closed = 1;
nodes = (
(593,147,o),
(517,74,o),
(437,74,cs),
(376,74,o),
(354,113,o),
(366,179,cs),
(383,276,o),
(455,369,o),
(545,369,cs),
(613,369,o),
(635,319,o),
(617,248,cs)
);
}
);
width = 1013;
}
);
note = at;
unicode = 64;
},
{
glyphname = A;
lastChange = "2022-10-20 15:42:28 +0000";
layers = (
{
layerId = m01;
shapes = (
{
closed = 1;
nodes = (
(464,25,ls),
(468,3,o),
(485,-10,o),
(512,-10,cs),
(566,-10,ls),
(579,-10,o),
(594,-3,o),
(592,14,c),
(471,668,ls),
(467,690,o),
(450,703,o),
(423,703,cs),
(378,703,ls),
(351,703,o),
(330,690,o),
(318,668,cs),
(-36,14,l),
(-44,-3,o),
(-31,-10,o),
(-18,-10,cs),
(36,-10,ls),
(63,-10,o),
(84,3,o),
(96,25,cs),
(157,139,ls),
(159,142,o),
(163,145,o),
(167,145,cs),
(435,145,ls),
(439,145,o),
(443,142,o),
(443,139,cs)
);
},
{
closed = 1;
nodes = (
(423,247,ls),
(424,243,o),
(421,239,o),
(417,239,cs),
(219,239,ls),
(215,239,o),
(214,243,o),
(215,247,cs),
(361,520,ls),
(365,528,o),
(373,528,o),
(375,520,cs)
);
}
);
width = 674;
}
);
note = A;
unicode = 65;
},
{
glyphname = B;
lastChange = "2022-10-20 15:42:28 +0000";
layers = (
{
layerId = m01;
shapes = (
{
closed = 1;
nodes = (
(418,123,o),
(366,85,o),
(283,85,cs),
(137,85,l),
(172,286,ls),
(175,305,o),
(182,311,o),
(196,311,cs),
(319,311,ls),
(401,311,o),
(444,270,o),
(431,196,cs)
);
},
{
closed = 1;
nodes = (
(456,441,o),
(409,406,o),
(331,406,cs),
(193,406,l),
(225,587,ls),
(228,606,o),
(235,612,o),
(249,612,cs),
(365,612,ls),
(447,612,o),
(480,575,o),
(468,509,cs)
);
},
{
closed = 1;
nodes = (
(564,266,o),
(527,335,o),
(461,361,c),
(526,389,o),
(579,440,o),
(593,520,cs),
(611,622,o),
(545,707,o),
(390,707,cs),
(150,707,ls),
(137,707,o),
(124,700,o),
(122,687,cs),
(2,10,ls),
(0,-3,o),
(11,-10,o),
(24,-10,cs),
(274,-10,ls),
(426,-10,o),
(531,77,o),
(551,187,cs)
);
}
);
width = 613;
}
);
note = B;
unicode = 66;
},
{
glyphname = C;
lastChange = "2022-10-20 15:42:28 +0000";
layers = (
{
layerId = m01;
shapes = (
{
closed = 1;
nodes = (
(-10,135,o),
(122,-16,o),
(326,-16,cs),
(479,-16,o),
(617,59,o),
(694,187,cs),
(706,206,o),
(690,213,o),
(677,213,cs),
(609,213,ls),
(583,213,o),
(564,201,o),
(550,183,cs),
(498,117,o),
(430,83,o),
(344,83,cs),
(206,83,o),
(121,182,o),
(151,349,cs),
(180,517,o),
(300,616,o),
(438,616,cs),
(524,616,o),
(580,582,o),
(608,515,cs),
(616,497,o),
(631,485,o),
(657,485,cs),
(725,485,ls),
(738,485,o),
(756,492,o),
(751,511,cs),
(719,640,o),
(609,716,o),
(456,716,cs),
(252,716,o),
(66,563,o),
(28,349,cs)
);
}
);
width = 772;
}
);
note = C;
unicode = 67;
},
{
glyphname = D;
lastChange = "2022-10-20 15:42:28 +0000";
layers = (
{
layerId = m01;
shapes = (
{
closed = 1;
nodes = (
(175,707,ls),
(144,707,o),
(122,688,o),
(117,662,cs),
(2,10,ls),
(0,-3,o),
(11,-10,o),
(24,-10,cs),
(231,-10,ls),
(469,-10,o),
(640,126,o),
(679,347,cs),
(718,568,o),
(595,707,o),
(357,707,cs)
);
},
{
closed = 1;
nodes = (
(132,85,ls),
(134,85,o),
(136,82,o),
(137,85,cs),
(225,588,ls),
(229,607,o),
(236,613,o),
(250,613,cs),
(341,613,ls),
(515,613,o),
(585,515,o),
(556,347,cs),
(526,179,o),
(422,85,o),
(248,85,cs)
);
}
);
width = 707;
}
);
note = D;
unicode = 68;
},
{
glyphname = E;
lastChange = "2022-10-20 15:42:28 +0000";
layers = (
{
layerId = m01;
shapes = (
{
closed = 1;
nodes = (
(529,698,ls),
(530,704,o),
(526,708,o),
(520,708,cs),
(150,708,ls),
(137,708,o),
(124,701,o),
(122,688,cs),
(2,10,ls),
(0,-3,o),
(11,-10,o),
(24,-10,cs),
(394,-10,ls),
(400,-10,o),
(404,-6,o),
(405,0,cs),
(413,40,ls),
(417,66,o),
(401,85,o),
(370,85,cs),
(146,85,ls),
(140,85,o),
(137,89,o),
(138,95,cs),
(173,295,ls),
(175,301,o),
(179,305,o),
(185,305,cs),
(419,305,ls),
(425,305,o),
(430,309,o),
(431,315,cs),
(444,390,ls),
(445,396,o),
(442,400,o),
(436,400,cs),
(202,400,ls),
(196,400,o),
(193,404,o),
(194,410,cs),
(228,603,ls),
(229,609,o),
(234,613,o),
(240,613,cs),
(464,613,ls),
(495,613,o),
(517,632,o),
(521,658,cs)
);
}
);
width = 513;
}
);
note = E;
unicode = 69;
},
{
glyphname = F;
lastChange = "2022-10-20 15:42:28 +0000";
layers = (
{
layerId = m01;
shapes = (
{
closed = 1;
nodes = (
(2,10,ls),
(0,-3,o),
(11,-10,o),
(24,-10,cs),
(95,-10,ls),
(108,-10,o),
(121,-3,o),
(123,10,cs),
(175,304,ls),
(176,307,o),
(172,304,o),
(170,304,cs),
(396,304,ls),
(409,304,o),
(422,311,o),
(425,324,cs),
(434,378,ls),
(436,391,o),
(426,398,o),
(413,398,cs),
(187,398,ls),
(189,398,o),
(191,395,o),
(192,398,cs),
(225,588,ls),
(229,607,o),
(236,613,o),
(250,613,cs),
(483,613,ls),
(514,613,o),
(536,632,o),
(541,658,cs),
(546,687,ls),
(548,700,o),
(537,707,o),
(524,707,cs),
(175,707,ls),
(144,707,o),
(122,688,o),
(117,662,cs)
);
}
);
width = 504;
}
);
note = F;
unicode = 70;
},
{
glyphname = G;
lastChange = "2022-10-20 15:42:28 +0000";
layers = (
{
layerId = m01;
shapes = (
{
closed = 1;
nodes = (
(252,715,o),
(66,563,o),
(28,349,cs),
(-10,135,o),
(124,-16,o),
(329,-16,cs),
(526,-16,o),
(695,128,o),
(742,306,c),
(753,366,ls),
(755,379,o),
(744,386,o),
(731,386,cs),
(401,386,ls),
(370,386,o),
(348,367,o),
(344,341,cs),
(338,312,ls),
(336,299,o),
(347,292,o),
(360,292,cs),
(617,292,ls),
(616,292,o),
(613,295,o),
(612,292,c),
(571,162,o),
(473,86,o),
(347,86,cs),
(208,86,o),
(122,185,o),
(151,349,cs),
(180,514,o),
(300,613,o),
(439,613,cs),
(529,613,o),
(589,574,o),
(614,497,cs),
(617,488,o),
(629,485,o),
(637,485,cs),
(725,485,ls),
(738,485,o),
(756,492,o),
(751,511,cs),
(719,639,o),
(606,715,o),
(457,715,cs)
);
}
);
width = 778;
}
);
note = G;
unicode = 71;
},
{
glyphname = H;
lastChange = "2022-10-20 15:42:28 +0000";
layers = (
{
layerId = m01;
shapes = (
{
closed = 1;
nodes = (
(451,25,ls),
(447,1,o),
(464,-10,o),
(485,-10,cs),
(556,-10,ls),
(562,-10,o),
(566,-6,o),
(568,0,cs),
(690,697,ls),
(692,703,o),
(688,707,o),
(682,707,cs),
(581,707,ls),
(575,707,o),
(571,703,o),
(569,697,cs),
(520,416,ls),
(518,408,o),
(510,401,o),
(502,401,cs),
(202,401,ls),
(196,401,o),
(193,405,o),
(194,411,cs),
(240,672,ls),
(244,696,o),
(227,707,o),
(206,707,cs),
(135,707,ls),
(129,707,o),
(125,703,o),
(123,697,cs),
(1,0,ls),
(-1,-6,o),
(3,-10,o),
(9,-10,cs),
(110,-10,ls),
(116,-10,o),
(120,-6,o),
(122,0,cs),
(173,291,ls),
(174,299,o),
(183,306,o),
(191,306,cs),
(491,306,ls),
(497,306,o),
(500,302,o),
(499,296,cs)
);
}
);
width = 691;
}
);
note = H;
unicode = 72;
},
{
glyphname = I;
lastChange = "2022-10-20 15:42:28 +0000";
layers = (
{
layerId = m01;
shapes = (
{
closed = 1;
nodes = (
(-1,-10,l),
(120,-10,l),
(246,707,l),
(125,707,l)
);
}
);
width = 246;
}
);
note = I;
unicode = 73;
},
{
glyphname = J;
lastChange = "2022-10-20 15:42:28 +0000";
layers = (
{
layerId = m01;
shapes = (
{
closed = 1;
nodes = (
(292,182,ls),
(282,126,o),
(251,84,o),
(189,84,cs),
(138,84,o),
(118,111,o),
(117,158,cs),
(116,182,o),
(105,199,o),
(73,199,cs),
(25,199,ls),
(12,199,o),
(-1,192,o),
(-3,179,cs),
(-21,58,o),
(49,-17,o),
(171,-17,cs),
(295,-17,o),
(393,61,o),
(414,182,cs),
(505,697,ls),
(506,703,o),
(503,707,o),
(497,707,cs),
(435,707,ls),
(404,707,o),
(381,688,o),
(377,662,cs)
);
}
);
width = 530;
}
);
note = J;
unicode = 74;
},
{
glyphname = K;
lastChange = "2022-10-20 15:42:28 +0000";
layers = (
{
layerId = m01;
shapes = (
{
closed = 1;
nodes = (
(376,0,l),
(378,-7,o),
(390,-10,o),
(399,-10,cs),
(494,-10,ls),
(506,-10,o),
(530,-2,o),
(516,19,cs),
(272,348,l),
(629,678,ls),
(651,697,o),
(630,707,o),
(617,707,cs),
(545,707,ls),
(522,707,o),
(503,698,o),
(487,685,cs),
(177,395,ls),
(176,394,o),
(190,389,o),
(191,392,cs),
(238,662,ls),
(243,688,o),
(227,707,o),
(196,707,cs),
(135,707,ls),
(129,707,o),
(125,703,o),
(123,697,cs),
(7,35,ls),
(2,9,o),
(18,-10,o),
(49,-10,cs),
(110,-10,ls),
(116,-10,o),
(120,-6,o),
(122,0,cs),
(174,300,ls),
(175,303,o),
(159,298,o),
(160,297,cs)
);
}
);
width = 599;
}
);
note = K;
unicode = 75;
},
{
glyphname = L;
lastChange = "2022-10-20 15:42:28 +0000";
layers = (
{
layerId = m01;
shapes = (
{
closed = 1;
nodes = (
(135,707,ls),
(129,707,o),
(125,703,o),
(123,697,cs),
(2,10,ls),
(0,-3,o),
(11,-10,o),
(24,-10,cs),
(354,-10,ls),
(360,-10,o),
(364,-6,o),
(366,0,cs),
(372,39,ls),
(377,65,o),
(361,84,o),
(330,84,cs),
(156,84,ls),
(142,84,o),
(137,90,o),
(141,109,cs),
(238,662,ls),
(243,688,o),
(227,707,o),
(196,707,cs)
);
}
);
width = 432;
}
);
note = L;
unicode = 76;
},
{
glyphname = M;
lastChange = "2022-10-20 15:42:28 +0000";
layers = (
{
layerId = m01;
shapes = (
{
closed = 1;
nodes = (
(1,0,ls),
(0,-6,o),
(3,-10,o),
(9,-10,cs),
(70,-10,ls),
(101,-10,o),
(124,9,o),
(128,35,cs),
(201,449,l),
(316,22,ls),
(321,0,o),
(340,-10,o),
(365,-10,cs),
(371,-10,ls),
(396,-10,o),
(419,0,o),
(432,22,cs),
(696,447,l),
(623,35,ls),
(619,9,o),
(634,-10,o),
(665,-10,cs),
(726,-10,ls),
(732,-10,o),
(737,-6,o),
(738,0,cs),
(860,692,ls),
(861,698,o),
(858,702,o),
(852,702,cs),
(779,702,ls),
(754,702,o),
(731,692,o),
(718,670,cs),
(411,177,ls),
(398,155,o),
(396,155,o),
(391,177,cs),
(258,670,ls),
(253,692,o),
(234,702,o),
(209,702,cs),
(135,702,ls),
(129,702,o),
(124,698,o),
(123,692,cs)
);
}
);
width = 861;
}
);
note = M;
unicode = 77;
},
{
glyphname = N;
lastChange = "2022-10-20 15:42:28 +0000";
layers = (
{
layerId = m01;
shapes = (
{
closed = 1;
nodes = (
(617,708,ls),
(595,708,o),
(580,695,o),
(576,673,cs),
(496,219,ls),
(495,211,o),
(484,206,o),
(480,214,cs),
(254,680,ls),
(247,698,o),
(229,708,o),
(204,708,cs),
(135,708,ls),
(129,708,o),
(125,704,o),
(124,698,cs),
(0,0,ls),
(-1,-6,o),
(3,-10,o),
(9,-10,cs),
(85,-10,ls),
(107,-10,o),
(122,3,o),
(126,25,cs),
(206,480,ls),
(208,488,o),
(218,493,o),
(222,485,cs),
(448,18,ls),
(455,0,o),
(473,-10,o),
(498,-10,cs),
(567,-10,ls),
(573,-10,o),
(577,-6,o),
(578,0,cs),
(702,698,ls),
(703,704,o),
(699,708,o),
(693,708,cs)
);
}
);
width = 703;
}
);
note = N;
unicode = 78;
},
{
glyphname = O;
lastChange = "2022-10-20 15:42:28 +0000";
layers = (
{
layerId = m01;
shapes = (
{
closed = 1;
nodes = (
(796,563,o),
(664,715,o),
(458,715,cs),
(253,715,o),
(66,563,o),
(28,349,cs),
(-10,135,o),
(123,-17,o),
(328,-17,cs),
(534,-17,o),
(720,135,o),
(758,349,cs)
);
},
{
closed = 1;
nodes = (
(181,517,o),
(301,616,o),
(440,616,cs),
(579,616,o),
(665,517,o),
(635,349,cs),
(606,182,o),
(485,82,o),
(346,82,cs),
(207,82,o),
(122,182,o),
(151,349,cs)
);
}
);
width = 786;
}
);
note = O;
unicode = 79;
},
{
glyphname = P;
lastChange = "2022-10-20 15:42:28 +0000";
layers = (
{
layerId = m01;
shapes = (
{
closed = 1;
nodes = (
(188,376,l),
(225,587,ls),
(228,606,o),
(235,612,o),
(249,612,cs),
(348,612,ls),
(444,612,o),
(474,572,o),
(460,493,cs),
(447,417,o),
(403,376,o),
(307,376,cs)
);
},
{
closed = 1;
nodes = (
(604,611,o),
(538,707,o),
(365,707,cs),
(175,707,ls),
(144,707,o),
(122,688,o),
(117,662,cs),
(1,0,ls),
(-1,-6,o),
(3,-10,o),
(9,-10,cs),
(70,-10,ls),
(101,-10,o),
(123,9,o),
(128,35,cs),
(171,281,l),
(290,281,ls),
(473,281,o),
(564,383,o),
(583,493,cs)
);
}
);
width = 579;
}
);
note = P;
unicode = 80;
},
{
glyphname = Q;
lastChange = "2022-10-20 15:42:28 +0000";
layers = (
{
layerId = m01;
shapes = (
{
closed = 1;
nodes = (
(192,517,o),
(312,616,o),
(451,616,cs),
(590,616,o),
(676,517,o),
(646,349,cs),
(617,182,o),
(496,82,o),
(357,82,cs),
(218,82,o),
(133,182,o),
(162,349,cs)
);
},
{
closed = 1;
nodes = (
(807,563,o),
(675,715,o),
(469,715,cs),
(264,715,o),
(77,563,o),
(39,349,cs),
(1,135,o),
(134,-17,o),
(339,-17,cs),
(373,-17,o),
(409,-13,o),
(440,-5,c),
(441,-5,o),
(440,-6,o),
(440,-6,c),
(535,-121,ls),
(546,-134,o),
(562,-142,o),
(585,-142,cs),
(671,-142,ls),
(685,-142,o),
(694,-127,o),
(686,-117,cs),
(554,42,l),
(553,41,ls),
(668,108,o),
(746,219,o),
(769,349,cs)
);
}
);
width = 788;
}
);
note = Q;
unicode = 81;
},
{
glyphname = R;
lastChange = "2022-10-20 15:42:28 +0000";
layers = (
{
layerId = m01;
shapes = (
{
closed = 1;
nodes = (
(447,416,o),
(399,368,o),
(305,368,cs),
(181,368,ls),
(183,368,o),
(186,365,o),
(186,368,cs),
(225,587,ls),
(228,606,o),
(235,612,o),
(249,612,cs),
(348,612,ls),
(444,612,o),
(474,569,o),
(460,492,cs)
);
},
{
closed = 1;
nodes = (
(175,707,ls),
(144,707,o),
(122,688,o),
(117,662,cs),
(1,0,ls),
(-1,-6,o),
(3,-10,o),
(9,-10,cs),
(110,-10,ls),
(116,-10,o),
(120,-6,o),
(122,0,cs),
(170,275,ls),
(171,278,o),
(167,275,o),
(165,275,cs),
(257,275,ls),
(256,275,o),
(254,277,o),
(255,274,c),
(359,19,ls),
(367,2,o),
(384,-10,o),
(409,-10,cs),
(490,-10,ls),
(500,-10,o),
(508,0,o),
(504,9,cs),
(386,287,ls),
(386,289,o),
(383,285,o),
(383,285,c),
(505,317,o),
(569,403,o),
(584,492,cs),
(605,610,o),
(538,707,o),
(365,707,cs)
);
}
);
width = 608;
}
);
note = R;
unicode = 82;
},
{
glyphname = S;
lastChange = "2022-10-20 15:42:28 +0000";
layers = (
{
layerId = m01;
shapes = (
{
closed = 1;
nodes = (
(565,463,o),
(169,351,o),
(198,516,cs),
(211,587,o),
(267,620,o),
(335,618,cs),
(396,617,o),
(426,588,o),
(437,552,cs),
(442,532,o),
(456,517,o),
(484,517,cs),
(558,517,ls),
(564,517,o),
(569,522,o),
(569,528,cs),
(577,638,o),
(498,716,o),
(357,716,cs),
(210,716,o),
(96,633,o),
(75,513,cs),
(26,238,o),
(424,358,o),
(394,186,cs),
(383,123,o),
(331,80,o),
(250,80,cs),
(177,80,o),
(148,113,o),
(141,158,cs),
(138,181,o),
(124,196,o),
(95,196,cs),
(25,196,ls),
(20,196,o),
(14,192,o),
(13,186,cs),
(-6,64,o),
(86,-17,o),
(233,-17,cs),
(393,-17,o),
(499,87,o),
(517,190,cs)
);
}
);
width = 587;
}
);
note = S;
unicode = 83;
},
{
glyphname = T;
lastChange = "2022-10-20 15:42:28 +0000";
layers = (
{
layerId = m01;
shapes = (
{
closed = 1;
nodes = (
(67,623,ls),
(66,617,o),
(70,613,o),
(76,613,cs),
(237,613,ls),
(251,613,o),
(256,607,o),
(252,588,cs),
(149,0,ls),
(147,-6,o),
(151,-10,o),
(157,-10,cs),
(258,-10,ls),
(264,-10,o),
(268,-6,o),
(270,0,cs),
(373,588,ls),
(377,607,o),
(384,613,o),
(398,613,cs),
(558,613,ls),
(564,613,o),
(568,617,o),
(569,623,cs),
(582,697,ls),
(584,703,o),
(580,707,o),
(574,707,cs),
(92,707,ls),
(86,707,o),
(82,703,o),
(80,697,cs)
);
}
);
width = 541;
}
);
note = T;
unicode = 84;
},
{
glyphname = U;
lastChange = "2022-10-20 15:42:28 +0000";
layers = (
{
layerId = m01;
shapes = (
{
closed = 1;
nodes = (
(44,257,ls),
(12,70,o),
(121,-17,o),
(273,-17,cs),
(425,-17,o),
(567,70,o),
(599,257,cs),
(677,697,ls),
(678,703,o),
(675,707,o),
(669,707,cs),
(608,707,ls),
(577,707,o),
(554,688,o),
(550,662,cs),
(478,256,ls),
(456,131,o),
(388,83,o),
(292,83,cs),
(196,83,o),
(143,131,o),
(165,256,cs),
(237,662,ls),
(241,688,o),
(226,707,o),
(195,707,cs),
(134,707,ls),
(128,707,o),
(123,703,o),
(122,697,cs)
);
}
);
width = 675;
}
);
note = U;
unicode = 85;
},
{
glyphname = V;
lastChange = "2022-10-20 15:42:28 +0000";
layers = (
{
layerId = m01;
shapes = (
{
closed = 1;
nodes = (
(322,177,ls),
(314,163,o),
(296,163,o),
(294,177,cs),
(199,686,ls),
(196,700,o),
(185,707,o),
(171,707,cs),
(83,707,ls),
(75,707,o),
(68,700,o),
(69,691,cs),
(204,24,ls),
(208,3,o),
(225,-10,o),
(252,-10,cs),
(297,-10,ls),
(324,-10,o),
(345,3,o),
(357,24,cs),
(726,691,ls),
(731,700,o),
(726,707,o),
(718,707,cs),
(631,707,ls),
(617,707,o),
(604,700,o),
(597,686,cs)
);
}
);
width = 676;
}
);
note = V;
unicode = 86;
},
{
glyphname = W;
lastChange = "2022-10-20 15:42:28 +0000";
layers = (
{
layerId = m01;
shapes = (
{
closed = 1;
nodes = (
(139,26,ls),
(141,2,o),
(159,-11,o),
(186,-11,cs),
(226,-10,ls),
(254,-10,o),
(276,5,o),
(285,26,cs),
(503,484,ls),
(506,492,o),
(518,492,o),
(519,484,cs),
(569,26,ls),
(572,3,o),
(590,-10,o),
(617,-10,cs),
(657,-10,ls),
(684,-10,o),
(706,3,o),
(717,26,cs),
(1028,693,ls),
(1031,700,o),
(1027,707,o),
(1019,707,cs),
(931,707,ls),
(916,707,o),
(902,698,o),
(895,682,cs),
(683,197,ls),
(680,189,o),
(667,189,o),
(666,197,cs),
(622,670,ls),
(620,692,o),
(601,707,o),
(574,707,cs),
(534,707,ls),
(506,707,o),
(485,692,o),
(475,670,cs),
(254,191,ls),
(251,182,o),
(238,183,o),
(237,191,cs),
(198,682,ls),
(197,698,o),
(185,707,o),
(170,707,cs),
(83,707,ls),
(75,707,o),
(69,700,o),
(70,693,cs)
);
}
);
width = 976;
}
);
note = W;
unicode = 87;
},
{
glyphname = X;
lastChange = "2022-10-20 15:42:28 +0000";
layers = (
{
layerId = m01;
shapes = (
{
closed = 1;
nodes = (
(394,3,l),
(399,-5,o),
(408,-10,o),
(418,-10,cs),
(499,-10,ls),
(512,-10,o),
(532,-3,o),
(524,17,cs),
(387,329,ls),
(381,342,o),
(383,354,o),
(393,367,cs),
(641,680,ls),
(657,700,o),
(639,707,o),
(626,707,cs),
(546,707,ls),
(536,707,o),
(525,702,o),
(518,694,c),
(347,470,ls),
(333,452,o),
(332,451,o),
(324,469,cs),
(226,694,l),
(221,702,o),
(212,707,o),
(202,707,cs),
(122,707,ls),
(109,707,o),
(89,700,o),
(97,680,cs),
(234,367,ls),
(240,354,o),
(238,342,o),
(228,329,cs),
(-18,17,ls),
(-34,-3,o),
(-16,-10,o),
(-3,-10,cs),
(76,-10,ls),
(86,-10,o),
(97,-5,o),
(104,3,c),
(273,226,ls),
(288,244,o),
(289,245,o),
(297,227,cs)
);
}
);
width = 621;
}
);
note = X;
unicode = 88;
},
{
glyphname = Y;
lastChange = "2022-10-20 15:42:28 +0000";
layers = (
{
layerId = m01;
shapes = (
{
closed = 1;
nodes = (
(211,278,ls),
(215,267,o),
(216,255,o),
(213,240,cs),
(172,10,ls),
(170,-3,o),
(181,-10,o),
(194,-10,cs),
(265,-10,ls),
(278,-10,o),
(291,-3,o),
(293,10,cs),
(334,240,ls),
(337,255,o),
(342,267,o),
(350,278,cs),
(632,681,l),
(642,698,o),
(631,707,o),
(615,707,cs),
(535,707,ls),
(525,707,o),
(511,702,o),
(507,694,c),
(313,399,ls),
(306,388,o),
(292,388,o),
(289,399,cs),
(199,694,l),
(197,702,o),
(185,707,o),
(175,707,cs),
(95,707,ls),
(79,707,o),
(66,698,o),
(70,681,c)
);
}
);
width = 584;
}
);
note = Y;
unicode = 89;
},
{
glyphname = Z;
lastChange = "2022-10-20 15:42:28 +0000";
layers = (
{
layerId = m01;
shapes = (
{
closed = 1;
nodes = (
(567,687,ls),
(569,700,o),
(558,707,o),
(545,707,cs),
(108,707,ls),
(102,707,o),
(98,703,o),
(96,697,cs),
(89,653,ls),
(84,627,o),
(100,608,o),
(131,608,cs),
(408,608,l),
(-11,81,ls),
(-14,77,o),
(-18,70,o),
(-19,65,cs),
(-29,10,ls),
(-31,-3,o),
(-20,-10,o),
(-7,-10,cs),
(436,-10,ls),
(442,-10,o),
(446,-6,o),
(448,0,cs),
(455,44,ls),
(460,70,o),
(444,89,o),
(413,89,cs),
(130,89,l),
(549,616,ls),
(552,620,o),
(556,627,o),
(557,632,cs)
);
}
);
width = 541;
}
);
note = Z;
unicode = 90;
},
{
glyphname = bracketleft;
lastChange = "2022-10-20 15:42:28 +0000";
layers = (
{
layerId = m01;
shapes = (
{
closed = 1;
nodes = (
(19,-186,ls),
(18,-192,o),
(21,-196,o),
(27,-196,cs),
(217,-196,ls),
(223,-196,o),
(228,-192,o),
(229,-186,cs),
(243,-110,ls),
(244,-104,o),
(240,-100,o),
(234,-100,cs),
(184,-100,ls),
(162,-100,o),
(152,-87,o),
(156,-65,cs),
(311,814,ls),
(314,836,o),
(330,849,o),
(352,849,cs),
(402,849,ls),
(408,849,o),
(412,853,o),
(414,859,cs),
(427,934,ls),
(428,940,o),
(425,944,o),
(419,944,cs),
(229,944,ls),
(223,944,o),
(218,940,o),
(217,934,cs)
);
}
);
width = 423;
}
);
note = bracketleft;
unicode = 91;
},
{
glyphname = backslash;
lastChange = "2022-10-20 15:42:28 +0000";
layers = (
{
layerId = m01;
shapes = (
{
closed = 1;
nodes = (
(319,942,l),
(229,942,l),
(346,-170,l),
(436,-170,l)
);
}
);
width = 658;
}
);
note = backslash;
unicode = 92;
},
{
glyphname = bracketright;
lastChange = "2022-10-20 15:42:28 +0000";
layers = (
{
layerId = m01;
shapes = (
{
closed = 1;
nodes = (
(428,940,o),
(425,944,o),
(419,944,cs),
(229,944,ls),
(223,944,o),
(218,940,o),
(217,934,cs),
(204,859,ls),
(202,853,o),
(206,849,o),
(212,849,cs),
(262,849,ls),
(284,849,o),
(294,836,o),
(291,814,cs),
(136,-65,ls),
(132,-87,o),
(116,-100,o),
(94,-100,cs),
(44,-100,ls),
(38,-100,o),
(34,-104,o),
(33,-110,cs),
(19,-186,ls),
(18,-192,o),
(21,-196,o),
(27,-196,cs),
(217,-196,ls),
(223,-196,o),
(228,-192,o),
(229,-186,cs),
(427,934,ls)
);
}
);
width = 423;
}
);
note = bracketright;
unicode = 93;
},
{
glyphname = asciicircum;
lastChange = "2022-10-20 15:42:28 +0000";
layers = (
{
layerId = m01;
shapes = (
{
closed = 1;
nodes = (
(435,175,l),
(437,163,o),
(450,159,o),
(458,159,cs),
(532,159,ls),
(545,159,o),
(563,166,o),
(559,185,cs),
(425,671,ls),
(420,691,o),
(401,703,o),
(376,703,cs),
(349,703,ls),
(324,703,o),
(301,693,o),
(288,671,cs),
(-15,185,ls),
(-27,166,o),
(-11,159,o),
(2,159,cs),
(75,159,ls),
(83,159,o),
(98,163,o),
(104,175,c),
(322,522,ls),
(329,534,o),
(339,534,o),
(342,522,cs)
);
}
);
width = 629;
}
);
note = asciicircum;
unicode = 94;
},
{
glyphname = underscore;
lastChange = "2022-10-20 15:42:28 +0000";
layers = (
{
layerId = m01;
shapes = (
{
closed = 1;
nodes = (
(83,-122,ls),
(82,-128,o),
(85,-132,o),
(91,-132,cs),
(633,-132,ls),
(639,-132,o),
(644,-128,o),
(645,-122,cs),
(659,-38,ls),
(660,-32,o),
(657,-28,o),
(651,-28,cs),
(109,-28,ls),
(103,-28,o),
(98,-32,o),
(97,-38,cs)
);
}
);
width = 733;
}
);
note = underscore;
unicode = 95;
},
{
glyphname = grave;
lastChange = "2022-10-20 15:42:28 +0000";
layers = (
{
layerId = m01;
shapes = (
{
closed = 1;
nodes = (
(6,706,ls),
(5,701,o),
(6,696,o),
(10,694,cs),
(213,574,ls),
(220,570,o),
(225,574,o),
(227,581,cs),
(239,653,ls),
(240,658,o),
(238,662,o),
(234,665,cs),
(34,797,ls),
(27,801,o),
(22,798,o),
(20,790,cs)
);
}
);
width = 257;
}
);
note = grave;
unicode = 96;
},
{
glyphname = a;
lastChange = "2022-10-20 15:42:28 +0000";
layers = (
{
layerId = m01;
shapes = (
{
closed = 1;
nodes = (
(451,34,ls),
(446,8,o),
(462,-11,o),
(493,-11,cs),
(539,-11,ls),
(552,-11,o),
(565,-4,o),
(567,9,cs),
(658,523,ls),
(662,549,o),
(647,568,o),
(616,568,cs),
(570,568,ls),
(557,568,o),
(544,561,o),
(541,548,cs),
(531,487,l),
(497,530,o),
(438,566,o),
(354,566,cs),
(197,566,o),
(58,446,o),
(27,271,cs),
(-4,95,o),
(94,-20,o),
(251,-20,cs),
(335,-20,o),
(406,14,o),
(455,57,c)
);
},
{
closed = 1;
nodes = (
(151,395,o),
(246,469,o),
(343,469,cs),
(438,469,o),
(510,396,o),
(488,272,cs),
(466,150,o),
(369,76,o),
(274,76,cs),
(177,76,o),
(108,147,o),
(129,271,cs)
);
}
);
width = 676;
}
);
note = a;
unicode = 97;
},
{
glyphname = b;
lastChange = "2022-10-20 15:42:28 +0000";
layers = (
{
layerId = m01;
shapes = (
{
closed = 1;
nodes = (
(162,14,o),
(221,-20,o),
(305,-20,cs),
(462,-20,o),
(600,95,o),
(631,271,cs),
(662,446,o),
(565,566,o),
(408,566,cs),
(324,566,o),
(253,530,o),
(205,487,c),
(247,730,ls),
(250,743,o),
(239,750,o),
(226,750,cs),
(180,750,ls),
(149,750,o),
(127,731,o),
(122,705,cs),
(-1,9,ls),
(-3,-4,o),
(8,-11,o),
(21,-11,cs),
(67,-11,ls),
(98,-11,o),
(120,8,o),
(125,34,cs),
(129,57,l)
);
},
{
closed = 1;
nodes = (
(493,150,o),
(408,86,o),
(318,86,cs),
(230,86,o),
(166,153,o),
(187,272,cs),
(208,393,o),
(296,459,o),
(384,459,cs),
(474,459,o),
(536,392,o),
(514,271,cs)
);
}
);
width = 676;
}
);
note = b;
unicode = 98;
},
{
glyphname = c;
lastChange = "2022-10-20 15:42:28 +0000";
layers = (
{
layerId = m01;
shapes = (
{
closed = 1;
nodes = (
(-3,96,o),
(93,-19,o),
(258,-19,cs),
(397,-19,o),
(505,57,o),
(554,162,cs),
(562,179,o),
(548,186,o),
(535,186,cs),
(479,186,ls),
(452,186,o),
(432,173,o),
(418,152,cs),
(386,103,o),
(339,78,o),
(275,78,cs),
(182,78,o),
(128,142,o),
(151,275,cs),
(174,406,o),
(252,470,o),
(345,470,cs),
(409,470,o),
(446,444,o),
(463,396,c),
(468,375,o),
(484,362,o),
(511,362,cs),
(567,362,ls),
(580,362,o),
(596,369,o),
(594,386,cs),
(582,497,o),
(501,567,o),
(362,567,cs),
(197,567,o),
(59,452,o),
(28,275,cs)
);
}
);
width = 607;
}
);
note = c;
unicode = 99;
},
{
glyphname = d;
lastChange = "2022-10-20 15:42:28 +0000";
layers = (
{
layerId = m01;
shapes = (
{
closed = 1;
nodes = (
(435,34,ls),
(430,8,o),
(446,-11,o),
(477,-11,cs),
(523,-11,ls),
(536,-11,o),
(549,-4,o),
(551,9,cs),
(674,705,ls),
(679,731,o),
(663,750,o),
(632,750,cs),
(586,750,ls),
(573,750,o),
(560,743,o),
(557,730,cs),
(515,487,l),
(481,530,o),
(422,566,o),
(338,566,cs),
(181,566,o),
(42,446,o),
(11,271,cs),
(-20,95,o),
(78,-20,o),
(235,-20,cs),
(319,-20,o),
(390,14,o),
(439,57,c)
);
},
{
closed = 1;
nodes = (
(150,392,o),
(236,459,o),
(326,459,cs),
(414,459,o),
(478,393,o),
(457,272,cs),
(436,153,o),
(348,86,o),
(260,86,cs),
(170,86,o),
(107,150,o),
(128,271,cs)
);
}
);
width = 676;
}
);
note = d;
unicode = 100;
},
{
glyphname = e;
lastChange = "2022-10-20 15:42:28 +0000";
layers = (
{
layerId = m01;
shapes = (
{
closed = 1;
nodes = (
(428,470,o),
(486,423,o),
(478,330,cs),
(477,327,o),
(474,324,o),
(471,324,cs),
(168,324,ls),
(165,324,o),
(162,327,o),
(164,330,c),
(196,423,o),
(267,470,o),
(345,470,cs)
);
},
{
closed = 1;
nodes = (
(480,179,ls),
(452,179,o),
(434,165,o),
(421,148,cs),
(388,103,o),
(342,78,o),
(279,78,cs),
(197,78,o),
(140,127,o),
(144,224,cs),
(144,227,o),
(147,230,o),
(150,230,cs),
(556,230,ls),
(566,230,o),
(581,235,o),
(585,248,cs),
(589,265,o),
(593,278,o),
(596,295,cs),
(623,449,o),
(535,567,o),
(366,567,cs),
(197,567,o),
(60,453,o),
(28,275,cs),
(-3,96,o),
(97,-19,o),
(262,-19,cs),
(412,-19,o),
(524,71,o),
(567,179,c)
);
}
);
width = 620;
}
);
note = e;
unicode = 101;
},
{
glyphname = f;
lastChange = "2022-10-20 15:42:28 +0000";
layers = (
{
layerId = m01;
shapes = (
{
closed = 1;
nodes = (
(12,0,ls),
(11,-6,o),
(14,-10,o),
(20,-10,cs),
(121,-10,ls),
(127,-10,o),
(132,-6,o),
(133,0,cs),
(213,458,ls),
(214,461,o),
(216,463,o),
(219,463,cs),
(324,463,ls),
(327,463,o),
(330,465,o),
(330,468,cs),
(345,553,ls),
(346,556,o),
(344,558,o),
(341,558,cs),
(236,558,ls),
(233,558,o),
(231,560,o),
(232,563,cs),
(236,587,ls),
(246,645,o),
(266,669,o),
(313,676,cs),
(344,680,o),
(364,695,o),
(369,722,cs),
(375,754,ls),
(377,767,o),
(366,774,o),
(353,774,cs),
(214,771,o),
(138,714,o),
(115,587,cs),
(111,563,ls),
(110,560,o),
(108,558,o),
(105,558,cs),
(44,558,ls),
(41,558,o),
(39,556,o),
(38,553,cs),
(23,468,ls),
(23,465,o),
(24,463,o),
(27,463,cs),
(73,463,ls),
(87,463,o),
(92,457,o),
(89,438,cs)
);
}
);
width = 329;
}
);
note = f;
unicode = 102;
},
{
glyphname = g;
lastChange = "2022-10-20 15:42:28 +0000";
layers = (
{
layerId = m01;
shapes = (
{
closed = 1;
nodes = (
(197,78,o),
(130,150,o),
(152,276,cs),
(175,402,o),
(267,471,o),
(366,471,cs),
(463,471,o),
(532,399,o),
(510,275,cs),
(488,149,o),
(393,78,o),
(296,78,cs)
);
},
{
closed = 1;
nodes = (
(615,558,ls),
(584,558,o),
(562,539,o),
(557,513,cs),
(553,490,l),
(520,533,o),
(461,567,o),
(377,567,cs),
(220,567,o),
(81,452,o),
(50,276,cs),
(19,101,o),
(116,-19,o),
(273,-19,cs),
(357,-19,o),
(429,17,o),
(477,60,c),
(467,0,ls),
(447,-114,o),
(372,-169,o),
(282,-169,cs),
(202,-169,o),
(152,-133,o),
(141,-72,cs),
(139,-64,o),
(127,-58,o),
(117,-58,cs),
(20,-58,l),
(11,-185,o),
(108,-268,o),
(264,-268,cs),
(435,-268,o),
(560,-155,o),
(588,0,cs),
(683,538,ls),
(685,551,o),
(674,558,o),
(661,558,cs)
);
}
);
width = 676;
}
);
note = g;
unicode = 103;
},
{
glyphname = h;
lastChange = "2022-10-20 15:42:28 +0000";
layers = (
{
layerId = m01;
shapes = (
{
closed = 1;
nodes = (
(402,25,ls),
(398,1,o),
(415,-10,o),
(436,-10,cs),
(506,-10,ls),
(512,-10,o),
(517,-6,o),
(518,0,cs),
(575,323,ls),
(603,485,o),
(515,568,o),
(379,568,cs),
(316,568,o),
(254,547,o),
(208,509,c),
(244,715,ls),
(248,739,o),
(231,750,o),
(210,750,cs),
(139,750,ls),
(133,750,o),
(128,746,o),
(127,740,cs),
(-3,0,ls),
(-4,-6,o),
(-1,-10,o),
(5,-10,cs),
(106,-10,ls),
(112,-10,o),
(117,-6,o),
(118,0,cs),
(171,303,ls),
(191,418,o),
(256,469,o),
(342,469,cs),
(427,469,o),
(472,419,o),
(452,310,cs)
);
}
);
width = 640;
}
);
note = h;
unicode = 104;
},
{
glyphname = i;
lastChange = "2022-10-20 15:42:28 +0000";
layers = (
{
layerId = m01;
shapes = (
{
closed = 1;
nodes = (
(2,25,ls),
(-3,1,o),
(14,-10,o),
(35,-10,cs),
(106,-10,ls),
(112,-10,o),
(117,-6,o),
(118,0,cs),
(210,523,ls),
(215,547,o),
(198,558,o),
(177,558,cs),
(106,558,ls),
(100,558,o),
(95,554,o),
(94,548,cs)
);
},
{
closed = 1;
nodes = (
(207,613,o),
(241,642,o),
(248,679,cs),
(254,716,o),
(231,745,o),
(191,745,cs),
(150,745,o),
(114,715,o),
(108,679,cs),
(102,643,o),
(126,613,o),
(167,613,cs)
);
}
);
width = 246;
}
);
note = i;
unicode = 105;
},
{
glyphname = j;
lastChange = "2022-10-20 15:42:28 +0000";
layers = (
{
layerId = m01;
shapes = (
{
closed = 1;
nodes = (
(132,558,ls),
(126,558,o),
(121,554,o),
(120,548,cs),
(3,-117,ls),
(-6,-168,o),
(-22,-177,o),
(-82,-172,cs),
(-96,-171,o),
(-115,-178,o),
(-118,-196,cs),
(-131,-270,l),
(-63,-270,ls),
(39,-270,o),
(105,-223,o),
(123,-119,cs),
(235,513,ls),
(239,539,o),
(224,558,o),
(193,558,cs)
);
},
{
closed = 1;
nodes = (
(233,612,o),
(267,641,o),
(274,678,cs),
(280,715,o),
(256,744,o),
(216,744,cs),
(175,744,o),
(140,714,o),
(134,678,cs),
(127,642,o),
(152,612,o),
(193,612,cs)
);
}
);
width = 248;
}
);
note = j;
unicode = 106;
},
{
glyphname = k;
lastChange = "2022-10-20 15:42:28 +0000";
layers = (
{
layerId = m01;
shapes = (
{
closed = 1;
nodes = (
(3,35,ls),
(-2,9,o),
(14,-10,o),
(45,-10,cs),
(106,-10,ls),
(112,-10,o),
(117,-6,o),
(118,0,cs),
(157,223,ls),
(158,227,o),
(144,220,o),
(143,221,cs),
(300,1,l),
(304,-6,o),
(315,-10,o),
(323,-10,cs),
(423,-10,ls),
(435,-10,o),
(459,-3,o),
(444,19,cs),
(249,275,l),
(252,277,l),
(566,558,l),
(438,558,ls),
(415,558,o),
(395,549,o),
(380,535,cs),
(161,326,ls),
(162,327,o),
(174,320,o),
(175,324,cs),
(242,705,ls),
(247,731,o),
(231,750,o),
(200,750,cs),
(139,750,ls),
(133,750,o),
(128,746,o),
(127,740,cs)
);
}
);
width = 515;
}
);
note = k;
unicode = 107;
},
{
glyphname = l;
lastChange = "2022-10-20 15:42:28 +0000";
layers = (
{
layerId = m01;
shapes = (
{
closed = 1;
nodes = (
(3,35,ls),
(-2,9,o),
(14,-10,o),
(45,-10,cs),
(106,-10,ls),
(112,-10,o),
(117,-6,o),
(118,0,cs),
(248,740,ls),
(249,746,o),
(246,750,o),
(240,750,cs),
(139,750,ls),
(133,750,o),
(128,746,o),
(127,740,cs)
);
}
);
width = 246;
}
);
note = l;
unicode = 108;
},
{
glyphname = m;
lastChange = "2022-10-20 15:42:28 +0000";
layers = (
{
layerId = m01;
shapes = (
{
closed = 1;
nodes = (
(709,570,o),
(636,558,o),
(558,516,c),
(550,536,o),
(481,570,o),
(395,570,cs),
(332,570,o),
(270,549,o),
(224,511,c),
(224,515,ls),
(229,541,o),
(213,560,o),
(182,560,cs),
(121,560,ls),
(115,560,o),
(110,556,o),
(109,550,cs),
(13,2,ls),
(12,-4,o),
(15,-8,o),
(21,-8,cs),
(122,-8,ls),
(128,-8,o),
(133,-4,o),
(134,2,cs),
(187,305,ls),
(208,420,o),
(273,471,o),
(359,471,cs),
(444,471,o),
(488,421,o),
(468,312,cs),
(418,27,ls),
(414,3,o),
(431,-8,o),
(452,-8,cs),
(522,-8,ls),
(528,-8,o),
(533,-4,o),
(534,2,cs),
(586,299,ls),
(607,415,o),
(665,471,o),
(750,471,cs),
(835,471,o),
(879,421,o),
(859,312,cs),
(809,27,ls),
(805,3,o),
(822,-8,o),
(843,-8,cs),
(913,-8,ls),
(919,-8,o),
(924,-4,o),
(925,2,cs),
(982,325,ls),
(1010,487,o),
(922,570,o),
(786,570,cs)
);
}
);
width = 1030;
}
);
note = m;
unicode = 109;
},
{
glyphname = n;
lastChange = "2022-10-20 15:42:28 +0000";
layers = (
{
layerId = m01;
shapes = (
{
closed = 1;
nodes = (
(418,25,ls),
(414,1,o),
(431,-10,o),
(452,-10,cs),
(522,-10,ls),
(528,-10,o),
(533,-6,o),
(534,0,cs),
(591,323,ls),
(619,485,o),
(531,568,o),
(395,568,cs),
(332,568,o),
(270,547,o),
(224,509,c),
(226,523,ls),
(230,547,o),
(213,558,o),
(192,558,cs),
(121,558,ls),
(115,558,o),
(110,554,o),
(109,548,cs),
(13,0,ls),
(12,-6,o),
(15,-10,o),
(21,-10,cs),
(122,-10,ls),
(128,-10,o),
(133,-6,o),
(134,0,cs),
(187,303,ls),
(208,418,o),
(273,469,o),
(359,469,cs),
(444,469,o),
(488,419,o),
(468,310,cs)
);
}
);
width = 640;
}
);
note = n;
unicode = 110;
},
{
glyphname = o;
lastChange = "2022-10-20 15:42:28 +0000";
layers = (
{
layerId = m01;
shapes = (
{
closed = 1;
nodes = (
(644,453,o),
(537,567,o),
(372,567,cs),
(208,567,o),
(60,453,o),
(28,275,cs),
(-3,96,o),
(100,-19,o),
(264,-19,cs),
(429,-19,o),
(581,96,o),
(612,275,cs)
);
},
{
closed = 1;
nodes = (
(175,409,o),
(263,468,o),
(353,468,cs),
(441,468,o),
(513,409,o),
(489,275,cs),
(465,140,o),
(371,81,o),
(282,81,cs),
(193,81,o),
(127,139,o),
(151,275,cs)
);
}
);
width = 640;
}
);
note = o;
unicode = 111;
},
{
glyphname = p;
lastChange = "2022-10-20 15:42:28 +0000";
layers = (
{
layerId = m01;
shapes = (
{
closed = 1;
nodes = (
(247,513,ls),
(252,539,o),
(236,558,o),
(205,558,cs),
(144,558,ls),
(138,558,o),
(134,554,o),
(132,548,cs),
(-4,-225,ls),
(-8,-251,o),
(7,-270,o),
(38,-270,cs),
(99,-270,ls),
(105,-270,o),
(110,-266,o),
(111,-260,cs),
(167,60,l),
(201,17,o),
(259,-19,o),
(343,-19,cs),
(500,-19,o),
(640,101,o),
(670,276,cs),
(702,452,o),
(604,567,o),
(447,567,cs),
(363,567,o),
(292,533,o),
(243,490,c)
);
},
{
closed = 1;
nodes = (
(532,155,o),
(446,88,o),
(356,88,cs),
(268,88,o),
(204,154,o),
(225,275,cs),
(246,394,o),
(334,461,o),
(422,461,cs),
(512,461,o),
(575,397,o),
(553,276,cs)
);
}
);
width = 676;
}
);
note = p;
unicode = 112;
},
{
glyphname = q;
lastChange = "2022-10-20 15:42:28 +0000";
layers = (
{
layerId = m01;
shapes = (
{
closed = 1;
nodes = (
(520,533,o),
(461,567,o),
(377,567,cs),
(220,567,o),
(82,452,o),
(50,276,cs),
(20,101,o),
(116,-19,o),
(273,-19,cs),
(357,-19,o),
(429,17,o),
(477,60,c),
(421,-260,ls),
(420,-266,o),
(423,-270,o),
(429,-270,cs),
(490,-270,ls),
(521,-270,o),
(544,-251,o),
(548,-225,cs),
(684,548,ls),
(686,554,o),
(682,558,o),
(676,558,cs),
(615,558,ls),
(584,558,o),
(562,539,o),
(557,513,cs),
(553,490,l)
);
},
{
closed = 1;
nodes = (
(189,397,o),
(274,461,o),
(364,461,cs),
(452,461,o),
(516,394,o),
(495,275,cs),
(474,154,o),
(386,88,o),
(298,88,cs),
(208,88,o),
(146,155,o),
(167,276,cs)
);
}
);
width = 676;
}
);
note = q;
unicode = 113;
},
{
glyphname = r;
lastChange = "2022-10-20 15:42:28 +0000";
layers = (
{
layerId = m01;
shapes = (
{
closed = 1;
nodes = (
(417,555,ls),
(419,562,o),
(416,568,o),
(409,568,cs),
(343,568,o),
(273,547,o),
(223,508,c),
(226,523,ls),
(230,547,o),
(213,558,o),
(192,558,cs),
(121,558,ls),
(115,558,o),
(110,554,o),
(109,548,cs),
(13,0,ls),
(12,-6,o),
(15,-10,o),
(21,-10,cs),
(122,-10,ls),
(128,-10,o),
(133,-6,o),
(134,0,cs),
(187,303,ls),
(205,405,o),
(265,449,o),
(339,458,cs),
(367,462,o),
(387,476,o),
(396,499,cs)
);
}
);
width = 373;
}
);
note = r;
unicode = 114;
},
{
glyphname = s;
lastChange = "2022-10-20 15:42:28 +0000";
layers = (
{
layerId = m01;
shapes = (
{
closed = 1;
nodes = (
(497,359,o),
(166,288,o),
(187,404,cs),
(194,445,o),
(231,470,o),
(291,470,cs),
(344,470,o),
(370,449,o),
(378,412,cs),
(383,392,o),
(394,375,o),
(424,375,cs),
(488,375,ls),
(494,375,o),
(500,380,o),
(501,386,cs),
(514,497,o),
(439,567,o),
(311,567,cs),
(180,567,o),
(82,493,o),
(66,404,cs),
(27,186,o),
(364,257,o),
(345,149,cs),
(338,107,o),
(300,78,o),
(235,78,cs),
(178,78,o),
(148,99,o),
(138,135,cs),
(132,156,o),
(120,171,o),
(92,171,cs),
(25,171,ls),
(19,171,o),
(13,167,o),
(12,160,cs),
(0,56,o),
(84,-19,o),
(219,-19,cs),
(349,-19,o),
(447,54,o),
(464,149,cs)
);
}
);
width = 522;
}
);
note = s;
unicode = 115;
},
{
glyphname = t;
lastChange = "2022-10-20 15:42:28 +0000";
layers = (
{
layerId = m01;
shapes = (
{
closed = 1;
nodes = (
(48,150,ls),
(28,34,o),
(82,-10,o),
(187,-10,cs),
(284,-10,l),
(293,42,ls),
(298,68,o),
(282,87,o),
(251,87,cs),
(219,87,ls),
(170,87,o),
(160,99,o),
(169,150,cs),
(224,463,ls),
(225,466,o),
(221,463,o),
(219,463,cs),
(357,463,ls),
(363,463,o),
(368,467,o),
(369,473,cs),
(382,548,ls),
(383,554,o),
(380,558,o),
(374,558,cs),
(236,558,ls),
(238,558,o),
(240,555,o),
(241,558,cs),
(263,686,ls),
(265,692,o),
(261,696,o),
(255,696,cs),
(154,696,ls),
(148,696,o),
(144,692,o),
(142,686,cs),
(124,583,ls),
(121,564,o),
(114,558,o),
(100,558,cs),
(59,558,ls),
(53,558,o),
(48,554,o),
(47,548,cs),
(36,483,ls),
(33,470,o),
(44,463,o),
(57,463,cs),
(108,463,ls),
(106,463,o),
(104,466,o),
(103,463,cs)
);
}
);
width = 364;
}
);
note = t;
unicode = 116;
},
{
glyphname = u;
lastChange = "2022-10-20 15:42:28 +0000";
layers = (
{
layerId = m01;
shapes = (
{
closed = 1;
nodes = (
(227,534,ls),
(231,558,o),
(214,569,o),
(193,569,cs),
(123,569,ls),
(117,569,o),
(112,565,o),
(111,559,cs),
(54,236,ls),
(26,74,o),
(114,-9,o),
(250,-9,cs),
(313,-9,o),
(375,12,o),
(421,50,c),
(421,46,ls),
(416,20,o),
(432,1,o),
(463,1,cs),
(524,1,ls),
(530,1,o),
(535,5,o),
(536,11,cs),
(632,559,ls),
(633,565,o),
(630,569,o),
(624,569,cs),
(523,569,ls),
(517,569,o),
(512,565,o),
(511,559,cs),
(458,256,ls),
(437,141,o),
(372,90,o),
(286,90,cs),
(201,90,o),
(157,140,o),
(177,249,cs)
);
}
);
width = 640;
}
);
note = u;
unicode = 117;
},
{
glyphname = v;
lastChange = "2022-10-20 15:42:28 +0000";
layers = (
{
layerId = m01;
shapes = (
{
closed = 1;
nodes = (
(60,558,ls),
(52,558,o),
(45,551,o),
(46,542,cs),
(158,23,ls),
(162,2,o),
(181,-10,o),
(207,-10,cs),
(253,-10,ls),
(279,-10,o),
(302,2,o),
(314,23,cs),
(608,542,ls),
(613,551,o),
(608,558,o),
(600,558,cs),
(531,558,ls),
(504,558,o),
(483,545,o),
(471,523,cs),
(276,164,ls),
(268,149,o),
(250,149,o),
(248,164,cs),
(178,523,ls),
(174,545,o),
(157,558,o),
(130,558,cs)
);
}
);
width = 561;
}
);
note = v;
unicode = 118;
},
{
glyphname = w;
lastChange = "2022-10-20 15:42:28 +0000";
layers = (
{
layerId = m01;
shapes = (
{
closed = 1;
nodes = (
(59,558,ls),
(51,558,o),
(46,551,o),
(46,543,cs),
(118,24,ls),
(121,2,o),
(136,-10,o),
(159,-10,cs),
(196,-10,ls),
(219,-10,o),
(240,2,o),
(249,24,c),
(420,372,ls),
(424,380,o),
(436,380,o),
(436,372,cs),
(484,24,ls),
(487,2,o),
(502,-10,o),
(525,-10,cs),
(562,-10,ls),
(585,-10,o),
(606,2,o),
(615,24,c),
(870,543,ls),
(874,551,o),
(870,558,o),
(862,558,cs),
(805,558,ls),
(784,558,o),
(764,548,o),
(753,523,cs),
(583,161,ls),
(580,153,o),
(568,153,o),
(567,161,cs),
(523,523,ls),
(521,546,o),
(506,557,o),
(487,558,cs),
(484,558,l),
(438,558,l),
(432,558,l),
(414,555,o),
(397,544,o),
(387,523,cs),
(217,161,ls),
(214,153,o),
(202,153,o),
(201,161,cs),
(157,523,ls),
(155,547,o),
(138,558,o),
(117,558,cs)
);
}
);
width = 820;
}
);
note = w;
unicode = 119;
},
{
glyphname = x;
lastChange = "2022-10-20 15:42:28 +0000";
layers = (
{
layerId = m01;
shapes = (
{
closed = 1;
nodes = (
(299,1,ls),
(302,-5,o),
(311,-10,o),
(321,-10,cs),
(402,-10,ls),
(420,-10,o),
(433,0,o),
(426,17,cs),
(315,258,ls),
(309,271,o),
(311,283,o),
(321,295,cs),
(515,531,ls),
(528,548,o),
(519,558,o),
(501,558,cs),
(428,558,ls),
(418,558,o),
(407,553,o),
(400,545,c),
(277,389,ls),
(263,371,o),
(262,372,o),
(254,389,cs),
(180,547,ls),
(177,553,o),
(168,558,o),
(158,558,cs),
(77,558,ls),
(59,558,o),
(46,548,o),
(53,531,cs),
(164,290,l),
(171,278,o),
(169,266,o),
(158,254,cs),
(-37,17,ls),
(-50,0,o),
(-41,-10,o),
(-23,-10,cs),
(50,-10,ls),
(60,-10,o),
(71,-5,o),
(78,3,c),
(202,160,ls),
(216,178,o),
(217,178,o),
(225,160,cs)
);
}
);
width = 479;
}
);
note = x;
unicode = 120;
},
{
glyphname = y;
lastChange = "2022-10-20 15:42:28 +0000";
layers = (
{
layerId = m01;
shapes = (
{
closed = 1;
nodes = (
(305,180,ls),
(298,166,o),
(280,166,o),
(277,180,cs),
(199,552,ls),
(198,556,o),
(196,558,o),
(192,558,cs),
(83,558,ls),
(74,558,o),
(67,550,o),
(69,542,cs),
(193,6,l),
(42,-252,ls),
(38,-260,o),
(41,-268,o),
(50,-268,cs),
(151,-268,ls),
(154,-268,o),
(159,-266,o),
(160,-262,cs),
(632,542,ls),
(636,550,o),
(633,558,o),
(624,558,cs),
(522,558,ls),
(518,558,o),
(514,556,o),
(513,552,cs)
);
}
);
width = 563;
}
);
note = y;
unicode = 121;
},
{
glyphname = z;
lastChange = "2022-10-20 15:42:28 +0000";
layers = (
{
layerId = m01;
shapes = (
{
closed = 1;
nodes = (
(474,538,ls),
(476,551,o),
(465,558,o),
(452,558,cs),
(88,558,ls),
(82,558,o),
(77,554,o),
(76,548,cs),
(69,509,ls),
(65,483,o),
(81,464,o),
(112,464,cs),
(326,464,ls),
(323,464,o),
(321,468,o),
(321,468,c),
(-3,84,l),
(-5,80,o),
(-9,73,o),
(-10,68,cs),
(-21,10,ls),
(-23,-3,o),
(-12,-10,o),
(1,-10,cs),
(369,-10,ls),
(375,-10,o),
(380,-6,o),
(381,0,cs),
(388,40,ls),
(392,66,o),
(377,85,o),
(346,85,cs),
(127,85,ls),
(130,85,o),
(131,81,o),
(131,81,c),
(456,465,l),
(458,469,o),
(463,476,o),
(463,481,cs)
);
}
);
width = 455;
}
);
note = z;
unicode = 122;
},
{
glyphname = braceleft;
lastChange = "2022-10-20 15:42:28 +0000";
layers = (
{
layerId = m01;
shapes = (
{
closed = 1;
nodes = (
(168,155,o),
(129,46,o),
(114,-39,cs),
(97,-137,o),
(149,-187,o),
(237,-187,cs),
(295,-187,l),
(309,-108,l),
(268,-108,ls),
(218,-108,o),
(195,-87,o),
(204,-33,cs),
(218,43,o),
(256,153,o),
(271,236,cs),
(283,304,o),
(260,356,o),
(187,373,c),
(187,375,l),
(266,391,o),
(307,443,o),
(319,511,cs),
(334,594,o),
(334,704,o),
(348,780,cs),
(357,834,o),
(388,855,o),
(438,855,cs),
(479,855,l),
(493,934,l),
(435,934,ls),
(347,934,o),
(277,884,o),
(260,786,cs),
(245,701,o),
(246,592,o),
(232,514,cs),
(223,464,o),
(189,423,o),
(111,409,c),
(99,338,l),
(171,324,o),
(191,283,o),
(182,233,cs)
);
}
);
width = 462;
}
);
note = braceleft;
unicode = 123;
},
{
glyphname = bar;
lastChange = "2022-10-20 15:42:28 +0000";
layers = (
{
layerId = m01;
shapes = (
{
closed = 1;
nodes = (
(179,795,l),
(21,-106,l),
(112,-106,l),
(270,795,l)
);
}
);
width = 291;
}
);
note = bar;
unicode = 124;
},
{
glyphname = braceright;
lastChange = "2022-10-20 15:42:28 +0000";
layers = (
{
layerId = m01;
shapes = (
{
closed = 1;
nodes = (
(216,155,o),
(217,46,o),
(202,-39,cs),
(185,-137,o),
(115,-187,o),
(27,-187,cs),
(-31,-187,l),
(-17,-108,l),
(24,-108,ls),
(74,-108,o),
(105,-87,o),
(114,-33,cs),
(128,43,o),
(128,153,o),
(143,236,cs),
(155,304,o),
(196,356,o),
(275,373,c),
(275,375,l),
(202,391,o),
(179,443,o),
(191,511,cs),
(206,594,o),
(244,704,o),
(258,780,cs),
(267,834,o),
(244,855,o),
(194,855,cs),
(153,855,l),
(167,934,l),
(225,934,ls),
(313,934,o),
(365,884,o),
(348,786,cs),
(333,701,o),
(294,592,o),
(280,514,cs),
(271,464,o),
(291,423,o),
(363,409,c),
(351,338,l),
(273,324,o),
(239,283,o),
(230,233,cs)
);
}
);
width = 462;
}
);
note = braceright;
unicode = 125;
},
{
glyphname = asciitilde;
lastChange = "2022-10-20 15:42:28 +0000";
layers = (
{
layerId = m01;
shapes = (
{
closed = 1;
nodes = (
(94,238,ls),
(100,238,o),
(104,241,o),
(106,248,cs),
(119,285,o),
(141,303,o),
(169,303,cs),
(217,303,o),
(239,237,o),
(325,237,cs),
(408,237,o),
(473,287,o),
(510,392,cs),
(512,399,o),
(509,403,o),
(503,403,cs),
(424,403,ls),
(418,403,o),
(414,400,o),
(412,393,cs),
(399,355,o),
(377,338,o),
(350,338,cs),
(303,338,o),
(279,404,o),
(193,404,cs),
(111,404,o),
(47,353,o),
(9,249,cs),
(7,242,o),
(9,238,o),
(16,238,cs)
);
}
);
width = 519;
}
);
note = asciitilde;
unicode = 126;
},
{
glyphname = exclamdown;
lastChange = "2022-10-20 15:42:28 +0000";
layers = (
{
layerId = m01;
shapes = (
{
closed = 1;
nodes = (
(134,361,l),
(210,361,l),
(133,-139,l),
(35,-139,l)
);
},
{
closed = 1;
nodes = (
(255,467,o),
(223,440,o),
(190,440,cs),
(155,440,o),
(133,467,o),
(139,502,cs),
(145,537,o),
(177,564,o),
(212,564,cs),
(245,564,o),
(267,537,o),
(261,502,cs)
);
}
);
width = 298;
}
);
note = exclamdown;
unicode = 161;
},
{
glyphname = cent;
lastChange = "2022-10-20 15:42:28 +0000";
layers = (
{
layerId = m01;
shapes = (
{
closed = 1;
nodes = (
(457,184,l),
(431,120,o),
(373,80,o),
(290,80,cs),
(191,80,o),
(130,144,o),
(151,262,cs),
(172,380,o),
(255,445,o),
(354,445,cs),
(437,445,o),
(481,404,o),
(485,341,c),
(570,341,l),
(575,437,o),
(509,510,o),
(392,519,c),
(409,611,l),
(355,611,l),
(338,519,l),
(188,507,o),
(90,400,o),
(65,262,cs),
(41,124,o),
(102,17,o),
(248,5,c),
(231,-89,l),
(285,-89,l),
(302,5,l),
(421,14,o),
(513,87,o),
(542,184,c)
);
}
);
width = 665;
}
);
note = cent;
unicode = 162;
},
{
glyphname = sterling;
lastChange = "2022-10-20 15:42:28 +0000";
layers = (
{
layerId = m01;
shapes = (
{
closed = 1;
nodes = (
(124,452,o),
(130,410,o),
(137,372,c),
(46,372,l),
(35,308,l),
(148,308,l),
(150,288,o),
(150,268,o),
(146,246,cs),
(130,155,o),
(88,105,o),
(29,50,c),
(35,-2,l),
(481,-2,l),
(495,74,l),
(131,74,l),
(187,125,o),
(221,180,o),
(232,246,cs),
(236,267,o),
(236,288,o),
(234,308,c),
(408,308,l),
(419,372,l),
(225,372,l),
(219,413,o),
(212,455,o),
(221,504,cs),
(238,602,o),
(305,642,o),
(376,642,cs),
(464,642,o),
(496,586,o),
(485,511,c),
(569,511,l),
(584,623,o),
(534,719,o),
(390,719,cs),
(261,719,o),
(157,637,o),
(134,508,cs)
);
}
);
width = 620;
}
);
note = sterling;
unicode = 163;
},
{
glyphname = currency;
lastChange = "2022-10-20 15:42:28 +0000";
layers = (
{
layerId = m01;
shapes = (
{
closed = 1;
nodes = (
(355,300,o),
(298,259,o),
(246,259,cs),
(191,259,o),
(154,300,o),
(168,377,cs),
(181,454,o),
(234,496,o),
(288,496,cs),
(342,496,o),
(382,454,o),
(369,377,cs)
);
},
{
closed = 1;
nodes = (
(395,170,l),
(444,212,l),
(395,271,l),
(420,300,o),
(439,336,o),
(446,377,cs),
(453,419,o),
(448,456,o),
(432,484,c),
(502,544,l),
(469,586,l),
(397,525,l),
(371,544,o),
(338,554,o),
(299,554,cs),
(260,554,o),
(223,544,o),
(192,525,c),
(142,586,l),
(92,544,l),
(143,484,l),
(118,456,o),
(99,419,o),
(92,377,cs),
(84,335,o),
(89,300,o),
(103,271,c),
(34,212,l),
(68,170,l),
(138,229,l),
(162,210,o),
(196,200,o),
(236,200,cs),
(275,200,o),
(313,211,o),
(346,230,c)
);
}
);
width = 537;
}
);
note = currency;
unicode = 164;
},
{
glyphname = yen;
lastChange = "2022-10-20 15:42:28 +0000";
layers = (
{
layerId = m01;
shapes = (
{
closed = 1;
nodes = (
(238,263,l),
(231,224,l),
(31,224,l),
(19,157,l),
(219,157,l),
(192,0,l),
(283,0,l),
(310,157,l),
(510,157,l),
(522,224,l),
(322,224,l),
(329,263,l),
(365,315,l),
(538,317,l),
(550,383,l),
(413,383,l),
(632,697,l),
(530,697,l),
(297,345,l),
(188,697,l),
(86,697,l),
(196,383,l),
(59,383,l),
(47,317,l),
(219,315,l)
);
}
);
width = 595;
}
);
note = yen;
unicode = 165;
},
{
glyphname = brokenbar;
lastChange = "2022-10-20 15:42:28 +0000";
layers = (
{
layerId = m01;
shapes = (
{
closed = 1;
nodes = (
(87,273,l),
(21,-106,l),
(112,-106,l),
(178,273,l)
);
},
{
closed = 1;
nodes = (
(204,417,l),
(270,795,l),
(179,795,l),
(113,417,l)
);
}
);
width = 291;
}
);
note = brokenbar;
unicode = 166;
},
{
glyphname = section;
lastChange = "2022-10-20 15:42:28 +0000";
layers = (
{
layerId = m01;
shapes = (
{
closed = 1;
nodes = (
(116,487,o),
(158,449,o),
(213,420,c),
(117,394,o),
(59,331,o),
(46,258,cs),
(28,158,o),
(97,111,o),
(214,70,cs),
(332,29,o),
(363,4,o),
(354,-46,cs),
(344,-104,o),
(296,-132,o),
(226,-132,cs),
(146,-132,o),
(119,-87,o),
(124,-31,c),
(33,-31,l),
(17,-137,o),
(95,-196,o),
(215,-196,cs),
(343,-196,o),
(431,-125,o),
(447,-39,cs),
(459,29,o),
(418,67,o),
(362,95,c),
(459,124,o),
(516,185,o),
(529,258,cs),
(546,357,o),
(478,405,o),
(361,445,cs),
(243,486,o),
(212,512,o),
(221,563,cs),
(231,619,o),
(280,647,o),
(350,647,cs),
(430,647,o),
(456,600,o),
(451,546,c),
(542,546,l),
(557,652,o),
(481,712,o),
(361,712,cs),
(232,712,o),
(144,641,o),
(128,555,cs)
);
},
{
closed = 1;
nodes = (
(425,197,o),
(363,143,o),
(270,143,cs),
(176,143,o),
(128,194,o),
(139,258,cs),
(150,319,o),
(212,372,o),
(306,372,cs),
(399,372,o),
(447,323,o),
(436,258,cs)
);
}
);
width = 575;
}
);
note = section;
unicode = 167;
},
{
glyphname = dieresis;
lastChange = "2022-10-20 15:42:28 +0000";
layers = (
{
layerId = m01;
shapes = (
{
closed = 1;
nodes = (
(95,622,o),
(123,645,o),
(128,674,cs),
(133,703,o),
(113,727,o),
(85,727,cs),
(55,727,o),
(28,703,o),
(23,674,cs),
(18,645,o),
(37,622,o),
(67,622,cs)
);
},
{
closed = 1;
nodes = (
(258,622,o),
(286,645,o),
(291,674,cs),
(296,703,o),
(276,727,o),
(247,727,cs),
(217,727,o),
(191,703,o),
(186,674,cs),
(181,645,o),
(199,622,o),
(229,622,cs)
);
}
);
width = 314;
}
);
note = dieresis;
unicode = 168;
},
{
glyphname = copyright;
lastChange = "2022-10-20 15:42:28 +0000";
layers = (
{
layerId = m01;
shapes = (
{
closed = 1;
nodes = (
(12,141,o),
(128,-6,o),
(334,-6,cs),
(539,-6,o),
(706,141,o),
(743,349,cs),
(780,557,o),
(665,704,o),
(460,704,cs),
(254,704,o),
(86,557,o),
(49,349,cs)
);
},
{
closed = 1;
nodes = (
(667,162,o),
(527,33,o),
(341,33,cs),
(153,33,o),
(59,162,o),
(92,349,cs),
(125,537,o),
(265,664,o),
(453,664,cs),
(639,664,o),
(733,537,o),
(700,349,cs)
);
},
{
closed = 1;
nodes = (
(531,432,l),
(523,486,o),
(481,515,o),
(424,515,cs),
(348,515,o),
(278,459,o),
(259,349,cs),
(240,240,o),
(290,184,o),
(366,184,cs),
(428,184,o),
(473,214,o),
(502,267,c),
(586,267,l),
(544,177,o),
(455,118,o),
(354,118,cs),
(234,118,o),
(153,206,o),
(178,350,cs),
(204,494,o),
(316,581,o),
(436,581,cs),
(537,581,o),
(605,527,o),
(615,432,c)
);
}
);
width = 792;
}
);
note = copyright;
unicode = 169;
},
{
glyphname = ordfeminine;
lastChange = "2022-10-20 15:42:28 +0000";
layers = (
{
layerId = m01;
shapes = (
{
closed = 1;
nodes = (
(234,347,o),
(284,376,o),
(311,413,c),
(300,353,l),
(372,353,l),
(434,703,l),
(362,703,l),
(351,642,l),
(337,679,o),
(298,709,o),
(232,709,cs),
(138,709,o),
(52,636,o),
(33,530,cs),
(14,423,o),
(74,347,o),
(170,347,cs)
);
},
{
closed = 1;
nodes = (
(302,652,o),
(345,607,o),
(331,528,cs),
(317,449,o),
(258,404,o),
(197,404,cs),
(137,404,o),
(94,450,o),
(108,529,cs),
(122,608,o),
(181,652,o),
(241,652,cs)
);
}
);
width = 450;
}
);
note = ordfeminine;
unicode = 170;
},
{
glyphname = guillemotleft;
lastChange = "2022-10-20 15:42:28 +0000";
layers = (
{
layerId = m01;
shapes = (
{
closed = 1;
nodes = (
(131,295,l),
(261,470,l),
(172,470,l),
(45,295,l),
(110,120,l),
(199,120,l)
);
},
{
closed = 1;
nodes = (
(312,295,l),
(442,470,l),
(352,470,l),
(226,295,l),
(290,120,l),
(380,120,l)
);
}
);
width = 461;
}
);
note = guillemotleft;
unicode = 171;
},
{
glyphname = logicalnot;
lastChange = "2022-10-20 15:42:28 +0000";
layers = (
{
layerId = m01;
shapes = (
{
closed = 1;
nodes = (
(47,360,l),
(521,360,l),
(496,220,l),
(587,220,l),
(625,432,l),
(60,432,l)
);
}
);
width = 650;
}
);
note = logicalnot;
unicode = 172;
},
{
glyphname = uni00AD;
lastChange = "2022-10-20 15:42:28 +0000";
layers = (
{
layerId = m01;
shapes = (
{
closed = 1;
nodes = (
(51,328,l),
(450,328,l),
(464,405,l),
(65,405,l)
);
}
);
width = 551;
}
);
note = uni00AD;
unicode = 173;
},
{
glyphname = registered;
lastChange = "2022-10-20 15:42:28 +0000";
layers = (
{
layerId = m01;
shapes = (
{
closed = 1;
nodes = (
(381,667,o),
(433,599,o),
(416,502,cs),
(399,405,o),
(323,337,o),
(226,337,cs),
(128,337,o),
(78,405,o),
(95,502,cs),
(112,599,o),
(186,667,o),
(284,667,cs)
);
},
{
closed = 1;
nodes = (
(337,297,o),
(436,384,o),
(457,502,cs),
(478,620,o),
(409,706,o),
(291,706,cs),
(172,706,o),
(73,620,o),
(52,502,cs),
(31,384,o),
(100,297,o),
(219,297,cs)
);
},
{
closed = 1;
nodes = (
(360,585,o),
(334,611,o),
(289,611,cs),
(193,611,l),
(155,396,l),
(207,396,l),
(222,476,l),
(239,476,l),
(272,396,l),
(336,397,l),
(294,480,l),
(325,489,o),
(347,512,o),
(352,544,cs)
);
},
{
closed = 1;
nodes = (
(278,564,ls),
(292,564,o),
(303,558,o),
(300,542,cs),
(297,526,o),
(284,519,o),
(270,519,cs),
(229,519,l),
(237,564,l)
);
}
);
width = 509;
}
);
note = registered;
unicode = 174;
},
{
glyphname = macron;
lastChange = "2022-10-20 15:42:28 +0000";
layers = (
{
layerId = m01;
shapes = (
{
closed = 1;
nodes = (
(11,641,l),
(363,641,l),
(375,709,l),
(23,709,l)
);
}
);
width = 387;
}
);
note = macron;
unicode = 175;
},
{
glyphname = degree;
lastChange = "2022-10-20 15:42:28 +0000";
layers = (
{
layerId = m01;
shapes = (
{
closed = 1;
nodes = (
(9,417,o),
(69,347,o),
(172,347,cs),
(275,347,o),
(362,417,o),
(381,524,cs),
(400,631,o),
(338,699,o),
(236,699,cs),
(134,699,o),
(47,631,o),
(28,524,cs)
);
},
{
closed = 1;
nodes = (
(294,443,o),
(238,402,o),
(182,402,cs),
(125,402,o),
(87,443,o),
(101,524,cs),
(115,603,o),
(170,646,o),
(226,646,cs),
(283,646,o),
(322,603,o),
(308,524,cs)
);
}
);
width = 410;
}
);
note = degree;
unicode = 176;
},
{
glyphname = plusminus;
lastChange = "2022-10-20 15:42:28 +0000";
layers = (
{
layerId = m01;
shapes = (
{
closed = 1;
nodes = (
(346,624,l),
(316,454,l),
(103,454,l),
(89,377,l),
(302,377,l),
(270,195,l),
(57,195,l),
(43,118,l),
(552,118,l),
(566,195,l),
(355,195,l),
(387,377,l),
(598,377,l),
(612,454,l),
(401,454,l),
(431,624,l)
);
}
);
width = 686;
}
);
note = plusminus;
unicode = 177;
},
{
glyphname = twosuperior;
lastChange = "2022-10-20 15:42:28 +0000";
layers = (
{
layerId = m01;
shapes = (
{
closed = 1;
nodes = (
(116,603,l),
(125,635,o),
(147,654,o),
(179,654,cs),
(208,654,o),
(227,634,o),
(221,597,cs),
(213,555,o),
(179,524,o),
(134,492,cs),
(10,404,l),
(0,352,l),
(257,352,l),
(268,411,l),
(92,411,l),
(181,467,ls),
(251,512,o),
(288,547,o),
(297,600,cs),
(308,660,o),
(269,710,o),
(191,710,cs),
(110,710,o),
(56,664,o),
(43,603,c)
);
}
);
width = 330;
}
);
note = twosuperior;
unicode = 178;
},
{
glyphname = threesuperior;
lastChange = "2022-10-20 15:42:28 +0000";
layers = (
{
layerId = m01;
shapes = (
{
closed = 1;
nodes = (
(111,611,l),
(121,637,o),
(144,655,o),
(180,655,cs),
(217,655,o),
(237,634,o),
(231,603,cs),
(225,570,o),
(196,553,o),
(159,553,cs),
(118,553,l),
(110,505,l),
(153,505,ls),
(190,505,o),
(213,486,o),
(207,453,cs),
(201,421,o),
(174,401,o),
(137,401,cs),
(103,401,o),
(80,417,o),
(82,454,c),
(10,454,l),
(3,386,o),
(48,347,o),
(128,347,cs),
(211,347,o),
(274,391,o),
(283,444,cs),
(291,487,o),
(266,515,o),
(233,527,c),
(233,529,l),
(271,539,o),
(302,566,o),
(309,607,cs),
(319,665,o),
(269,710,o),
(195,710,cs),
(116,710,o),
(58,669,o),
(42,611,c)
);
}
);
width = 332;
}
);
note = threesuperior;
unicode = 179;
},
{
glyphname = acute;
lastChange = "2022-10-20 15:42:28 +0000";
layers = (
{
layerId = m01;
shapes = (
{
closed = 1;
nodes = (
(12,657,l),
(0,589,l),
(233,703,l),
(247,782,l)
);
}
);
width = 247;
}
);
note = acute;
unicode = 180;
},
{
glyphname = uni00B5;
lastChange = "2022-10-20 15:42:28 +0000";
layers = (
{
layerId = m01;
shapes = (
{
closed = 1;
nodes = (
(639,548,l),
(548,548,l),
(495,245,ls),
(474,128,o),
(402,69,o),
(310,69,cs),
(218,69,o),
(164,129,o),
(185,248,cs),
(238,548,l),
(148,548,l),
(6,-260,l),
(96,-260,l),
(151,54,l),
(172,8,o),
(218,-9,o),
(268,-9,cs),
(347,-9,o),
(421,27,o),
(469,100,c),
(452,0,l),
(543,0,l)
);
}
);
width = 645;
}
);
note = uni00B5;
unicode = 181;
},
{
glyphname = paragraph;
lastChange = "2022-10-20 15:42:28 +0000";
layers = (
{
layerId = m01;
shapes = (
{
closed = 1;
nodes = (
(329,692,ls),
(167,692,o),
(76,602,o),
(56,488,cs),
(36,375,o),
(94,286,o),
(257,286,cs),
(268,286,l),
(218,0,l),
(299,0,l),
(408,621,l),
(485,621,l),
(376,0,l),
(457,0,l),
(579,692,l)
);
}
);
width = 596;
}
);
note = paragraph;
unicode = 182;
},
{
glyphname = periodcentered;
lastChange = "2022-10-20 15:42:28 +0000";
layers = (
{
layerId = m01;
shapes = (
{
closed = 1;
nodes = (
(175,376,o),
(153,403,o),
(120,403,cs),
(85,403,o),
(53,376,o),
(47,341,cs),
(41,306,o),
(63,279,o),
(98,279,cs),
(131,279,o),
(163,306,o),
(169,341,cs)
);
}
);
width = 212;
}
);
note = periodcentered;
unicode = 183;
},
{
glyphname = cedilla;
lastChange = "2022-10-20 15:42:28 +0000";
layers = (
{
layerId = m01;
shapes = (
{
closed = 1;
nodes = (
(149,7,l),
(88,7,l),
(66,-114,l),
(116,-114,ls),
(159,-114,o),
(178,-126,o),
(173,-157,cs),
(167,-189,o),
(144,-201,o),
(101,-201,cs),
(4,-201,l),
(-7,-260,l),
(108,-260,ls),
(179,-260,o),
(238,-220,o),
(249,-157,cs),
(260,-91,o),
(214,-57,o),
(137,-58,c)
);
}
);
width = 272;
}
);
note = cedilla;
unicode = 184;
},
{
glyphname = onesuperior;
lastChange = "2022-10-20 15:42:28 +0000";
layers = (
{
layerId = m01;
shapes = (
{
closed = 1;
nodes = (
(48,352,l),
(120,352,l),
(182,704,l),
(56,704,l),
(46,648,l),
(100,648,l)
);
}
);
width = 196;
}
);
note = onesuperior;
unicode = 185;
},
{
glyphname = ordmasculine;
lastChange = "2022-10-20 15:42:28 +0000";
layers = (
{
layerId = m01;
shapes = (
{
closed = 1;
nodes = (
(14,419,o),
(79,346,o),
(185,346,cs),
(290,346,o),
(384,419,o),
(403,528,cs),
(422,638,o),
(356,709,o),
(250,709,cs),
(145,709,o),
(52,638,o),
(33,528,cs)
);
},
{
closed = 1;
nodes = (
(315,447,o),
(253,404,o),
(195,404,cs),
(135,404,o),
(94,447,o),
(108,527,cs),
(122,609,o),
(181,652,o),
(240,652,cs),
(298,652,o),
(343,609,o),
(329,527,cs)
);
}
);
width = 436;
}
);
note = ordmasculine;
unicode = 186;
},
{
glyphname = guillemotright;
lastChange = "2022-10-20 15:42:28 +0000";
layers = (
{
layerId = m01;
shapes = (
{
closed = 1;
nodes = (
(289,120,l),
(416,295,l),
(351,470,l),
(262,470,l),
(329,295,l),
(200,120,l)
);
},
{
closed = 1;
nodes = (
(108,120,l),
(235,295,l),
(170,470,l),
(81,470,l),
(149,295,l),
(19,120,l)
);
}
);
width = 461;
}
);
note = guillemotright;
unicode = 187;
},
{
glyphname = onequarter;
lastChange = "2022-10-20 15:42:28 +0000";
layers = (
{
layerId = m01;
shapes = (
{
closed = 1;
nodes = (
(0,0,l),
(86,0,l),
(583,698,l),
(497,698,l)
);
},
{
closed = 1;
nodes = (
(514,116,l),
(556,353,l),
(459,353,l),
(259,111,l),
(251,69,l),
(434,69,l),
(422,0,l),
(494,0,l),
(506,69,l),
(554,69,l),
(562,116,l)
);
},
{
closed = 1;
nodes = (
(333,116,l),
(475,291,l),
(444,116,l)
);
},
{
closed = 1;
nodes = (
(92,352,l),
(164,352,l),
(226,704,l),
(100,704,l),
(90,648,l),
(144,648,l)
);
}
);
width = 640;
}
);
note = onequarter;
unicode = 188;
},
{
glyphname = onehalf;
lastChange = "2022-10-20 15:42:28 +0000";
layers = (
{
layerId = m01;
shapes = (
{
closed = 1;
nodes = (
(-5,0,l),
(82,0,l),
(570,698,l),
(484,698,l)
);
},
{
closed = 1;
nodes = (
(90,352,l),
(162,352,l),
(224,704,l),
(98,704,l),
(88,648,l),
(142,648,l)
);
},
{
closed = 1;
nodes = (
(423,250,l),
(433,282,o),
(454,301,o),
(486,301,cs),
(515,301,o),
(535,281,o),
(528,244,cs),
(521,202,o),
(486,171,o),
(442,139,cs),
(317,51,l),
(308,-1,l),
(565,-1,l),
(575,58,l),
(399,58,l),
(488,114,ls),
(558,159,o),
(595,194,o),
(605,247,cs),
(615,307,o),
(576,357,o),
(498,357,cs),
(417,357,o),
(364,311,o),
(350,250,c)
);
}
);
width = 675;
}
);
note = onehalf;
unicode = 189;
},
{
glyphname = threequarters;
lastChange = "2022-10-20 15:42:28 +0000";
layers = (
{
layerId = m01;
shapes = (
{
closed = 1;
nodes = (
(80,0,l),
(165,0,l),
(677,698,l),
(591,698,l)
);
},
{
closed = 1;
nodes = (
(593,116,l),
(635,353,l),
(538,353,l),
(337,111,l),
(330,69,l),
(513,69,l),
(500,0,l),
(572,0,l),
(585,69,l),
(632,69,l),
(640,116,l)
);
},
{
closed = 1;
nodes = (
(411,116,l),
(553,291,l),
(522,116,l)
);
},
{
closed = 1;
nodes = (
(153,611,l),
(164,637,o),
(187,655,o),
(223,655,cs),
(260,655,o),
(279,634,o),
(274,603,cs),
(268,570,o),
(239,553,o),
(202,553,cs),
(161,553,l),
(152,505,l),
(195,505,ls),
(232,505,o),
(255,486,o),
(249,453,cs),
(244,421,o),
(216,401,o),
(179,401,cs),
(145,401,o),
(123,417,o),
(124,454,c),
(52,454,l),
(45,386,o),
(91,347,o),
(171,347,cs),
(254,347,o),
(316,391,o),
(326,444,cs),
(333,487,o),
(308,515,o),
(275,527,c),
(276,529,l),
(313,539,o),
(344,566,o),
(351,607,cs),
(362,665,o),
(312,710,o),
(238,710,cs),
(159,710,o),
(100,669,o),
(84,611,c)
);
}
);
width = 709;
}
);
note = threequarters;
unicode = 190;
},
{
glyphname = questiondown;
lastChange = "2022-10-20 15:42:28 +0000";
layers = (
{
layerId = m01;
shapes = (
{
closed = 1;
nodes = (
(372,45,l),
(358,-33,o),
(299,-80,o),
(217,-80,cs),
(136,-80,o),
(92,-30,o),
(107,50,cs),
(128,171,o),
(229,193,o),
(343,193,cs),
(372,193,l),
(396,351,l),
(317,351,l),
(297,256,l),
(157,256,o),
(45,196,o),
(20,50,cs),
(-3,-77,o),
(73,-156,o),
(204,-156,cs),
(335,-156,o),
(437,-76,o),
(458,45,c)
);
},
{
closed = 1;
nodes = (
(316,459,o),
(338,432,o),
(371,432,cs),
(406,432,o),
(438,459,o),
(444,494,cs),
(450,529,o),
(428,556,o),
(393,556,cs),
(360,556,o),
(328,529,o),
(322,494,cs)
);
}
);
width = 519;
}
);
note = questiondown;
unicode = 191;
},
{
glyphname = Agrave;
lastChange = "2022-10-20 15:42:28 +0000";
layers = (
{
layerId = m01;
shapes = (
{
closed = 1;
nodes = (
(463,0,l),
(559,0,l),
(430,693,l),
(325,693,l),
(-49,0,l),
(47,0,l),
(131,155,l),
(435,155,l)
);
},
{
closed = 1;
nodes = (
(290,848,l),
(483,734,l),
(495,802,l),
(304,927,l)
);
},
{
closed = 1;
nodes = (
(422,229,l),
(170,229,l),
(358,581,l)
);
}
);
width = 674;
}
);
note = Agrave;
unicode = 192;
},
{
glyphname = Aacute;
lastChange = "2022-10-20 15:42:28 +0000";
layers = (
{
layerId = m01;
shapes = (
{
closed = 1;
nodes = (
(463,0,l),
(559,0,l),
(430,693,l),
(325,693,l),
(-49,0,l),
(47,0,l),
(131,155,l),
(435,155,l)
);
},
{
closed = 1;
nodes = (
(282,802,l),
(270,734,l),
(503,848,l),
(517,927,l)
);
},
{
closed = 1;
nodes = (
(422,229,l),
(170,229,l),
(358,581,l)
);
}
);
width = 674;
}
);
note = Aacute;
unicode = 193;
},
{
glyphname = Acircumflex;
lastChange = "2022-10-20 15:42:28 +0000";
layers = (
{
layerId = m01;
shapes = (
{
closed = 1;
nodes = (
(466,0,l),
(562,0,l),
(433,693,l),
(328,693,l),
(-46,0,l),
(50,0,l),
(133,155,l),
(437,155,l)
);
},
{
closed = 1;
nodes = (
(540,814,l),
(417,897,l),
(263,814,l),
(251,742,l),
(405,827,l),
(528,742,l)
);
},
{
closed = 1;
nodes = (
(424,229,l),
(172,229,l),
(360,581,l)
);
}
);
width = 674;
}
);
note = Acircumflex;
unicode = 194;
},
{
glyphname = Atilde;
lastChange = "2022-10-20 15:42:28 +0000";
layers = (
{
layerId = m01;
shapes = (
{
closed = 1;
nodes = (
(469,0,l),
(565,0,l),
(437,693,l),
(332,693,l),
(-43,0,l),
(53,0,l),
(137,155,l),
(441,155,l)
);
},
{
closed = 1;
nodes = (
(300,752,l),
(309,782,o),
(329,796,o),
(351,796,cs),
(391,796,o),
(403,750,o),
(457,750,cs),
(509,750,o),
(555,786,o),
(575,854,c),
(523,854,l),
(514,825,o),
(493,811,o),
(471,811,cs),
(430,811,o),
(419,857,o),
(366,857,cs),
(314,857,o),
(269,821,o),
(247,752,c)
);
},
{
closed = 1;
nodes = (
(428,229,l),
(176,229,l),
(364,581,l)
);
}
);
width = 674;
}
);
note = Atilde;
unicode = 195;
},
{
glyphname = Adieresis;
lastChange = "2022-10-20 15:42:28 +0000";
layers = (
{
layerId = m01;
shapes = (
{
closed = 1;
nodes = (
(468,0,l),
(564,0,l),
(435,693,l),
(330,693,l),
(-44,0,l),
(52,0,l),
(135,155,l),
(439,155,l)
);
},
{
closed = 1;
nodes = (
(343,767,o),
(371,790,o),
(377,819,cs),
(382,848,o),
(362,872,o),
(334,872,cs),
(304,872,o),
(277,848,o),
(272,819,cs),
(266,790,o),
(285,767,o),
(315,767,cs)
);
},
{
closed = 1;
nodes = (
(506,767,o),
(534,790,o),
(540,819,cs),
(545,848,o),
(525,872,o),
(496,872,cs),
(466,872,o),
(440,848,o),
(435,819,cs),
(429,790,o),
(447,767,o),
(477,767,cs)
);
},
{
closed = 1;
nodes = (
(427,229,l),
(175,229,l),
(363,581,l)
);
}
);
width = 674;
}
);
note = Adieresis;
unicode = 196;
},
{
glyphname = Aring;
lastChange = "2022-10-20 15:42:28 +0000";
layers = (
{
layerId = m01;
shapes = (
{
closed = 1;
nodes = (
(460,0,l),
(556,0,l),
(427,693,l),
(322,693,l),
(-52,0,l),
(44,0,l),
(128,155,l),
(432,155,l)
);
},
{
closed = 1;
nodes = (
(364,801,o),
(344,824,o),
(350,858,cs),
(356,892,o),
(384,914,o),
(414,914,cs),
(444,914,o),
(464,892,o),
(458,858,cs),
(452,824,o),
(424,801,o),
(394,801,cs)
);
},
{
closed = 1;
nodes = (
(365,962,o),
(309,922,o),
(297,857,cs),
(286,792,o),
(328,752,o),
(386,752,cs),
(445,752,o),
(500,792,o),
(511,857,cs),
(523,922,o),
(482,962,o),
(423,962,cs)
);
},
{
closed = 1;
nodes = (
(419,229,l),
(167,229,l),
(355,581,l)
);
}
);
width = 674;
}
);
note = Aring;
unicode = 197;
},
{
glyphname = AE;
lastChange = "2022-10-20 15:42:28 +0000";
layers = (
{
layerId = m01;
shapes = (
{
closed = 1;
nodes = (
(514,629,l),
(443,226,l),
(216,226,l)
);
},
{
closed = 1;
nodes = (
(887,626,l),
(900,698,l),
(469,698,l),
(-50,0,l),
(49,0,l),
(164,155,l),
(431,155,l),
(403,0,l),
(776,0,l),
(789,72,l),
(507,72,l),
(550,317,l),
(802,317,l),
(815,387,l),
(563,387,l),
(605,626,l)
);
}
);
width = 900;
}
);
note = AE;
unicode = 198;
},
{
glyphname = Ccedilla;
lastChange = "2022-10-20 15:42:28 +0000";
layers = (
{
layerId = m01;
shapes = (
{
closed = 1;
nodes = (
(30,149,o),
(145,7,o),
(325,-5,c),
(306,-114,l),
(356,-114,ls),
(399,-114,o),
(417,-126,o),
(412,-157,cs),
(406,-189,o),
(383,-201,o),
(340,-201,cs),
(243,-201,l),
(233,-260,l),
(348,-260,ls),
(419,-260,o),
(477,-220,o),
(488,-157,cs),
(500,-91,o),
(454,-57,o),
(376,-58,c),
(386,-5,l),
(522,6,o),
(641,80,o),
(710,203,c),
(601,203,l),
(549,120,o),
(467,73,o),
(365,73,cs),
(219,73,o),
(128,179,o),
(158,349,cs),
(188,520,o),
(316,626,o),
(462,626,cs),
(564,626,o),
(630,579,o),
(653,495,c),
(762,495,l),
(734,630,o),
(627,706,o),
(476,706,cs),
(281,706,o),
(102,558,o),
(65,349,cs)
);
}
);
width = 772;
}
);
note = Ccedilla;
unicode = 199;
},
{
glyphname = Egrave;
lastChange = "2022-10-20 15:42:28 +0000";
layers = (
{
layerId = m01;
shapes = (
{
closed = 1;
nodes = (
(493,698,l),
(118,698,l),
(-5,0,l),
(370,0,l),
(383,75,l),
(99,75,l),
(142,315,l),
(396,315,l),
(409,390,l),
(155,390,l),
(196,623,l),
(480,623,l)
);
},
{
closed = 1;
nodes = (
(207,848,l),
(400,734,l),
(412,802,l),
(221,927,l)
);
}
);
width = 513;
}
);
note = Egrave;
unicode = 200;
},
{
glyphname = Eacute;
lastChange = "2022-10-20 15:42:28 +0000";
layers = (
{
layerId = m01;
shapes = (
{
closed = 1;
nodes = (
(493,698,l),
(118,698,l),
(-5,0,l),
(370,0,l),
(383,75,l),
(99,75,l),
(142,315,l),
(396,315,l),
(409,390,l),
(155,390,l),
(196,623,l),
(480,623,l)
);
},
{
closed = 1;
nodes = (
(199,802,l),
(187,734,l),
(420,848,l),
(434,927,l)
);
}
);
width = 513;
}
);
note = Eacute;
unicode = 201;
},
{
glyphname = Ecircumflex;
lastChange = "2022-10-20 15:42:28 +0000";
layers = (
{
layerId = m01;
shapes = (
{
closed = 1;
nodes = (
(496,698,l),
(121,698,l),
(-2,0,l),
(373,0,l),
(386,75,l),
(102,75,l),
(144,315,l),
(398,315,l),
(412,390,l),
(158,390,l),
(199,623,l),
(483,623,l)
);
},
{
closed = 1;
nodes = (
(457,814,l),
(334,897,l),
(180,814,l),
(168,742,l),
(322,827,l),
(445,742,l)
);
}
);
width = 513;
}
);
note = Ecircumflex;
unicode = 202;
},
{
glyphname = Edieresis;
lastChange = "2022-10-20 15:42:28 +0000";
layers = (
{
layerId = m01;
shapes = (
{
closed = 1;
nodes = (
(498,698,l),
(123,698,l),
(0,0,l),
(375,0,l),
(388,75,l),
(104,75,l),
(147,315,l),
(401,315,l),
(414,390,l),
(160,390,l),
(201,623,l),
(485,623,l)
);
},
{
closed = 1;
nodes = (
(260,767,o),
(288,790,o),
(294,819,cs),
(299,848,o),
(279,872,o),
(251,872,cs),
(221,872,o),
(194,848,o),
(189,819,cs),
(183,790,o),
(202,767,o),
(232,767,cs)
);
},
{
closed = 1;
nodes = (
(423,767,o),
(451,790,o),
(457,819,cs),
(462,848,o),
(442,872,o),
(413,872,cs),
(383,872,o),
(357,848,o),
(352,819,cs),
(346,790,o),
(364,767,o),
(394,767,cs)
);
}
);
width = 513;
}
);
note = Edieresis;
unicode = 203;
},
{
glyphname = Igrave;
lastChange = "2022-10-20 15:42:28 +0000";
layers = (
{
layerId = m01;
shapes = (
{
closed = 1;
nodes = (
(-5,0,l),
(86,0,l),
(209,697,l),
(118,697,l)
);
},
{
closed = 1;
nodes = (
(75,848,l),
(268,734,l),
(280,802,l),
(89,927,l)
);
}
);
width = 246;
}
);
note = Igrave;
unicode = 204;
},
{
glyphname = Iacute;
lastChange = "2022-10-20 15:42:28 +0000";
layers = (
{
layerId = m01;
shapes = (
{
closed = 1;
nodes = (
(-5,0,l),
(86,0,l),
(209,697,l),
(118,697,l)
);
},
{
closed = 1;
nodes = (
(67,802,l),
(55,734,l),
(288,848,l),
(302,927,l)
);
}
);
width = 246;
}
);
note = Iacute;
unicode = 205;
},
{
glyphname = Icircumflex;
lastChange = "2022-10-20 15:42:28 +0000";
layers = (
{
layerId = m01;
shapes = (
{
closed = 1;
nodes = (
(-2,0,l),
(89,0,l),
(212,697,l),
(121,697,l)
);
},
{
closed = 1;
nodes = (
(325,814,l),
(202,897,l),
(48,814,l),
(36,742,l),
(190,827,l),
(313,742,l)
);
}
);
width = 246;
}
);
note = Icircumflex;
unicode = 206;
},
{
glyphname = Idieresis;
lastChange = "2022-10-20 15:42:28 +0000";
layers = (
{
layerId = m01;
shapes = (
{
closed = 1;
nodes = (
(0,0,l),
(91,0,l),
(214,697,l),
(123,697,l)
);
},
{
closed = 1;
nodes = (
(128,767,o),
(156,790,o),
(162,819,cs),
(167,848,o),
(147,872,o),
(119,872,cs),
(89,872,o),
(62,848,o),
(57,819,cs),
(51,790,o),
(70,767,o),
(100,767,cs)
);
},
{
closed = 1;
nodes = (
(291,767,o),
(319,790,o),
(325,819,cs),
(330,848,o),
(310,872,o),
(281,872,cs),
(251,872,o),
(225,848,o),
(220,819,cs),
(214,790,o),
(232,767,o),
(262,767,cs)
);
}
);
width = 246;
}
);
note = Idieresis;
unicode = 207;
},
{
glyphname = Eth;
lastChange = "2022-10-20 15:42:28 +0000";
layers = (
{
layerId = m01;
shapes = (
{
closed = 1;
nodes = (
(157,697,l),
(103,389,l),
(16,389,l),
(1,305,l),
(88,305,l),
(35,0,l),
(252,0,ls),
(480,0,o),
(644,131,o),
(682,347,cs),
(720,563,o),
(602,697,o),
(374,697,cs)
);
},
{
closed = 1;
nodes = (
(138,70,l),
(179,305,l),
(371,305,l),
(386,389,l),
(194,389,l),
(235,623,l),
(361,623,ls),
(542,623,o),
(619,517,o),
(589,347,cs),
(559,177,o),
(445,70,o),
(264,70,cs)
);
}
);
width = 725;
}
);
note = Eth;
unicode = 208;
},
{
glyphname = Ntilde;
lastChange = "2022-10-20 15:42:28 +0000";
layers = (
{
layerId = m01;
shapes = (
{
closed = 1;
nodes = (
(582,698,l),
(484,144,l),
(216,698,l),
(125,698,l),
(1,0,l),
(92,0,l),
(190,555,l),
(458,0,l),
(549,0,l),
(673,698,l)
);
},
{
closed = 1;
nodes = (
(315,752,l),
(324,782,o),
(344,796,o),
(366,796,cs),
(406,796,o),
(418,750,o),
(472,750,cs),
(524,750,o),
(570,786,o),
(590,854,c),
(538,854,l),
(529,825,o),
(508,811,o),
(486,811,cs),
(445,811,o),
(434,857,o),
(381,857,cs),
(329,857,o),
(284,821,o),
(262,752,c)
);
}
);
width = 703;
}
);
note = Ntilde;
unicode = 209;
},
{
glyphname = Ograve;
lastChange = "2022-10-20 15:42:28 +0000";
layers = (
{
layerId = m01;
shapes = (
{
closed = 1;
nodes = (
(760,558,o),
(633,705,o),
(436,705,cs),
(240,705,o),
(60,558,o),
(23,349,cs),
(-13,140,o),
(115,-7,o),
(311,-7,cs),
(508,-7,o),
(687,140,o),
(723,349,cs)
);
},
{
closed = 1;
nodes = (
(147,520,o),
(275,626,o),
(422,626,cs),
(569,626,o),
(661,520,o),
(630,349,cs),
(600,179,o),
(472,72,o),
(325,72,cs),
(178,72,o),
(86,179,o),
(116,349,cs)
);
},
{
closed = 1;
nodes = (
(348,848,l),
(541,734,l),
(553,802,l),
(362,927,l)
);
}
);
width = 786;
}
);
note = Ograve;
unicode = 210;
},
{
glyphname = Oacute;
lastChange = "2022-10-20 15:42:28 +0000";
layers = (
{
layerId = m01;
shapes = (
{
closed = 1;
nodes = (
(760,558,o),
(633,705,o),
(436,705,cs),
(240,705,o),
(60,558,o),
(23,349,cs),
(-13,140,o),
(115,-7,o),
(311,-7,cs),
(508,-7,o),
(687,140,o),
(723,349,cs)
);
},
{
closed = 1;
nodes = (
(147,520,o),
(275,626,o),
(422,626,cs),
(569,626,o),
(661,520,o),
(630,349,cs),
(600,179,o),
(472,72,o),
(325,72,cs),
(178,72,o),
(86,179,o),
(116,349,cs)
);
},
{
closed = 1;
nodes = (
(340,802,l),
(328,734,l),
(561,848,l),
(575,927,l)
);
}
);
width = 786;
}
);
note = Oacute;
unicode = 211;
},
{
glyphname = Ocircumflex;
lastChange = "2022-10-20 15:42:28 +0000";
layers = (
{
layerId = m01;
shapes = (
{
closed = 1;
nodes = (
(763,558,o),
(636,705,o),
(439,705,cs),
(243,705,o),
(63,558,o),
(26,349,cs),
(-11,140,o),
(117,-7,o),
(313,-7,cs),
(510,-7,o),
(689,140,o),
(726,349,cs)
);
},
{
closed = 1;
nodes = (
(149,520,o),
(278,626,o),
(425,626,cs),
(572,626,o),
(663,520,o),
(633,349,cs),
(603,179,o),
(474,72,o),
(327,72,cs),
(180,72,o),
(89,179,o),
(119,349,cs)
);
},
{
closed = 1;
nodes = (
(599,814,l),
(476,897,l),
(322,814,l),
(309,742,l),
(463,827,l),
(586,742,l)
);
}
);
width = 786;
}
);
note = Ocircumflex;
unicode = 212;
},
{
glyphname = Otilde;
lastChange = "2022-10-20 15:42:28 +0000";
layers = (
{
layerId = m01;
shapes = (
{
closed = 1;
nodes = (
(766,558,o),
(639,705,o),
(442,705,cs),
(246,705,o),
(66,558,o),
(30,349,cs),
(-7,140,o),
(121,-7,o),
(317,-7,cs),
(514,-7,o),
(693,140,o),
(730,349,cs)
);
},
{
closed = 1;
nodes = (
(153,520,o),
(281,626,o),
(428,626,cs),
(575,626,o),
(667,520,o),
(637,349,cs),
(607,179,o),
(478,72,o),
(331,72,cs),
(184,72,o),
(93,179,o),
(123,349,cs)
);
},
{
closed = 1;
nodes = (
(360,752,l),
(369,782,o),
(388,796,o),
(410,796,cs),
(450,796,o),
(462,750,o),
(516,750,cs),
(568,750,o),
(615,786,o),
(635,854,c),
(583,854,l),
(574,825,o),
(553,811,o),
(531,811,cs),
(490,811,o),
(478,857,o),
(425,857,cs),
(373,857,o),
(329,821,o),
(307,752,c)
);
}
);
width = 786;
}
);
note = Otilde;
unicode = 213;
},
{
glyphname = Odieresis;
lastChange = "2022-10-20 15:42:28 +0000";
layers = (
{
layerId = m01;
shapes = (
{
closed = 1;
nodes = (
(765,558,o),
(638,705,o),
(441,705,cs),
(245,705,o),
(65,558,o),
(28,349,cs),
(-9,140,o),
(120,-7,o),
(316,-7,cs),
(513,-7,o),
(691,140,o),
(728,349,cs)
);
},
{
closed = 1;
nodes = (
(151,520,o),
(280,626,o),
(427,626,cs),
(574,626,o),
(665,520,o),
(635,349,cs),
(605,179,o),
(476,72,o),
(329,72,cs),
(182,72,o),
(91,179,o),
(121,349,cs)
);
},
{
closed = 1;
nodes = (
(402,767,o),
(430,790,o),
(435,819,cs),
(440,848,o),
(420,872,o),
(392,872,cs),
(362,872,o),
(335,848,o),
(330,819,cs),
(325,790,o),
(344,767,o),
(374,767,cs)
);
},
{
closed = 1;
nodes = (
(565,767,o),
(593,790,o),
(598,819,cs),
(603,848,o),
(583,872,o),
(554,872,cs),
(524,872,o),
(498,848,o),
(493,819,cs),
(488,790,o),
(506,767,o),
(536,767,cs)
);
}
);
width = 786;
}
);
note = Odieresis;
unicode = 214;
},
{
glyphname = multiply;
lastChange = "2022-10-20 15:42:28 +0000";
layers = (
{
layerId = m01;
shapes = (
{
closed = 1;
nodes = (
(125,150,l),
(312,309,l),
(443,150,l),
(511,208,l),
(381,367,l),
(566,524,l),
(516,584,l),
(332,427,l),
(202,584,l),
(134,525,l),
(262,369,l),
(75,210,l)
);
}
);
width = 643;
}
);
note = multiply;
unicode = 215;
},
{
glyphname = Oslash;
lastChange = "2022-10-20 15:42:28 +0000";
layers = (
{
layerId = m01;
shapes = (
{
closed = 1;
nodes = (
(760,447,o),
(742,531,o),
(697,593,c),
(813,698,l),
(739,698,l),
(664,630,l),
(613,678,o),
(541,705,o),
(456,705,cs),
(260,705,o),
(80,558,o),
(43,349,cs),
(26,252,o),
(45,168,o),
(89,106,c),
(-27,0,l),
(47,0,l),
(122,68,l),
(174,20,o),
(245,-7,o),
(330,-7,cs),
(527,-7,o),
(706,140,o),
(743,349,cs)
);
},
{
closed = 1;
nodes = (
(166,520,o),
(295,626,o),
(442,626,cs),
(506,626,o),
(559,606,o),
(597,569,c),
(159,169,l),
(132,215,o),
(123,276,o),
(136,349,cs)
);
},
{
closed = 1;
nodes = (
(280,72,o),
(227,92,o),
(189,129,c),
(628,529,l),
(654,483,o),
(663,422,o),
(650,349,cs),
(620,179,o),
(491,72,o),
(344,72,cs)
);
}
);
width = 786;
}
);
note = Oslash;
unicode = 216;
},
{
glyphname = Ugrave;
lastChange = "2022-10-20 15:42:28 +0000";
layers = (
{
layerId = m01;
shapes = (
{
closed = 1;
nodes = (
(39,257,ls),
(7,76,o),
(111,-7,o),
(255,-7,cs),
(399,-7,o),
(532,76,o),
(564,257,cs),
(642,697,l),
(551,697,l),
(473,256,ls),
(450,128,o),
(373,73,o),
(270,73,cs),
(167,73,o),
(107,128,o),
(130,256,cs),
(208,697,l),
(117,697,l)
);
},
{
closed = 1;
nodes = (
(290,848,l),
(483,734,l),
(495,802,l),
(304,927,l)
);
}
);
width = 675;
}
);
note = Ugrave;
unicode = 217;
},
{
glyphname = Uacute;
lastChange = "2022-10-20 15:42:28 +0000";
layers = (
{
layerId = m01;
shapes = (
{
closed = 1;
nodes = (
(39,257,ls),
(7,76,o),
(111,-7,o),
(255,-7,cs),
(399,-7,o),
(532,76,o),
(564,257,cs),
(642,697,l),
(551,697,l),
(473,256,ls),
(450,128,o),
(373,73,o),
(270,73,cs),
(167,73,o),
(107,128,o),
(130,256,cs),
(208,697,l),
(117,697,l)
);
},
{
closed = 1;
nodes = (
(282,802,l),
(270,734,l),
(503,848,l),
(517,927,l)
);
}
);
width = 675;
}
);
note = Uacute;
unicode = 218;
},
{
glyphname = Ucircumflex;
lastChange = "2022-10-20 15:42:28 +0000";
layers = (
{
layerId = m01;
shapes = (
{
closed = 1;
nodes = (
(42,257,ls),
(10,76,o),
(113,-7,o),
(257,-7,cs),
(401,-7,o),
(535,76,o),
(567,257,cs),
(644,697,l),
(553,697,l),
(476,256,ls),
(453,128,o),
(375,73,o),
(272,73,cs),
(169,73,o),
(110,128,o),
(133,256,cs),
(210,697,l),
(119,697,l)
);
},
{
closed = 1;
nodes = (
(541,814,l),
(418,897,l),
(264,814,l),
(251,742,l),
(405,827,l),
(528,742,l)
);
}
);
width = 675;
}
);
note = Ucircumflex;
unicode = 219;
},
{
glyphname = Udieresis;
lastChange = "2022-10-20 15:42:28 +0000";
layers = (
{
layerId = m01;
shapes = (
{
closed = 1;
nodes = (
(44,257,ls),
(12,76,o),
(116,-7,o),
(260,-7,cs),
(404,-7,o),
(537,76,o),
(569,257,cs),
(647,697,l),
(556,697,l),
(478,256,ls),
(455,128,o),
(378,73,o),
(275,73,cs),
(172,73,o),
(112,128,o),
(135,256,cs),
(213,697,l),
(122,697,l)
);
},
{
closed = 1;
nodes = (
(344,767,o),
(372,790,o),
(377,819,cs),
(382,848,o),
(362,872,o),
(334,872,cs),
(304,872,o),
(277,848,o),
(272,819,cs),
(267,790,o),
(286,767,o),
(316,767,cs)
);
},
{
closed = 1;
nodes = (
(507,767,o),
(535,790,o),
(540,819,cs),
(545,848,o),
(525,872,o),
(496,872,cs),
(466,872,o),
(440,848,o),
(435,819,cs),
(430,790,o),
(448,767,o),
(478,767,cs)
);
}
);
width = 675;
}
);
note = Udieresis;
unicode = 220;
},
{
glyphname = Yacute;
lastChange = "2022-10-20 15:42:28 +0000";
layers = (
{
layerId = m01;
shapes = (
{
closed = 1;
nodes = (
(212,263,l),
(165,0,l),
(256,0,l),
(303,263,l),
(606,697,l),
(505,697,l),
(271,344,l),
(161,697,l),
(60,697,l)
);
},
{
closed = 1;
nodes = (
(237,802,l),
(225,734,l),
(458,848,l),
(472,927,l)
);
}
);
width = 584;
}
);
note = Yacute;
unicode = 221;
},
{
glyphname = Thorn;
lastChange = "2022-10-20 15:42:28 +0000";
layers = (
{
layerId = m01;
shapes = (
{
closed = 1;
nodes = (
(145,219,l),
(191,481,l),
(325,481,ls),
(429,481,o),
(464,429,o),
(450,349,cs),
(436,271,o),
(383,219,o),
(279,219,cs)
);
},
{
closed = 1;
nodes = (
(563,463,o),
(502,553,o),
(338,553,cs),
(204,553,l),
(230,698,l),
(139,698,l),
(15,0,l),
(106,0,l),
(132,146,l),
(266,146,ls),
(439,146,o),
(524,242,o),
(543,349,cs)
);
}
);
width = 579;
}
);
note = Thorn;
unicode = 222;
},
{
glyphname = germandbls;
lastChange = "2022-10-20 15:42:28 +0000";
layers = (
{
layerId = m01;
shapes = (
{
closed = 1;
nodes = (
(-7,0,l),
(84,0,l),
(181,550,ls),
(197,640,o),
(247,694,o),
(349,694,cs),
(428,694,o),
(472,658,o),
(461,598,cs),
(446,510,o),
(298,477,o),
(280,375,cs),
(269,312,o),
(308,277,o),
(407,242,cs),
(476,218,o),
(497,192,o),
(488,144,cs),
(479,92,o),
(439,63,o),
(377,63,cs),
(309,63,o),
(277,106,o),
(284,170,c),
(192,170,l),
(182,57,o),
(249,-10,o),
(364,-10,cs),
(484,-10,o),
(566,56,o),
(583,151,cs),
(596,228,o),
(565,279,o),
(472,311,cs),
(388,341,o),
(369,359,o),
(374,387,cs),
(385,446,o),
(532,481,o),
(554,605,cs),
(569,691,o),
(508,771,o),
(364,771,cs),
(203,771,o),
(112,678,o),
(92,561,cs)
);
}
);
width = 681;
}
);
note = germandbls;
unicode = 223;
},
{
glyphname = agrave;
lastChange = "2022-10-20 15:42:28 +0000";
layers = (
{
layerId = m01;
shapes = (
{
closed = 1;
nodes = (
(-6,106,o),
(86,-9,o),
(232,-9,cs),
(333,-9,o),
(413,43,o),
(457,102,c),
(439,0,l),
(531,0,l),
(627,548,l),
(535,548,l),
(518,448,l),
(496,505,o),
(435,557,o),
(333,557,cs),
(186,557,o),
(54,447,o),
(24,276,cs)
);
},
{
closed = 1;
nodes = (
(465,146,o),
(365,71,o),
(265,71,cs),
(165,71,o),
(94,147,o),
(117,276,cs),
(139,405,o),
(237,478,o),
(337,478,cs),
(437,478,o),
(510,402,o),
(487,275,cs)
);
},
{
closed = 1;
nodes = (
(279,703,l),
(472,589,l),
(484,657,l),
(293,782,l)
);
}
);
width = 676;
}
);
note = agrave;
unicode = 224;
},
{
glyphname = aacute;
lastChange = "2022-10-20 15:42:28 +0000";
layers = (
{
layerId = m01;
shapes = (
{
closed = 1;
nodes = (
(-6,106,o),
(86,-9,o),
(232,-9,cs),
(333,-9,o),
(413,43,o),
(457,102,c),
(439,0,l),
(531,0,l),
(627,548,l),
(535,548,l),
(518,448,l),
(496,505,o),
(435,557,o),
(333,557,cs),
(186,557,o),
(54,447,o),
(24,276,cs)
);
},
{
closed = 1;
nodes = (
(465,146,o),
(365,71,o),
(265,71,cs),
(165,71,o),
(94,147,o),
(117,276,cs),
(139,405,o),
(237,478,o),
(337,478,cs),
(437,478,o),
(510,402,o),
(487,275,cs)
);
},
{
closed = 1;
nodes = (
(271,657,l),
(259,589,l),
(492,703,l),
(506,782,l)
);
}
);
width = 676;
}
);
note = aacute;
unicode = 225;
},
{
glyphname = acircumflex;
lastChange = "2022-10-20 15:42:28 +0000";
layers = (
{
layerId = m01;
shapes = (
{
closed = 1;
nodes = (
(-4,106,o),
(89,-9,o),
(235,-9,cs),
(336,-9,o),
(416,43,o),
(459,102,c),
(441,0,l),
(533,0,l),
(630,548,l),
(538,548,l),
(520,448,l),
(499,505,o),
(438,557,o),
(336,557,cs),
(189,557,o),
(56,447,o),
(26,276,cs)
);
},
{
closed = 1;
nodes = (
(467,146,o),
(368,71,o),
(268,71,cs),
(168,71,o),
(96,147,o),
(119,276,cs),
(142,405,o),
(240,478,o),
(340,478,cs),
(440,478,o),
(512,402,o),
(490,275,cs)
);
},
{
closed = 1;
nodes = (
(529,669,l),
(406,752,l),
(252,669,l),
(240,597,l),
(394,682,l),
(517,597,l)
);
}
);
width = 676;
}
);
note = acircumflex;
unicode = 226;
},
{
glyphname = atilde;
lastChange = "2022-10-20 15:42:28 +0000";
layers = (
{
layerId = m01;
shapes = (
{
closed = 1;
nodes = (
(0,106,o),
(92,-9,o),
(238,-9,cs),
(339,-9,o),
(420,43,o),
(463,102,c),
(445,0,l),
(537,0,l),
(634,548,l),
(542,548,l),
(524,448,l),
(502,505,o),
(441,557,o),
(339,557,cs),
(192,557,o),
(60,447,o),
(30,276,cs)
);
},
{
closed = 1;
nodes = (
(471,146,o),
(372,71,o),
(272,71,cs),
(172,71,o),
(100,147,o),
(123,276,cs),
(145,405,o),
(243,478,o),
(343,478,cs),
(443,478,o),
(516,402,o),
(494,275,cs)
);
},
{
closed = 1;
nodes = (
(290,607,l),
(299,637,o),
(319,651,o),
(341,651,cs),
(381,651,o),
(393,605,o),
(447,605,cs),
(499,605,o),
(545,641,o),
(565,709,c),
(513,709,l),
(504,680,o),
(483,666,o),
(461,666,cs),
(420,666,o),
(409,712,o),
(356,712,cs),
(304,712,o),
(259,676,o),
(237,607,c)
);
}
);
width = 676;
}
);
note = atilde;
unicode = 227;
},
{
glyphname = adieresis;
lastChange = "2022-10-20 15:42:28 +0000";
layers = (
{
layerId = m01;
shapes = (
{
closed = 1;
nodes = (
(-2,106,o),
(91,-9,o),
(237,-9,cs),
(338,-9,o),
(418,43,o),
(462,102,c),
(444,0,l),
(536,0,l),
(632,548,l),
(540,548,l),
(523,448,l),
(501,505,o),
(440,557,o),
(338,557,cs),
(191,557,o),
(59,447,o),
(28,276,cs)
);
},
{
closed = 1;
nodes = (
(469,146,o),
(370,71,o),
(270,71,cs),
(170,71,o),
(99,147,o),
(121,276,cs),
(144,405,o),
(242,478,o),
(342,478,cs),
(442,478,o),
(515,402,o),
(492,275,cs)
);
},
{
closed = 1;
nodes = (
(332,622,o),
(360,645,o),
(366,674,cs),
(371,703,o),
(351,727,o),
(323,727,cs),
(293,727,o),
(266,703,o),
(261,674,cs),
(255,645,o),
(274,622,o),
(304,622,cs)
);
},
{
closed = 1;
nodes = (
(495,622,o),
(523,645,o),
(529,674,cs),
(534,703,o),
(514,727,o),
(485,727,cs),
(455,727,o),
(429,703,o),
(424,674,cs),
(418,645,o),
(436,622,o),
(466,622,cs)
);
}
);
width = 676;
}
);
note = adieresis;
unicode = 228;
},
{
glyphname = aring;
lastChange = "2022-10-20 15:42:28 +0000";
layers = (
{
layerId = m01;
shapes = (
{
closed = 1;
nodes = (
(-10,106,o),
(83,-9,o),
(229,-9,cs),
(330,-9,o),
(410,43,o),
(454,102,c),
(436,0,l),
(528,0,l),
(624,548,l),
(532,548,l),
(515,448,l),
(493,505,o),
(432,557,o),
(330,557,cs),
(183,557,o),
(51,447,o),
(20,276,cs)
);
},
{
closed = 1;
nodes = (
(462,146,o),
(362,71,o),
(262,71,cs),
(162,71,o),
(91,147,o),
(113,276,cs),
(136,405,o),
(234,478,o),
(334,478,cs),
(434,478,o),
(507,402,o),
(484,275,cs)
);
},
{
closed = 1;
nodes = (
(354,817,o),
(298,777,o),
(286,712,cs),
(275,647,o),
(317,607,o),
(375,607,cs),
(434,607,o),
(489,647,o),
(500,712,cs),
(512,777,o),
(471,817,o),
(412,817,cs)
);
},
{
closed = 1;
nodes = (
(353,656,o),
(333,679,o),
(339,713,cs),
(345,747,o),
(373,769,o),
(403,769,cs),
(433,769,o),
(453,747,o),
(447,713,cs),
(441,679,o),
(413,656,o),
(383,656,cs)
);
}
);
width = 676;
}
);
note = aring;
unicode = 229;
},
{
glyphname = ae;
lastChange = "2022-10-20 15:42:28 +0000";
layers = (
{
layerId = m01;
shapes = (
{
closed = 1;
nodes = (
(917,480,o),
(987,418,o),
(967,309,c),
(606,309,l),
(635,417,o),
(727,480,o),
(820,480,cs)
);
},
{
closed = 1;
nodes = (
(926,169,l),
(898,109,o),
(834,68,o),
(747,68,cs),
(662,68,o),
(584,126,o),
(595,243,c),
(1046,243,l),
(1052,262,o),
(1056,278,o),
(1059,297,cs),
(1085,442,o),
(1004,557,o),
(848,557,cs),
(761,557,o),
(683,524,o),
(620,447,c),
(637,548,l),
(561,548,l),
(544,447,l),
(512,517,o),
(449,557,o),
(358,557,cs),
(206,557,o),
(74,447,o),
(43,276,cs),
(13,106,o),
(106,-9,o),
(253,-9,cs),
(349,-9,o),
(431,41,o),
(480,105,c),
(462,0,l),
(541,0,l),
(559,106,l),
(586,36,o),
(658,-9,o),
(748,-9,cs),
(879,-9,o),
(979,69,o),
(1024,169,c)
);
},
{
closed = 1;
nodes = (
(159,405,o),
(257,478,o),
(357,478,cs),
(457,478,o),
(530,402,o),
(507,275,cs),
(484,146,o),
(385,71,o),
(285,71,cs),
(185,71,o),
(114,147,o),
(136,276,cs)
);
}
);
width = 1097;
}
);
note = ae;
unicode = 230;
},
{
glyphname = ccedilla;
lastChange = "2022-10-20 15:42:28 +0000";
layers = (
{
layerId = m01;
shapes = (
{
closed = 1;
nodes = (
(37,114,o),
(114,7,o),
(250,-7,c),
(231,-114,l),
(281,-114,ls),
(324,-114,o),
(343,-126,o),
(337,-157,cs),
(331,-189,o),
(308,-201,o),
(265,-201,cs),
(168,-201,l),
(158,-260,l),
(273,-260,ls),
(344,-260,o),
(402,-220,o),
(413,-157,cs),
(425,-91,o),
(379,-57,o),
(302,-58,c),
(310,-8,l),
(432,2,o),
(524,75,o),
(568,176,c),
(470,176,l),
(438,107,o),
(377,68,o),
(296,68,cs),
(196,68,o),
(134,139,o),
(158,275,cs),
(182,409,o),
(268,480,o),
(368,480,cs),
(449,480,o),
(497,438,o),
(504,372,c),
(602,372,l),
(595,487,o),
(518,557,o),
(382,557,cs),
(226,557,o),
(96,447,o),
(65,275,cs)
);
}
);
width = 607;
}
);
note = ccedilla;
unicode = 231;
},
{
glyphname = egrave;
lastChange = "2022-10-20 15:42:28 +0000";
layers = (
{
layerId = m01;
shapes = (
{
closed = 1;
nodes = (
(420,480,o),
(490,421,o),
(470,314,c),
(124,314,l),
(153,421,o),
(237,480,o),
(326,480,cs)
);
},
{
closed = 1;
nodes = (
(430,169,l),
(399,110,o),
(340,68,o),
(258,68,cs),
(165,68,o),
(98,129,o),
(110,240,c),
(548,240,l),
(554,259,o),
(557,275,o),
(561,295,cs),
(587,445,o),
(503,557,o),
(344,557,cs),
(184,557,o),
(54,448,o),
(23,275,cs),
(-7,101,o),
(88,-9,o),
(244,-9,cs),
(380,-9,o),
(482,69,o),
(528,169,c)
);
},
{
closed = 1;
nodes = (
(251,703,l),
(444,589,l),
(456,657,l),
(265,782,l)
);
}
);
width = 620;
}
);
note = egrave;
unicode = 232;
},
{
glyphname = eacute;
lastChange = "2022-10-20 15:42:28 +0000";
layers = (
{
layerId = m01;
shapes = (
{
closed = 1;
nodes = (
(420,480,o),
(490,421,o),
(470,314,c),
(124,314,l),
(153,421,o),
(237,480,o),
(326,480,cs)
);
},
{
closed = 1;
nodes = (
(430,169,l),
(399,110,o),
(340,68,o),
(258,68,cs),
(165,68,o),
(98,129,o),
(110,240,c),
(548,240,l),
(554,259,o),
(557,275,o),
(561,295,cs),
(587,445,o),
(503,557,o),
(344,557,cs),
(184,557,o),
(54,448,o),
(23,275,cs),
(-7,101,o),
(88,-9,o),
(244,-9,cs),
(380,-9,o),
(482,69,o),
(528,169,c)
);
},
{
closed = 1;
nodes = (
(243,657,l),
(231,589,l),
(464,703,l),
(478,782,l)
);
}
);
width = 620;
}
);
note = eacute;
unicode = 233;
},
{
glyphname = ecircumflex;
lastChange = "2022-10-20 15:42:28 +0000";
layers = (
{
layerId = m01;
shapes = (
{
closed = 1;
nodes = (
(423,480,o),
(493,421,o),
(473,314,c),
(127,314,l),
(156,421,o),
(240,480,o),
(329,480,cs)
);
},
{
closed = 1;
nodes = (
(432,169,l),
(402,110,o),
(342,68,o),
(260,68,cs),
(167,68,o),
(100,129,o),
(113,240,c),
(551,240,l),
(556,259,o),
(560,275,o),
(564,295,cs),
(590,445,o),
(506,557,o),
(347,557,cs),
(187,557,o),
(56,448,o),
(26,275,cs),
(-5,101,o),
(91,-9,o),
(247,-9,cs),
(383,-9,o),
(485,69,o),
(530,169,c)
);
},
{
closed = 1;
nodes = (
(501,669,l),
(378,752,l),
(224,669,l),
(212,597,l),
(366,682,l),
(489,597,l)
);
}
);
width = 620;
}
);
note = ecircumflex;
unicode = 234;
},
{
glyphname = edieresis;
lastChange = "2022-10-20 15:42:28 +0000";
layers = (
{
layerId = m01;
shapes = (
{
closed = 1;
nodes = (
(425,480,o),
(495,421,o),
(475,314,c),
(129,314,l),
(158,421,o),
(242,480,o),
(331,480,cs)
);
},
{
closed = 1;
nodes = (
(434,169,l),
(404,110,o),
(345,68,o),
(263,68,cs),
(170,68,o),
(102,129,o),
(115,240,c),
(553,240,l),
(558,259,o),
(562,275,o),
(566,295,cs),
(592,445,o),
(508,557,o),
(349,557,cs),
(189,557,o),
(59,448,o),
(28,275,cs),
(-2,101,o),
(93,-9,o),
(249,-9,cs),
(385,-9,o),
(487,69,o),
(532,169,c)
);
},
{
closed = 1;
nodes = (
(303,622,o),
(331,645,o),
(337,674,cs),
(342,703,o),
(322,727,o),
(294,727,cs),
(264,727,o),
(237,703,o),
(232,674,cs),
(226,645,o),
(245,622,o),
(275,622,cs)
);
},
{
closed = 1;
nodes = (
(466,622,o),
(494,645,o),
(500,674,cs),
(505,703,o),
(485,727,o),
(456,727,cs),
(426,727,o),
(400,703,o),
(395,674,cs),
(389,645,o),
(407,622,o),
(437,622,cs)
);
}
);
width = 620;
}
);
note = edieresis;
unicode = 235;
},
{
glyphname = igrave;
lastChange = "2022-10-20 15:42:28 +0000";
layers = (
{
layerId = m01;
shapes = (
{
closed = 1;
nodes = (
(8,0,l),
(99,0,l),
(196,548,l),
(105,548,l)
);
},
{
closed = 1;
nodes = (
(62,703,l),
(255,589,l),
(267,657,l),
(76,782,l)
);
}
);
width = 246;
}
);
note = igrave;
unicode = 236;
},
{
glyphname = iacute;
lastChange = "2022-10-20 15:42:28 +0000";
layers = (
{
layerId = m01;
shapes = (
{
closed = 1;
nodes = (
(8,0,l),
(99,0,l),
(196,548,l),
(105,548,l)
);
},
{
closed = 1;
nodes = (
(54,657,l),
(42,589,l),
(275,703,l),
(289,782,l)
);
}
);
width = 246;
}
);
note = iacute;
unicode = 237;
},
{
glyphname = icircumflex;
lastChange = "2022-10-20 15:42:28 +0000";
layers = (
{
layerId = m01;
shapes = (
{
closed = 1;
nodes = (
(11,0,l),
(102,0,l),
(198,548,l),
(107,548,l)
);
},
{
closed = 1;
nodes = (
(313,669,l),
(189,752,l),
(36,669,l),
(23,597,l),
(177,682,l),
(300,597,l)
);
}
);
width = 246;
}
);
note = icircumflex;
unicode = 238;
},
{
glyphname = idieresis;
lastChange = "2022-10-20 15:42:28 +0000";
layers = (
{
layerId = m01;
shapes = (
{
closed = 1;
nodes = (
(13,0,l),
(104,0,l),
(201,548,l),
(110,548,l)
);
},
{
closed = 1;
nodes = (
(116,622,o),
(144,645,o),
(149,674,cs),
(154,703,o),
(134,727,o),
(106,727,cs),
(76,727,o),
(49,703,o),
(44,674,cs),
(39,645,o),
(58,622,o),
(88,622,cs)
);
},
{
closed = 1;
nodes = (
(279,622,o),
(307,645,o),
(312,674,cs),
(317,703,o),
(297,727,o),
(268,727,cs),
(238,727,o),
(212,703,o),
(207,674,cs),
(202,645,o),
(220,622,o),
(250,622,cs)
);
}
);
width = 246;
}
);
note = idieresis;
unicode = 239;
},
{
glyphname = eth;
lastChange = "2022-10-20 15:42:28 +0000";
layers = (
{
layerId = m01;
shapes = (
{
closed = 1;
nodes = (
(310,644,l),
(301,594,l),
(439,638,l),
(478,583,o),
(499,528,o),
(509,466,c),
(478,528,o),
(423,558,o),
(345,558,cs),
(193,558,o),
(57,448,o),
(27,278,cs),
(-3,105,o),
(90,-9,o),
(250,-9,cs),
(410,-9,o),
(549,100,o),
(587,315,cs),
(610,446,o),
(583,559,o),
(510,660,c),
(609,692,l),
(618,743,l),
(480,699,l),
(468,713,o),
(454,726,o),
(441,740,c),
(348,740,l),
(371,718,o),
(391,697,o),
(409,676,c)
);
},
{
closed = 1;
nodes = (
(144,412,o),
(240,481,o),
(338,481,cs),
(435,481,o),
(510,411,o),
(486,275,cs),
(462,140,o),
(361,68,o),
(263,68,cs),
(164,68,o),
(96,141,o),
(120,278,cs)
);
}
);
width = 638;
}
);
note = eth;
unicode = 240;
},
{
glyphname = ntilde;
lastChange = "2022-10-20 15:42:28 +0000";
layers = (
{
layerId = m01;
shapes = (
{
closed = 1;
nodes = (
(159,303,ls),
(179,421,o),
(254,479,o),
(347,479,cs),
(439,479,o),
(490,422,o),
(470,310,cs),
(415,0,l),
(505,0,l),
(562,323,ls),
(590,480,o),
(507,558,o),
(380,558,cs),
(306,558,o),
(234,527,o),
(188,470,c),
(202,548,l),
(111,548,l),
(14,0,l),
(105,0,l)
);
},
{
closed = 1;
nodes = (
(272,607,l),
(282,637,o),
(301,651,o),
(323,651,cs),
(363,651,o),
(375,605,o),
(429,605,cs),
(481,605,o),
(527,641,o),
(547,709,c),
(495,709,l),
(486,680,o),
(466,666,o),
(444,666,cs),
(403,666,o),
(391,712,o),
(338,712,cs),
(286,712,o),
(241,676,o),
(219,607,c)
);
}
);
width = 640;
}
);
note = ntilde;
unicode = 241;
},
{
glyphname = ograve;
lastChange = "2022-10-20 15:42:28 +0000";
layers = (
{
layerId = m01;
shapes = (
{
closed = 1;
nodes = (
(607,448,o),
(505,557,o),
(349,557,cs),
(194,557,o),
(53,448,o),
(23,275,cs),
(-8,101,o),
(91,-9,o),
(246,-9,cs),
(402,-9,o),
(546,101,o),
(577,275,cs)
);
},
{
closed = 1;
nodes = (
(140,413,o),
(239,478,o),
(335,478,cs),
(429,478,o),
(508,413,o),
(484,275,cs),
(459,136,o),
(355,71,o),
(260,71,cs),
(165,71,o),
(91,136,o),
(116,275,cs)
);
},
{
closed = 1;
nodes = (
(261,710,l),
(454,596,l),
(466,664,l),
(275,789,l)
);
}
);
width = 640;
}
);
note = ograve;
unicode = 242;
},
{
glyphname = oacute;
lastChange = "2022-10-20 15:42:28 +0000";
layers = (
{
layerId = m01;
shapes = (
{
closed = 1;
nodes = (
(607,448,o),
(505,557,o),
(349,557,cs),
(194,557,o),
(53,448,o),
(23,275,cs),
(-8,101,o),
(91,-9,o),
(246,-9,cs),
(402,-9,o),
(546,101,o),
(577,275,cs)
);
},
{
closed = 1;
nodes = (
(140,413,o),
(239,478,o),
(335,478,cs),
(429,478,o),
(508,413,o),
(484,275,cs),
(459,136,o),
(355,71,o),
(260,71,cs),
(165,71,o),
(91,136,o),
(116,275,cs)
);
},
{
closed = 1;
nodes = (
(253,664,l),
(241,596,l),
(474,710,l),
(488,789,l)
);
}
);
width = 640;
}
);
note = oacute;
unicode = 243;
},
{
glyphname = ocircumflex;
lastChange = "2022-10-20 15:42:28 +0000";
layers = (
{
layerId = m01;
shapes = (
{
closed = 1;
nodes = (
(610,448,o),
(508,557,o),
(352,557,cs),
(197,557,o),
(56,448,o),
(25,275,cs),
(-5,101,o),
(93,-9,o),
(248,-9,cs),
(404,-9,o),
(549,101,o),
(579,275,cs)
);
},
{
closed = 1;
nodes = (
(143,413,o),
(241,478,o),
(337,478,cs),
(431,478,o),
(511,413,o),
(486,275,cs),
(462,136,o),
(357,71,o),
(262,71,cs),
(167,71,o),
(94,136,o),
(118,275,cs)
);
},
{
closed = 1;
nodes = (
(512,676,l),
(389,759,l),
(235,676,l),
(222,604,l),
(376,689,l),
(499,604,l)
);
}
);
width = 640;
}
);
note = ocircumflex;
unicode = 244;
},
{
glyphname = otilde;
lastChange = "2022-10-20 15:42:28 +0000";
layers = (
{
layerId = m01;
shapes = (
{
closed = 1;
nodes = (
(613,448,o),
(512,557,o),
(356,557,cs),
(201,557,o),
(59,448,o),
(29,275,cs),
(-2,101,o),
(97,-9,o),
(252,-9,cs),
(408,-9,o),
(552,101,o),
(583,275,cs)
);
},
{
closed = 1;
nodes = (
(146,413,o),
(245,478,o),
(341,478,cs),
(435,478,o),
(514,413,o),
(490,275,cs),
(465,136,o),
(361,71,o),
(266,71,cs),
(171,71,o),
(97,136,o),
(122,275,cs)
);
},
{
closed = 1;
nodes = (
(273,614,l),
(282,644,o),
(301,658,o),
(323,658,cs),
(363,658,o),
(375,612,o),
(429,612,cs),
(481,612,o),
(528,648,o),
(548,716,c),
(496,716,l),
(487,687,o),
(466,673,o),
(444,673,cs),
(403,673,o),
(391,719,o),
(338,719,cs),
(286,719,o),
(242,683,o),
(220,614,c)
);
}
);
width = 640;
}
);
note = otilde;
unicode = 245;
},
{
glyphname = odieresis;
lastChange = "2022-10-20 15:42:28 +0000";
layers = (
{
layerId = m01;
shapes = (
{
closed = 1;
nodes = (
(612,448,o),
(510,557,o),
(354,557,cs),
(199,557,o),
(58,448,o),
(28,275,cs),
(-3,101,o),
(95,-9,o),
(250,-9,cs),
(406,-9,o),
(551,101,o),
(582,275,cs)
);
},
{
closed = 1;
nodes = (
(145,413,o),
(243,478,o),
(339,478,cs),
(433,478,o),
(513,413,o),
(489,275,cs),
(464,136,o),
(360,71,o),
(265,71,cs),
(170,71,o),
(96,136,o),
(121,275,cs)
);
},
{
closed = 1;
nodes = (
(315,629,o),
(343,652,o),
(348,681,cs),
(353,710,o),
(334,734,o),
(306,734,cs),
(276,734,o),
(248,710,o),
(243,681,cs),
(238,652,o),
(257,629,o),
(287,629,cs)
);
},
{
closed = 1;
nodes = (
(478,629,o),
(506,652,o),
(511,681,cs),
(516,710,o),
(497,734,o),
(468,734,cs),
(438,734,o),
(411,710,o),
(406,681,cs),
(401,652,o),
(419,629,o),
(449,629,cs)
);
}
);
width = 640;
}
);
note = odieresis;
unicode = 246;
},
{
glyphname = divide;
lastChange = "2022-10-20 15:42:28 +0000";
layers = (
{
layerId = m01;
shapes = (
{
closed = 1;
nodes = (
(71,328,l),
(581,328,l),
(595,405,l),
(85,405,l)
);
},
{
closed = 1;
nodes = (
(363,188,o),
(341,215,o),
(308,215,cs),
(273,215,o),
(241,188,o),
(235,153,cs),
(229,118,o),
(251,91,o),
(286,91,cs),
(319,91,o),
(351,118,o),
(357,153,cs)
);
},
{
closed = 1;
nodes = (
(439,617,o),
(417,644,o),
(384,644,cs),
(349,644,o),
(317,617,o),
(311,582,cs),
(305,547,o),
(327,520,o),
(362,520,cs),
(395,520,o),
(427,547,o),
(433,582,cs)
);
}
);
width = 657;
}
);
note = divide;
unicode = 247;
},
{
glyphname = oslash;
lastChange = "2022-10-20 15:42:28 +0000";
layers = (
{
layerId = m01;
shapes = (
{
closed = 1;
nodes = (
(611,354,o),
(598,420,o),
(564,468,c),
(651,548,l),
(586,548,l),
(535,500,l),
(493,537,o),
(437,557,o),
(370,557,cs),
(215,557,o),
(74,448,o),
(43,275,cs),
(29,195,o),
(42,128,o),
(76,79,c),
(-10,0,l),
(55,0,l),
(105,46,l),
(146,11,o),
(200,-9,o),
(266,-9,cs),
(422,-9,o),
(566,101,o),
(597,275,cs)
);
},
{
closed = 1;
nodes = (
(161,413,o),
(259,478,o),
(355,478,cs),
(398,478,o),
(438,465,o),
(466,437,c),
(148,145,l),
(132,178,o),
(127,221,o),
(136,275,cs)
);
},
{
closed = 1;
nodes = (
(238,71,o),
(200,84,o),
(174,109,c),
(491,401,l),
(508,370,o),
(514,328,o),
(504,275,cs),
(480,136,o),
(375,71,o),
(280,71,cs)
);
}
);
width = 640;
}
);
note = oslash;
unicode = 248;
},
{
glyphname = ugrave;
lastChange = "2022-10-20 15:42:28 +0000";
layers = (
{
layerId = m01;
shapes = (
{
closed = 1;
nodes = (
(591,548,l),
(500,548,l),
(447,247,ls),
(427,129,o),
(353,71,o),
(259,71,cs),
(167,71,o),
(116,128,o),
(136,239,cs),
(190,548,l),
(100,548,l),
(44,227,ls),
(16,70,o),
(101,-8,o),
(227,-8,cs),
(300,-8,o),
(373,24,o),
(418,81,c),
(404,0,l),
(495,0,l)
);
},
{
closed = 1;
nodes = (
(261,703,l),
(454,589,l),
(466,657,l),
(275,782,l)
);
}
);
width = 640;
}
);
note = ugrave;
unicode = 249;
},
{
glyphname = uacute;
lastChange = "2022-10-20 15:42:28 +0000";
layers = (
{
layerId = m01;
shapes = (
{
closed = 1;
nodes = (
(591,548,l),
(500,548,l),
(447,247,ls),
(427,129,o),
(353,71,o),
(259,71,cs),
(167,71,o),
(116,128,o),
(136,239,cs),
(190,548,l),
(100,548,l),
(44,227,ls),
(16,70,o),
(101,-8,o),
(227,-8,cs),
(300,-8,o),
(373,24,o),
(418,81,c),
(404,0,l),
(495,0,l)
);
},
{
closed = 1;
nodes = (
(253,657,l),
(241,589,l),
(474,703,l),
(488,782,l)
);
}
);
width = 640;
}
);
note = uacute;
unicode = 250;
},
{
glyphname = ucircumflex;
lastChange = "2022-10-20 15:42:28 +0000";
layers = (
{
layerId = m01;
shapes = (
{
closed = 1;
nodes = (
(594,548,l),
(503,548,l),
(450,247,ls),
(429,129,o),
(356,71,o),
(262,71,cs),
(170,71,o),
(119,128,o),
(139,239,cs),
(193,548,l),
(103,548,l),
(46,227,ls),
(19,70,o),
(104,-8,o),
(230,-8,cs),
(303,-8,o),
(376,24,o),
(421,81,c),
(406,0,l),
(497,0,l)
);
},
{
closed = 1;
nodes = (
(511,669,l),
(388,752,l),
(234,669,l),
(222,597,l),
(376,682,l),
(499,597,l)
);
}
);
width = 640;
}
);
note = ucircumflex;
unicode = 251;
},
{
glyphname = udieresis;
lastChange = "2022-10-20 15:42:28 +0000";
layers = (
{
layerId = m01;
shapes = (
{
closed = 1;
nodes = (
(596,548,l),
(505,548,l),
(452,247,ls),
(431,129,o),
(358,71,o),
(264,71,cs),
(172,71,o),
(121,128,o),
(141,239,cs),
(195,548,l),
(105,548,l),
(49,227,ls),
(21,70,o),
(106,-8,o),
(232,-8,cs),
(305,-8,o),
(378,24,o),
(423,81,c),
(409,0,l),
(500,0,l)
);
},
{
closed = 1;
nodes = (
(314,622,o),
(342,645,o),
(347,674,cs),
(353,703,o),
(333,727,o),
(305,727,cs),
(275,727,o),
(248,703,o),
(242,674,cs),
(237,645,o),
(256,622,o),
(286,622,cs)
);
},
{
closed = 1;
nodes = (
(477,622,o),
(505,645,o),
(510,674,cs),
(516,703,o),
(496,727,o),
(467,727,cs),
(437,727,o),
(411,703,o),
(405,674,cs),
(400,645,o),
(418,622,o),
(448,622,cs)
);
}
);
width = 640;
}
);
note = udieresis;
unicode = 252;
},
{
glyphname = yacute;
lastChange = "2022-10-20 15:42:28 +0000";
layers = (
{
layerId = m01;
shapes = (
{
closed = 1;
nodes = (
(257,104,l),
(163,548,l),
(62,548,l),
(188,6,l),
(33,-258,l),
(127,-258,l),
(599,548,l),
(505,548,l)
);
},
{
closed = 1;
nodes = (
(236,657,l),
(224,589,l),
(457,703,l),
(471,782,l)
);
}
);
width = 563;
}
);
note = yacute;
unicode = 253;
},
{
glyphname = thorn;
lastChange = "2022-10-20 15:42:28 +0000";
layers = (
{
layerId = m01;
shapes = (
{
closed = 1;
nodes = (
(256,740,l),
(165,740,l),
(-11,-260,l),
(80,-260,l),
(147,120,l),
(168,46,o),
(229,-9,o),
(329,-9,cs),
(476,-9,o),
(609,106,o),
(639,276,cs),
(669,447,o),
(576,557,o),
(429,557,cs),
(329,557,o),
(247,503,o),
(202,432,c)
);
},
{
closed = 1;
nodes = (
(524,147,o),
(425,71,o),
(324,71,cs),
(225,71,o),
(151,146,o),
(174,275,cs),
(197,402,o),
(297,478,o),
(396,478,cs),
(497,478,o),
(569,405,o),
(546,276,cs)
);
}
);
width = 676;
}
);
note = thorn;
unicode = 254;
},
{
glyphname = ydieresis;
lastChange = "2022-10-20 15:42:28 +0000";
layers = (
{
layerId = m01;
shapes = (
{
closed = 1;
nodes = (
(262,104,l),
(168,548,l),
(67,548,l),
(193,6,l),
(38,-258,l),
(132,-258,l),
(604,548,l),
(510,548,l)
);
},
{
closed = 1;
nodes = (
(297,622,o),
(325,645,o),
(330,674,cs),
(336,703,o),
(316,727,o),
(288,727,cs),
(258,727,o),
(231,703,o),
(225,674,cs),
(220,645,o),
(239,622,o),
(269,622,cs)
);
},
{
closed = 1;
nodes = (
(460,622,o),
(488,645,o),
(493,674,cs),
(499,703,o),
(479,727,o),
(450,727,cs),
(420,727,o),
(394,703,o),
(388,674,cs),
(383,645,o),
(401,622,o),
(431,622,cs)
);
}
);
width = 563;
}
);
note = ydieresis;
unicode = 255;
},
{
glyphname = Amacron;
lastChange = "2022-10-20 15:42:28 +0000";
layers = (
{
layerId = m01;
shapes = (
{
closed = 1;
nodes = (
(470,0,l),
(566,0,l),
(437,693,l),
(332,693,l),
(-42,0,l),
(54,0,l),
(137,155,l),
(441,155,l)
);
},
{
closed = 1;
nodes = (
(224,786,l),
(576,786,l),
(588,854,l),
(236,854,l)
);
},
{
closed = 1;
nodes = (
(428,229,l),
(176,229,l),
(364,581,l)
);
}
);
width = 674;
}
);
note = Amacron;
unicode = 256;
},
{
glyphname = amacron;
lastChange = "2022-10-20 15:42:28 +0000";
layers = (
{
layerId = m01;
shapes = (
{
closed = 1;
nodes = (
(0,106,o),
(93,-9,o),
(239,-9,cs),
(340,-9,o),
(420,43,o),
(463,102,c),
(445,0,l),
(537,0,l),
(634,548,l),
(542,548,l),
(524,448,l),
(502,505,o),
(441,557,o),
(339,557,cs),
(192,557,o),
(60,447,o),
(30,276,cs)
);
},
{
closed = 1;
nodes = (
(471,146,o),
(372,71,o),
(272,71,cs),
(172,71,o),
(100,147,o),
(123,276,cs),
(146,405,o),
(244,478,o),
(344,478,cs),
(444,478,o),
(516,402,o),
(494,275,cs)
);
},
{
closed = 1;
nodes = (
(214,641,l),
(566,641,l),
(578,709,l),
(226,709,l)
);
}
);
width = 676;
}
);
note = amacron;
unicode = 257;
},
{
glyphname = Abreve;
lastChange = "2022-10-20 15:42:28 +0000";
layers = (
{
layerId = m01;
shapes = (
{
closed = 1;
nodes = (
(466,0,l),
(562,0,l),
(433,693,l),
(328,693,l),
(-46,0,l),
(50,0,l),
(133,155,l),
(437,155,l)
);
},
{
closed = 1;
nodes = (
(559,895,l),
(505,895,l),
(496,847,o),
(467,818,o),
(403,818,cs),
(338,818,o),
(319,847,o),
(328,895,c),
(274,895,l),
(271,878,ls),
(258,803,o),
(299,747,o),
(391,747,cs),
(483,747,o),
(543,803,o),
(556,877,cs)
);
},
{
closed = 1;
nodes = (
(424,229,l),
(172,229,l),
(361,581,l)
);
}
);
width = 674;
}
);
note = Abreve;
unicode = 258;
},
{
glyphname = abreve;
lastChange = "2022-10-20 15:42:28 +0000";
layers = (
{
layerId = m01;
shapes = (
{
closed = 1;
nodes = (
(-4,106,o),
(89,-9,o),
(235,-9,cs),
(336,-9,o),
(416,43,o),
(460,102,c),
(442,0,l),
(534,0,l),
(630,548,l),
(538,548,l),
(521,448,l),
(499,505,o),
(438,557,o),
(336,557,cs),
(189,557,o),
(56,447,o),
(26,276,cs)
);
},
{
closed = 1;
nodes = (
(467,146,o),
(368,71,o),
(268,71,cs),
(168,71,o),
(97,147,o),
(119,276,cs),
(142,405,o),
(240,478,o),
(340,478,cs),
(440,478,o),
(513,402,o),
(490,275,cs)
);
},
{
closed = 1;
nodes = (
(548,750,l),
(494,750,l),
(485,702,o),
(456,673,o),
(392,673,cs),
(327,673,o),
(308,702,o),
(317,750,c),
(263,750,l),
(260,733,ls),
(247,658,o),
(288,602,o),
(380,602,cs),
(472,602,o),
(532,658,o),
(545,732,cs)
);
}
);
width = 676;
}
);
note = abreve;
unicode = 259;
},
{
glyphname = Aogonek;
lastChange = "2022-10-20 15:42:28 +0000";
layers = (
{
layerId = m01;
shapes = (
{
closed = 1;
nodes = (
(364,693,l),
(-10,0,l),
(86,0,l),
(169,155,l),
(473,155,l),
(500,12,l),
(428,-24,o),
(397,-63,o),
(389,-106,cs),
(377,-179,o),
(435,-206,o),
(495,-206,cs),
(521,-206,o),
(550,-200,o),
(573,-192,c),
(584,-132,l),
(560,-140,o),
(535,-145,o),
(516,-145,cs),
(481,-145,o),
(460,-128,o),
(466,-97,cs),
(470,-72,o),
(489,-49,o),
(539,-27,cs),
(598,0,l),
(469,693,l)
);
},
{
closed = 1;
nodes = (
(460,229,l),
(208,229,l),
(397,581,l)
);
}
);
width = 674;
}
);
note = Aogonek;
unicode = 260;
},
{
glyphname = aogonek;
lastChange = "2022-10-20 15:42:28 +0000";
layers = (
{
layerId = m01;
shapes = (
{
closed = 1;
nodes = (
(31,106,o),
(123,-9,o),
(269,-9,cs),
(370,-9,o),
(451,43,o),
(494,102,c),
(479,17,l),
(400,-21,o),
(367,-62,o),
(359,-106,cs),
(346,-179,o),
(404,-206,o),
(464,-206,cs),
(491,-206,o),
(519,-200,o),
(543,-192,c),
(554,-132,l),
(529,-140,o),
(505,-145,o),
(486,-145,cs),
(450,-145,o),
(430,-128,o),
(436,-97,cs),
(440,-72,o),
(459,-49,o),
(508,-27,cs),
(568,0,l),
(665,548,l),
(573,548,l),
(555,448,l),
(533,505,o),
(472,557,o),
(370,557,cs),
(223,557,o),
(91,447,o),
(61,276,cs)
);
},
{
closed = 1;
nodes = (
(502,146,o),
(403,71,o),
(303,71,cs),
(203,71,o),
(131,147,o),
(154,276,cs),
(176,405,o),
(274,478,o),
(374,478,cs),
(474,478,o),
(547,402,o),
(525,275,cs)
);
}
);
width = 676;
}
);
note = aogonek;
unicode = 261;
},
{
glyphname = Cacute;
lastChange = "2022-10-20 15:42:28 +0000";
layers = (
{
layerId = m01;
shapes = (
{
closed = 1;
nodes = (
(-14,140,o),
(113,-6,o),
(308,-6,cs),
(459,-6,o),
(592,69,o),
(668,203,c),
(559,203,l),
(506,120,o),
(424,73,o),
(322,73,cs),
(176,73,o),
(86,179,o),
(116,349,cs),
(146,520,o),
(274,626,o),
(420,626,cs),
(522,626,o),
(587,579,o),
(611,495,c),
(720,495,l),
(691,630,o),
(585,706,o),
(434,706,cs),
(239,706,o),
(60,558,o),
(23,349,cs)
);
},
{
closed = 1;
nodes = (
(342,808,l),
(330,740,l),
(563,854,l),
(577,933,l)
);
}
);
width = 772;
}
);
note = Cacute;
unicode = 262;
},
{
glyphname = cacute;
lastChange = "2022-10-20 15:42:28 +0000";
layers = (
{
layerId = m01;
shapes = (
{
closed = 1;
nodes = (
(-7,101,o),
(84,-9,o),
(240,-9,cs),
(376,-9,o),
(479,67,o),
(526,176,c),
(428,176,l),
(396,107,o),
(335,68,o),
(254,68,cs),
(154,68,o),
(92,139,o),
(116,275,cs),
(140,409,o),
(226,480,o),
(326,480,cs),
(407,480,o),
(455,438,o),
(462,372,c),
(560,372,l),
(553,487,o),
(476,557,o),
(340,557,cs),
(184,557,o),
(54,447,o),
(23,275,cs)
);
},
{
closed = 1;
nodes = (
(237,657,l),
(225,589,l),
(458,703,l),
(472,782,l)
);
}
);
width = 607;
}
);
note = cacute;
unicode = 263;
},
{
glyphname = Cdotaccent;
lastChange = "2022-10-20 15:42:28 +0000";
layers = (
{
layerId = m01;
shapes = (
{
closed = 1;
nodes = (
(-9,140,o),
(119,-6,o),
(314,-6,cs),
(465,-6,o),
(598,69,o),
(673,203,c),
(564,203,l),
(512,120,o),
(430,73,o),
(328,73,cs),
(182,73,o),
(91,179,o),
(121,349,cs),
(151,520,o),
(279,626,o),
(425,626,cs),
(527,626,o),
(593,579,o),
(616,495,c),
(725,495,l),
(697,630,o),
(590,706,o),
(439,706,cs),
(244,706,o),
(65,558,o),
(28,349,cs)
);
},
{
closed = 1;
nodes = (
(485,767,o),
(512,790,o),
(517,819,cs),
(522,848,o),
(503,872,o),
(474,872,cs),
(444,872,o),
(417,848,o),
(412,819,cs),
(407,790,o),
(426,767,o),
(456,767,cs)
);
}
);
width = 772;
}
);
note = Cdotaccent;
unicode = 266;
},
{
glyphname = cdotaccent;
lastChange = "2022-10-20 15:42:28 +0000";
layers = (
{
layerId = m01;
shapes = (
{
closed = 1;
nodes = (
(-2,101,o),
(90,-9,o),
(246,-9,cs),
(382,-9,o),
(484,67,o),
(531,176,c),
(433,176,l),
(401,107,o),
(340,68,o),
(259,68,cs),
(159,68,o),
(98,139,o),
(122,275,cs),
(145,409,o),
(232,480,o),
(332,480,cs),
(413,480,o),
(460,438,o),
(468,372,c),
(566,372,l),
(558,487,o),
(481,557,o),
(345,557,cs),
(189,557,o),
(59,447,o),
(29,275,cs)
);
},
{
closed = 1;
nodes = (
(379,617,o),
(406,640,o),
(411,669,cs),
(416,698,o),
(397,722,o),
(368,722,cs),
(338,722,o),
(311,698,o),
(306,669,cs),
(301,640,o),
(320,617,o),
(350,617,cs)
);
}
);
width = 607;
}
);
note = cdotaccent;
unicode = 267;
},
{
glyphname = Ccaron;
lastChange = "2022-10-20 15:42:28 +0000";
layers = (
{
layerId = m01;
shapes = (
{
closed = 1;
nodes = (
(-11,140,o),
(116,-6,o),
(311,-6,cs),
(462,-6,o),
(595,69,o),
(671,203,c),
(562,203,l),
(509,120,o),
(427,73,o),
(325,73,cs),
(179,73,o),
(89,179,o),
(119,349,cs),
(149,520,o),
(276,626,o),
(422,626,cs),
(524,626,o),
(590,579,o),
(613,495,c),
(722,495,l),
(694,630,o),
(587,706,o),
(436,706,cs),
(241,706,o),
(62,558,o),
(26,349,cs)
);
},
{
closed = 1;
nodes = (
(462,817,l),
(338,902,l),
(325,830,l),
(450,748,l),
(602,830,l),
(615,902,l)
);
}
);
width = 772;
}
);
note = Ccaron;
unicode = 268;
},
{
glyphname = ccaron;
lastChange = "2022-10-20 15:42:28 +0000";
layers = (
{
layerId = m01;
shapes = (
{
closed = 1;
nodes = (
(-5,101,o),
(87,-9,o),
(243,-9,cs),
(379,-9,o),
(481,67,o),
(529,176,c),
(431,176,l),
(398,107,o),
(338,68,o),
(257,68,cs),
(157,68,o),
(95,139,o),
(119,275,cs),
(143,409,o),
(229,480,o),
(329,480,cs),
(410,480,o),
(458,438,o),
(465,372,c),
(563,372,l),
(555,487,o),
(479,557,o),
(343,557,cs),
(187,557,o),
(56,447,o),
(26,275,cs)
);
},
{
closed = 1;
nodes = (
(356,666,l),
(232,751,l),
(219,679,l),
(344,597,l),
(496,679,l),
(509,751,l)
);
}
);
width = 607;
}
);
note = ccaron;
unicode = 269;
},
{
glyphname = Dcaron;
lastChange = "2022-10-20 15:42:28 +0000";
layers = (
{
layerId = m01;
shapes = (
{
closed = 1;
nodes = (
(121,697,l),
(-2,0,l),
(215,0,ls),
(444,0,o),
(608,131,o),
(646,347,cs),
(684,563,o),
(567,697,o),
(338,697,cs)
);
},
{
closed = 1;
nodes = (
(102,75,l),
(199,623,l),
(325,623,ls),
(507,623,o),
(583,517,o),
(553,347,cs),
(523,177,o),
(410,75,o),
(228,75,cs)
);
},
{
closed = 1;
nodes = (
(416,811,l),
(292,896,l),
(279,824,l),
(404,742,l),
(556,824,l),
(569,896,l)
);
}
);
width = 707;
}
);
note = Dcaron;
unicode = 270;
},
{
glyphname = dcaron;
lastChange = "2022-10-20 15:42:28 +0000";
layers = (
{
layerId = m01;
shapes = (
{
closed = 1;
nodes = (
(717,740,l),
(702,654,l),
(751,654,l),
(747,631,ls),
(741,596,o),
(724,578,o),
(689,578,c),
(682,535,l),
(749,535,o),
(790,570,o),
(804,648,cs),
(809,675,o),
(810,705,o),
(809,740,c)
);
},
{
closed = 1;
nodes = (
(-3,106,o),
(90,-9,o),
(237,-9,cs),
(337,-9,o),
(417,42,o),
(461,103,c),
(443,0,l),
(535,0,l),
(665,740,l),
(573,740,l),
(522,450,l),
(495,513,o),
(424,557,o),
(338,557,cs),
(190,557,o),
(57,447,o),
(27,276,cs)
);
},
{
closed = 1;
nodes = (
(468,146,o),
(369,71,o),
(269,71,cs),
(169,71,o),
(97,147,o),
(120,276,cs),
(143,405,o),
(241,478,o),
(341,478,cs),
(441,478,o),
(513,402,o),
(491,275,cs)
);
}
);
width = 754;
}
);
note = dcaron;
unicode = 271;
},
{
glyphname = Dcroat;
lastChange = "2022-10-20 15:42:28 +0000";
layers = (
{
layerId = m01;
shapes = (
{
closed = 1;
nodes = (
(157,697,l),
(103,389,l),
(16,389,l),
(1,305,l),
(88,305,l),
(35,0,l),
(252,0,ls),
(480,0,o),
(644,131,o),
(682,347,cs),
(720,563,o),
(602,697,o),
(374,697,cs)
);
},
{
closed = 1;
nodes = (
(138,70,l),
(179,305,l),
(371,305,l),
(386,389,l),
(194,389,l),
(235,623,l),
(361,623,ls),
(542,623,o),
(619,517,o),
(589,347,cs),
(559,177,o),
(445,70,o),
(264,70,cs)
);
}
);
width = 725;
}
);
note = Dcroat;
unicode = 272;
},
{
glyphname = dcroat;
lastChange = "2022-10-20 15:42:28 +0000";
layers = (
{
layerId = m01;
shapes = (
{
closed = 1;
nodes = (
(-3,106,o),
(90,-9,o),
(237,-9,cs),
(337,-9,o),
(417,42,o),
(461,103,c),
(443,0,l),
(535,0,l),
(641,605,l),
(702,605,l),
(712,659,l),
(651,659,l),
(665,740,l),
(573,740,l),
(559,659,l),
(447,659,l),
(437,605,l),
(549,605,l),
(522,450,l),
(495,513,o),
(424,557,o),
(338,557,cs),
(190,557,o),
(57,447,o),
(27,276,cs)
);
},
{
closed = 1;
nodes = (
(468,146,o),
(369,71,o),
(269,71,cs),
(169,71,o),
(97,147,o),
(120,276,cs),
(143,405,o),
(241,478,o),
(341,478,cs),
(441,478,o),
(513,402,o),
(491,275,cs)
);
}
);
width = 675;
}
);
note = dcroat;
unicode = 273;
},
{
glyphname = Emacron;
lastChange = "2022-10-20 15:42:28 +0000";
layers = (
{
layerId = m01;
shapes = (
{
closed = 1;
nodes = (
(500,698,l),
(125,698,l),
(2,0,l),
(377,0,l),
(390,75,l),
(106,75,l),
(148,315,l),
(402,315,l),
(415,390,l),
(161,390,l),
(203,623,l),
(487,623,l)
);
},
{
closed = 1;
nodes = (
(141,786,l),
(493,786,l),
(505,854,l),
(153,854,l)
);
}
);
width = 513;
}
);
note = Emacron;
unicode = 274;
},
{
glyphname = emacron;
lastChange = "2022-10-20 15:42:28 +0000";
layers = (
{
layerId = m01;
shapes = (
{
closed = 1;
nodes = (
(427,480,o),
(497,421,o),
(477,314,c),
(131,314,l),
(160,421,o),
(244,480,o),
(333,480,cs)
);
},
{
closed = 1;
nodes = (
(436,169,l),
(406,110,o),
(346,68,o),
(264,68,cs),
(171,68,o),
(104,129,o),
(117,240,c),
(555,240,l),
(560,259,o),
(564,275,o),
(567,295,cs),
(594,445,o),
(509,557,o),
(350,557,cs),
(190,557,o),
(60,448,o),
(30,275,cs),
(-1,101,o),
(95,-9,o),
(251,-9,cs),
(387,-9,o),
(488,69,o),
(534,169,c)
);
},
{
closed = 1;
nodes = (
(185,641,l),
(537,641,l),
(549,709,l),
(197,709,l)
);
}
);
width = 620;
}
);
note = emacron;
unicode = 275;
},
{
glyphname = Ebreve;
lastChange = "2022-10-20 15:42:28 +0000";
layers = (
{
layerId = m01;
shapes = (
{
closed = 1;
nodes = (
(496,698,l),
(121,698,l),
(-2,0,l),
(373,0,l),
(386,75,l),
(102,75,l),
(145,315,l),
(399,315,l),
(412,390,l),
(158,390,l),
(199,623,l),
(483,623,l)
);
},
{
closed = 1;
nodes = (
(476,895,l),
(422,895,l),
(413,847,o),
(384,818,o),
(320,818,cs),
(255,818,o),
(236,847,o),
(245,895,c),
(191,895,l),
(188,878,ls),
(175,803,o),
(216,747,o),
(308,747,cs),
(400,747,o),
(460,803,o),
(473,877,cs)
);
}
);
width = 513;
}
);
note = Ebreve;
unicode = 276;
},
{
glyphname = ebreve;
lastChange = "2022-10-20 15:42:28 +0000";
layers = (
{
layerId = m01;
shapes = (
{
closed = 1;
nodes = (
(423,480,o),
(493,421,o),
(473,314,c),
(127,314,l),
(156,421,o),
(240,480,o),
(329,480,cs)
);
},
{
closed = 1;
nodes = (
(432,169,l),
(402,110,o),
(343,68,o),
(261,68,cs),
(168,68,o),
(100,129,o),
(113,240,c),
(551,240,l),
(556,259,o),
(560,275,o),
(564,295,cs),
(590,445,o),
(506,557,o),
(347,557,cs),
(187,557,o),
(57,448,o),
(26,275,cs),
(-5,101,o),
(91,-9,o),
(247,-9,cs),
(383,-9,o),
(485,69,o),
(530,169,c)
);
},
{
closed = 1;
nodes = (
(520,750,l),
(466,750,l),
(457,702,o),
(428,673,o),
(364,673,cs),
(299,673,o),
(280,702,o),
(289,750,c),
(235,750,l),
(232,733,ls),
(219,658,o),
(260,602,o),
(352,602,cs),
(444,602,o),
(504,658,o),
(517,732,cs)
);
}
);
width = 620;
}
);
note = ebreve;
unicode = 277;
},
{
glyphname = Edotaccent;
lastChange = "2022-10-20 15:42:28 +0000";
layers = (
{
layerId = m01;
shapes = (
{
closed = 1;
nodes = (
(499,698,l),
(124,698,l),
(1,0,l),
(376,0,l),
(389,75,l),
(105,75,l),
(147,315,l),
(401,315,l),
(414,390,l),
(160,390,l),
(202,623,l),
(486,623,l)
);
},
{
closed = 1;
nodes = (
(342,761,o),
(369,784,o),
(374,813,cs),
(379,842,o),
(360,866,o),
(331,866,cs),
(301,866,o),
(274,842,o),
(269,813,cs),
(264,784,o),
(283,761,o),
(313,761,cs)
);
}
);
width = 513;
}
);
note = Edotaccent;
unicode = 278;
},
{
glyphname = edotaccent;
lastChange = "2022-10-20 15:42:28 +0000";
layers = (
{
layerId = m01;
shapes = (
{
closed = 1;
nodes = (
(426,480,o),
(495,421,o),
(476,314,c),
(130,314,l),
(158,421,o),
(243,480,o),
(332,480,cs)
);
},
{
closed = 1;
nodes = (
(435,169,l),
(405,110,o),
(345,68,o),
(263,68,cs),
(170,68,o),
(103,129,o),
(115,240,c),
(553,240,l),
(559,259,o),
(563,275,o),
(566,295,cs),
(593,445,o),
(508,557,o),
(349,557,cs),
(189,557,o),
(59,448,o),
(29,275,cs),
(-2,101,o),
(94,-9,o),
(250,-9,cs),
(386,-9,o),
(487,69,o),
(533,169,c)
);
},
{
closed = 1;
nodes = (
(386,617,o),
(413,640,o),
(418,669,cs),
(423,698,o),
(404,722,o),
(375,722,cs),
(345,722,o),
(318,698,o),
(313,669,cs),
(308,640,o),
(327,617,o),
(357,617,cs)
);
}
);
width = 620;
}
);
note = edotaccent;
unicode = 279;
},
{
glyphname = Eogonek;
lastChange = "2022-10-20 15:42:28 +0000";
layers = (
{
layerId = m01;
shapes = (
{
closed = 1;
nodes = (
(532,698,l),
(157,698,l),
(34,0,l),
(288,0,l),
(232,-33,o),
(207,-68,o),
(200,-106,cs),
(187,-179,o),
(244,-206,o),
(304,-206,cs),
(331,-206,o),
(359,-200,o),
(384,-192,c),
(394,-132,l),
(370,-140,o),
(346,-145,o),
(327,-145,cs),
(291,-145,o),
(271,-128,o),
(277,-97,cs),
(281,-72,o),
(300,-49,o),
(349,-27,cs),
(409,0,l),
(422,75,l),
(138,75,l),
(180,315,l),
(434,315,l),
(447,390,l),
(193,390,l),
(234,623,l),
(518,623,l)
);
}
);
width = 513;
}
);
note = Eogonek;
unicode = 280;
},
{
glyphname = eogonek;
lastChange = "2022-10-20 15:42:28 +0000";
layers = (
{
layerId = m01;
shapes = (
{
closed = 1;
nodes = (
(456,480,o),
(526,421,o),
(506,314,c),
(160,314,l),
(189,421,o),
(273,480,o),
(362,480,cs)
);
},
{
closed = 1;
nodes = (
(376,-118,l),
(352,-126,o),
(328,-131,o),
(309,-131,cs),
(273,-131,o),
(253,-114,o),
(258,-83,cs),
(263,-58,o),
(282,-35,o),
(331,-13,cs),
(361,1,l),
(456,25,o),
(528,90,o),
(564,169,c),
(466,169,l),
(435,110,o),
(376,68,o),
(294,68,cs),
(201,68,o),
(134,129,o),
(146,240,c),
(584,240,l),
(589,259,o),
(593,275,o),
(597,295,cs),
(623,445,o),
(539,557,o),
(380,557,cs),
(220,557,o),
(90,448,o),
(59,275,cs),
(31,117,o),
(108,11,o),
(240,-6,c),
(204,-33,o),
(187,-62,o),
(182,-92,cs),
(169,-165,o),
(226,-192,o),
(286,-192,cs),
(313,-192,o),
(341,-186,o),
(365,-178,c)
);
}
);
width = 620;
}
);
note = eogonek;
unicode = 281;
},
{
glyphname = Ecaron;
lastChange = "2022-10-20 15:42:28 +0000";
layers = (
{
layerId = m01;
shapes = (
{
closed = 1;
nodes = (
(496,698,l),
(121,698,l),
(-2,0,l),
(373,0,l),
(386,75,l),
(102,75,l),
(145,315,l),
(399,315,l),
(412,390,l),
(158,390,l),
(199,623,l),
(483,623,l)
);
},
{
closed = 1;
nodes = (
(319,811,l),
(195,896,l),
(182,824,l),
(307,742,l),
(459,824,l),
(472,896,l)
);
}
);
width = 513;
}
);
note = Ecaron;
unicode = 282;
},
{
glyphname = ecaron;
lastChange = "2022-10-20 15:42:28 +0000";
layers = (
{
layerId = m01;
shapes = (
{
closed = 1;
nodes = (
(423,480,o),
(493,421,o),
(473,314,c),
(127,314,l),
(156,421,o),
(240,480,o),
(329,480,cs)
);
},
{
closed = 1;
nodes = (
(432,169,l),
(402,110,o),
(343,68,o),
(261,68,cs),
(168,68,o),
(100,129,o),
(113,240,c),
(551,240,l),
(556,259,o),
(560,275,o),
(564,295,cs),
(590,445,o),
(506,557,o),
(347,557,cs),
(187,557,o),
(57,448,o),
(26,275,cs),
(-5,101,o),
(91,-9,o),
(247,-9,cs),
(383,-9,o),
(485,69,o),
(530,169,c)
);
},
{
closed = 1;
nodes = (
(363,666,l),
(239,751,l),
(226,679,l),
(351,597,l),
(503,679,l),
(516,751,l)
);
}
);
width = 620;
}
);
note = ecaron;
unicode = 283;
},
{
glyphname = Gbreve;
lastChange = "2022-10-20 15:42:28 +0000";
layers = (
{
layerId = m01;
shapes = (
{
closed = 1;
nodes = (
(243,705,o),
(63,558,o),
(26,349,cs),
(-11,140,o),
(118,-6,o),
(314,-6,cs),
(503,-6,o),
(664,133,o),
(711,306,c),
(723,376,l),
(348,376,l),
(335,302,l),
(613,302,l),
(575,164,o),
(465,76,o),
(328,76,cs),
(181,76,o),
(90,182,o),
(119,349,cs),
(149,517,o),
(277,623,o),
(424,623,cs),
(522,623,o),
(590,576,o),
(614,495,c),
(723,495,l),
(695,629,o),
(586,705,o),
(439,705,cs)
);
},
{
closed = 1;
nodes = (
(614,895,l),
(560,895,l),
(552,847,o),
(523,818,o),
(459,818,cs),
(394,818,o),
(375,847,o),
(383,895,c),
(329,895,l),
(326,878,ls),
(313,803,o),
(354,747,o),
(446,747,cs),
(538,747,o),
(598,803,o),
(611,877,cs)
);
}
);
width = 778;
}
);
note = Gbreve;
unicode = 286;
},
{
glyphname = gbreve;
lastChange = "2022-10-20 15:42:28 +0000";
layers = (
{
layerId = m01;
shapes = (
{
closed = 1;
nodes = (
(19,106,o),
(112,-9,o),
(259,-9,cs),
(359,-9,o),
(439,44,o),
(483,103,c),
(463,-12,ls),
(442,-129,o),
(358,-191,o),
(261,-191,cs),
(171,-191,o),
(114,-146,o),
(106,-80,c),
(16,-80,l),
(13,-197,o),
(103,-270,o),
(247,-270,cs),
(408,-270,o),
(528,-163,o),
(555,-12,cs),
(653,548,l),
(561,548,l),
(544,448,l),
(522,507,o),
(459,557,o),
(359,557,cs),
(212,557,o),
(79,447,o),
(49,276,cs)
);
},
{
closed = 1;
nodes = (
(490,146,o),
(391,71,o),
(291,71,cs),
(191,71,o),
(120,147,o),
(142,276,cs),
(165,405,o),
(263,478,o),
(363,478,cs),
(463,478,o),
(536,402,o),
(513,275,cs)
);
},
{
closed = 1;
nodes = (
(571,750,l),
(517,750,l),
(508,702,o),
(479,673,o),
(415,673,cs),
(350,673,o),
(331,702,o),
(340,750,c),
(286,750,l),
(283,733,ls),
(270,658,o),
(311,602,o),
(403,602,cs),
(495,602,o),
(555,658,o),
(568,732,cs)
);
}
);
width = 676;
}
);
note = gbreve;
unicode = 287;
},
{
glyphname = Gdotaccent;
lastChange = "2022-10-20 15:42:28 +0000";
layers = (
{
layerId = m01;
shapes = (
{
closed = 1;
nodes = (
(245,705,o),
(66,558,o),
(29,349,cs),
(-8,140,o),
(120,-6,o),
(316,-6,cs),
(505,-6,o),
(667,133,o),
(713,306,c),
(725,376,l),
(350,376,l),
(337,302,l),
(615,302,l),
(577,164,o),
(468,76,o),
(331,76,cs),
(184,76,o),
(92,182,o),
(122,349,cs),
(151,517,o),
(280,623,o),
(427,623,cs),
(525,623,o),
(593,576,o),
(616,495,c),
(725,495,l),
(697,629,o),
(588,705,o),
(441,705,cs)
);
},
{
closed = 1;
nodes = (
(479,761,o),
(506,784,o),
(512,813,cs),
(517,842,o),
(498,866,o),
(469,866,cs),
(439,866,o),
(412,842,o),
(407,813,cs),
(401,784,o),
(420,761,o),
(450,761,cs)
);
}
);
width = 778;
}
);
note = Gdotaccent;
unicode = 288;
},
